<svg width="156" height="33" viewBox="0 0 156 33" fill="none" xmlns="http://www.w3.org/2000/svg">
<rect x="0.382638" y="0.266202" width="20.1727" height="18.2553" rx="3.58908" transform="matrix(0.986034 -0.166547 0.186697 0.982418 -0.0443551 9.40445)" fill="#8E9CF8" stroke="#FF9A7B" stroke-width="0.65256"/>
<rect x="2.84127" y="16.2471" width="22.8396" height="11.7461" transform="rotate(-42.1401 2.84127 16.2471)" fill="white" stroke="#8E9CF8" stroke-width="0.32628"/>
<ellipse cx="19.5772" cy="10.8071" rx="4.56792" ry="4.56792" fill="#FF9A7B"/>
<rect x="2.69486" y="21.0831" width="22.8396" height="11.7461" transform="rotate(-66.0169 2.69486 21.0831)" fill="white" stroke="#8E9CF8" stroke-width="0.32628"/>
<ellipse cx="13.7037" cy="10.8071" rx="4.56792" ry="4.56792" fill="#FF9A7B"/>
<rect x="1.30501" y="9.78334" width="27.0812" height="21.2082" rx="2.93652" fill="#8E9CF8" stroke="#FF9A7B" stroke-width="1.95768"/>
<mask id="mask0_747_846" style="mask-type:alpha" maskUnits="userSpaceOnUse" x="2" y="10" width="26" height="23">
<path d="M2.28369 10.7619H27.4072V32.6227H2.28369V10.7619Z" fill="#5B5C70"/>
</mask>
<g mask="url(#mask0_747_846)">
<mask id="path-8-outside-1_747_846" maskUnits="userSpaceOnUse" x="9.95861" y="-2.73507" width="35.7846" height="37.9808" fill="black">
<rect fill="white" x="9.95861" y="-2.73507" width="35.7846" height="37.9808"/>
<path d="M34.9167 6.26768L34.1171 6.7293C33.5065 6.01573 32.7458 5.36795 31.835 4.78595C30.9241 4.20396 29.9084 3.76613 28.7877 3.47248C27.6671 3.17883 26.4963 3.09704 25.2753 3.22709C24.0544 3.35715 22.8286 3.77745 21.5979 4.48799C19.9518 5.43839 18.6874 6.76937 17.8047 8.48094C16.9253 10.1801 16.5585 12.1426 16.7043 14.3683C16.8533 16.5816 17.6475 18.9346 19.0866 21.4273C20.5439 23.9514 22.1937 25.8314 24.0359 27.0671C25.886 28.2983 27.7644 28.9541 29.6711 29.0343C31.5857 29.1099 33.366 28.6726 35.0122 27.7222C36.2429 27.0116 37.222 26.1641 37.9497 25.1796C38.6727 24.1873 39.1896 23.1364 39.5001 22.0269C39.8061 20.9096 39.9348 19.811 39.8862 18.7312C39.8331 17.6435 39.648 16.653 39.3307 15.7596L40.1303 15.298C40.4701 16.2305 40.6814 17.2844 40.7641 18.4595C40.8423 19.6268 40.7297 20.8257 40.4265 22.0565C40.1232 23.2872 39.5733 24.4617 38.7766 25.5801C37.9755 26.6907 36.8655 27.6555 35.4467 28.4747C33.4713 29.6152 31.4363 30.1003 29.3417 29.93C27.2471 29.7597 25.2441 28.9877 23.3328 27.6142C21.4214 26.2406 19.7552 24.3232 18.3341 21.8618C16.913 19.4004 16.0856 16.9987 15.8517 14.6567C15.6179 12.3146 15.9509 10.194 16.8507 8.29489C17.7505 6.39576 19.1881 4.87595 21.1635 3.73546C22.5823 2.91631 23.9729 2.43745 25.3352 2.29891C26.6976 2.16036 27.9875 2.26745 29.2049 2.62017C30.4179 2.96506 31.5125 3.46709 32.4888 4.12626C33.4606 4.77759 34.2699 5.4914 34.9167 6.26768Z"/>
</mask>
<path d="M34.9167 6.26768L35.0798 6.55024L35.4154 6.35651L35.1673 6.05882L34.9167 6.26768ZM34.1171 6.7293L33.8692 6.94143L34.0454 7.14743L34.2802 7.01187L34.1171 6.7293ZM31.835 4.78595L31.6593 5.0609L31.835 4.78595ZM28.7877 3.47248L28.8704 3.15686L28.7877 3.47248ZM25.2753 3.22709L25.2408 2.90265L25.2753 3.22709ZM17.8047 8.48094L18.0945 8.63091L18.0947 8.63049L17.8047 8.48094ZM16.7043 14.3683L16.3787 14.3896L16.3787 14.3902L16.7043 14.3683ZM24.0359 27.0671L23.8542 27.3381L23.8552 27.3387L24.0359 27.0671ZM29.6711 29.0343L29.6574 29.3602L29.6583 29.3603L29.6711 29.0343ZM37.9497 25.1796L38.2121 25.3736L38.2134 25.3718L37.9497 25.1796ZM39.5001 22.0269L39.8143 22.1149L39.8148 22.1131L39.5001 22.0269ZM39.8862 18.7312L40.2122 18.7165L40.2121 18.7152L39.8862 18.7312ZM39.3307 15.7596L39.1676 15.477L38.9324 15.6128L39.0233 15.8688L39.3307 15.7596ZM40.1303 15.298L40.4369 15.1863L40.3038 14.8211L39.9672 15.0154L40.1303 15.298ZM40.7641 18.4595L41.0897 18.4377L41.0896 18.4366L40.7641 18.4595ZM40.4265 22.0565L40.1097 21.9784L40.4265 22.0565ZM38.7766 25.5801L39.0412 25.771L39.0424 25.7694L38.7766 25.5801ZM29.3417 29.93L29.3681 29.6048L29.3417 29.93ZM23.3328 27.6142L23.1423 27.8791L23.3328 27.6142ZM16.8507 8.29489L17.1455 8.4346L16.8507 8.29489ZM29.2049 2.62017L29.1141 2.93357L29.1157 2.93401L29.2049 2.62017ZM32.4888 4.12626L32.3062 4.39668L32.3072 4.39729L32.4888 4.12626ZM34.7535 5.98511L33.954 6.44673L34.2802 7.01187L35.0798 6.55024L34.7535 5.98511ZM34.365 6.51717C33.7307 5.77587 32.9445 5.10773 32.0106 4.51101L31.6593 5.0609C32.5471 5.62817 33.2824 6.25559 33.8692 6.94143L34.365 6.51717ZM32.0106 4.51101C31.0691 3.90942 30.0216 3.45852 28.8704 3.15686L28.705 3.78811C29.7951 4.07375 30.7791 4.4985 31.6593 5.0609L32.0106 4.51101ZM28.8704 3.15686C27.7093 2.8526 26.4986 2.76866 25.2408 2.90265L25.3099 3.55154C26.4939 3.42541 27.6248 3.50506 28.705 3.78811L28.8704 3.15686ZM25.2408 2.90265C23.968 3.03823 22.6988 3.47566 21.4348 4.20542L21.7611 4.77055C22.9585 4.07924 24.1409 3.67606 25.3099 3.55154L25.2408 2.90265ZM21.4348 4.20542C19.7337 5.18752 18.4256 6.56502 17.5147 8.33139L18.0947 8.63049C18.9491 6.97373 20.1698 5.68926 21.7611 4.77055L21.4348 4.20542ZM17.5149 8.33098C16.604 10.0912 16.2297 12.1146 16.3787 14.3896L17.0298 14.3469C16.8873 12.1706 17.2466 10.2691 18.0945 8.63091L17.5149 8.33098ZM16.3787 14.3902C16.532 16.6658 17.3471 19.0669 18.8041 21.5905L19.3692 21.2642C17.9478 18.8023 17.1747 16.4974 17.0298 14.3463L16.3787 14.3902ZM18.8041 21.5905C20.2788 24.1447 21.9596 26.0672 23.8542 27.3381L24.2177 26.7961C22.4277 25.5955 20.8091 23.7581 19.3692 21.2642L18.8041 21.5905ZM23.8552 27.3387C25.7466 28.5975 27.6819 29.2771 29.6574 29.3602L29.6849 28.7083C27.847 28.631 26.0254 27.9992 24.2167 26.7955L23.8552 27.3387ZM29.6583 29.3603C31.6339 29.4384 33.4753 28.9862 35.1753 28.0047L34.849 27.4396C33.2567 28.3589 31.5375 28.7815 29.684 28.7082L29.6583 29.3603ZM35.1753 28.0047C36.4387 27.2754 37.4538 26.3994 38.212 25.3736L37.6873 24.9857C36.9902 25.9288 36.0471 26.7479 34.849 27.4396L35.1753 28.0047ZM38.2134 25.3718C38.9578 24.3501 39.4926 23.2642 39.8143 22.1148L39.1859 21.939C38.8865 23.0086 38.3877 24.0245 37.686 24.9875L38.2134 25.3718ZM39.8148 22.1131C40.1292 20.9653 40.2624 19.8327 40.2122 18.7165L39.5603 18.7458C39.6072 19.7893 39.4831 20.8539 39.1854 21.9407L39.8148 22.1131ZM40.2121 18.7152C40.1577 17.6004 39.9675 16.5779 39.6382 15.6504L39.0233 15.8688C39.3284 16.7281 39.5086 17.6866 39.5603 18.7471L40.2121 18.7152ZM39.4939 16.0422L40.2934 15.5805L39.9672 15.0154L39.1676 15.477L39.4939 16.0422ZM39.8237 15.4097C40.1514 16.3089 40.3577 17.3321 40.4386 18.4824L41.0896 18.4366C41.0051 17.2366 40.7888 16.1522 40.4369 15.1863L39.8237 15.4097ZM40.4386 18.4813C40.5143 19.6123 40.4056 20.7776 40.1097 21.9784L40.7433 22.1345C41.0539 20.8739 41.1703 19.6412 41.0897 18.4377L40.4386 18.4813ZM40.1097 21.9784C39.817 23.1659 39.2856 24.3031 38.5109 25.3908L39.0424 25.7694C39.8609 24.6203 40.4294 23.4084 40.7433 22.1345L40.1097 21.9784ZM38.512 25.3892C37.7426 26.4558 36.6701 27.3916 35.2835 28.1921L35.6098 28.7573C37.0608 27.9195 38.2083 26.9256 39.0412 25.771L38.512 25.3892ZM35.2835 28.1921C33.3604 29.3024 31.391 29.7692 29.3681 29.6048L29.3152 30.2552C31.4816 30.4313 33.5822 29.9279 35.6098 28.7573L35.2835 28.1921ZM29.3681 29.6048C27.3395 29.4398 25.3923 28.6924 23.5232 27.3492L23.1423 27.8791C25.0959 29.283 27.1546 30.0795 29.3152 30.2552L29.3681 29.6048ZM23.5232 27.3492C21.6564 26.0077 20.0193 24.1281 18.6167 21.6987L18.0515 22.0249C19.4911 24.5183 21.1864 26.4736 23.1423 27.8791L23.5232 27.3492ZM18.6167 21.6987C17.214 19.2692 16.4048 16.9117 16.1764 14.6242L15.5271 14.6891C15.7664 17.0857 16.612 19.5316 18.0515 22.0249L18.6167 21.6987ZM16.1764 14.6242C15.9477 12.334 16.2741 10.2739 17.1455 8.4346L16.5558 8.15519C15.6277 10.1142 15.288 12.2953 15.5271 14.6891L16.1764 14.6242ZM17.1455 8.4346C18.0145 6.60051 19.4035 5.12835 21.3266 4.01803L21.0003 3.4529C18.9727 4.62355 17.4864 6.19101 16.5558 8.15519L17.1455 8.4346ZM21.3266 4.01803C22.7132 3.21747 24.0598 2.75657 25.3682 2.62352L25.3022 1.9743C23.8859 2.11834 22.4513 2.61514 21.0003 3.4529L21.3266 4.01803ZM25.3682 2.62352C26.6923 2.48886 27.94 2.59339 29.1141 2.93357L29.2957 2.30678C28.035 1.94152 26.7028 1.83187 25.3022 1.9743L25.3682 2.62352ZM29.1157 2.93401C30.2978 3.27012 31.3605 3.75814 32.3062 4.39668L32.6714 3.85584C31.6645 3.17603 30.538 2.66 29.2942 2.30633L29.1157 2.93401ZM32.3072 4.39729C33.2571 5.03397 34.042 5.72759 34.666 6.47653L35.1673 6.05882C34.4978 5.25521 33.6641 4.52122 32.6705 3.85523L32.3072 4.39729Z" fill="white" mask="url(#path-8-outside-1_747_846)"/>
</g>
<rect x="26.918" y="15.2123" width="3.2628" height="10.1147" rx="1.14198" fill="#8E9CF8" stroke="white" stroke-width="0.32628"/>
<rect x="28.0601" y="17.0065" width="0.97884" height="6.5256" rx="0.48942" fill="white"/>
<path d="M50.3932 24.2005C50.4771 24.2634 50.4981 24.3892 50.4351 24.4521C49.0092 26.3393 46.8075 27.4297 44.4799 27.4297C40.3279 27.4297 36.9728 23.9908 36.9728 19.734C36.9728 15.4982 40.3279 12.0382 44.4799 12.0382C45.6961 12.0382 46.8704 12.3318 47.9398 12.898C48.8624 13.4013 49.7012 14.0932 50.3513 14.911C50.4142 14.9949 50.3932 15.0998 50.3093 15.1627L47.814 16.987C47.7511 17.0499 47.6462 17.0289 47.5833 16.966C46.7865 16.0434 45.6751 15.5401 44.4799 15.5401C42.2152 15.5401 40.3699 17.4274 40.3699 19.734C40.3699 22.0616 42.2152 23.9488 44.4799 23.9488C45.717 23.9488 46.8704 23.3827 47.6672 22.4181C47.7091 22.3342 47.8349 22.3342 47.8979 22.3761L50.3932 24.2005ZM60.073 16.8193C61.2054 17.9516 61.3941 18.8742 61.3941 20.5099L61.3941 26.7587C61.3941 26.8426 61.3102 26.9265 61.2054 26.9265L57.9132 26.9265C57.8083 26.9265 57.7244 26.8426 57.7244 26.7587L57.7244 20.6776C57.7244 20.2792 57.7035 19.7969 57.5357 19.4195C57.4518 19.2517 57.347 19.1259 57.2212 19.021C57.0115 18.8742 56.7389 18.7904 56.4034 18.7904C55.7743 18.7904 55.271 19.0001 55.1243 19.3565C54.9355 19.734 54.9355 20.2582 54.9355 20.6776L54.9355 26.7587C54.9355 26.8426 54.8516 26.9265 54.7678 26.9265L51.4546 26.9265C51.3498 26.9265 51.2869 26.8426 51.2869 26.7587L51.2869 12.5205C51.2869 12.4367 51.3498 12.3528 51.4546 12.3528L54.5581 12.3528C54.642 12.3528 54.7258 12.4367 54.7258 12.5205L54.7258 16.316C54.7258 16.3999 54.8097 16.4418 54.8726 16.3999C57.368 14.6804 59.8004 16.5886 59.8214 16.6096C59.9053 16.6725 59.9891 16.7354 60.073 16.8193ZM74.3443 15.8337C74.4491 15.8337 74.512 15.9176 74.512 16.0224L74.512 26.7378C74.512 26.8426 74.4491 26.9265 74.3443 26.9265L71.2408 26.9265C71.1569 26.9265 71.0731 26.8426 71.0731 26.7378L71.0731 26.591C71.0731 26.5071 70.9892 26.4652 70.9263 26.5071C70.0456 27.0104 69.039 27.262 68.0115 27.262C64.7613 27.262 62.1401 24.6618 62.1401 21.4744C62.1401 18.2661 64.7613 15.6659 68.0115 15.6659C69.039 15.6659 70.0456 15.9176 70.9263 16.4208C70.9892 16.4628 71.0731 16.4208 71.0731 16.3579L71.0731 16.0224C71.0731 15.9176 71.1569 15.8337 71.2408 15.8337L74.3443 15.8337ZM68.5358 24.1376C70.0246 24.1376 71.0731 22.9423 71.0731 21.4744C71.0731 20.0066 70.0246 18.8113 68.5358 18.8113C67.0679 18.8113 65.8517 20.0066 65.8517 21.4744C65.8517 22.9423 67.0679 24.1376 68.5358 24.1376ZM79.2583 12.3528C79.3632 12.3528 79.447 12.4367 79.447 12.5205L79.447 26.7587C79.447 26.8426 79.3632 26.9265 79.2583 26.9265L75.9871 26.9265C75.8823 26.9265 75.8194 26.8426 75.8194 26.7587L75.8194 12.5205C75.8194 12.4367 75.8823 12.3528 75.9871 12.3528L79.2583 12.3528ZM84.173 12.3528C84.2779 12.3528 84.3617 12.4367 84.3617 12.5205L84.3617 26.7587C84.3617 26.8426 84.2779 26.9265 84.173 26.9265L80.9018 26.9265C80.7969 26.9265 80.734 26.8426 80.734 26.7587L80.734 12.5205C80.734 12.4367 80.7969 12.3528 80.9018 12.3528L84.173 12.3528ZM96.7513 19.8388C96.9191 20.3631 97.003 20.9083 97.003 21.4744C97.003 21.789 96.961 22.1664 96.8981 22.5019C96.8981 22.5858 96.8142 22.6487 96.7304 22.6487L88.9717 22.6487C88.8249 22.6487 88.7411 22.7955 88.804 22.9213C89.2863 23.7182 90.146 24.2214 91.0896 24.2214C91.8865 24.2214 92.6413 23.8859 93.1656 23.1939C93.2075 23.152 93.2704 23.1101 93.3543 23.131L96.311 23.6553C96.4368 23.6762 96.4997 23.802 96.4368 23.9069C96.3739 24.0537 96.29 24.2214 96.2481 24.3053L96.2061 24.3892C96.1432 24.4731 96.1013 24.536 96.0594 24.6408C95.9755 24.7457 95.9126 24.8295 95.8497 24.9134L95.8077 24.9554C95.7868 24.9973 95.7658 25.0183 95.7448 25.0392L95.7238 25.0812C95.6819 25.1441 95.64 25.186 95.598 25.228L95.5561 25.2699C95.4932 25.3538 95.4303 25.4167 95.3674 25.4796L95.3254 25.5215C95.2625 25.5844 95.2206 25.6264 95.1786 25.6683L95.1577 25.6893C95.1157 25.7312 95.0528 25.7732 95.0109 25.8151L94.948 25.878L94.8851 25.8151L94.927 25.878C94.8431 25.9619 94.7802 26.0248 94.6963 26.0667L94.6334 26.1296C94.5286 26.1925 94.4447 26.2555 94.3399 26.3184L94.3189 26.3393C94.2141 26.4022 94.1092 26.4652 93.9834 26.5281L93.9624 26.549C93.9414 26.57 93.8995 26.591 93.8785 26.591L93.8576 26.6119C93.8156 26.6329 93.7527 26.6539 93.7108 26.6748L93.6898 26.6958C93.585 26.7378 93.4801 26.7797 93.3753 26.8216L93.3753 26.8426C93.2914 26.8636 93.2495 26.8845 93.1866 26.9055L93.1027 26.9265C93.0398 26.9474 92.9559 26.9894 92.893 27.0104L92.872 27.0104C92.7881 27.0313 92.7043 27.0523 92.6204 27.0733L92.5575 27.0942C92.3897 27.1362 92.222 27.1781 92.0542 27.1991L91.9913 27.22C91.8026 27.241 91.6348 27.262 91.4461 27.262L91.3832 27.262C91.2783 27.283 91.1945 27.283 91.1106 27.283C91.0267 27.283 90.9428 27.283 90.838 27.262C90.817 27.262 90.796 27.262 90.7751 27.262L90.7541 27.262C90.6912 27.262 90.6283 27.262 90.5654 27.241L90.5444 27.241C90.5234 27.241 90.5025 27.241 90.4815 27.241C90.3767 27.241 90.2928 27.22 90.2299 27.1991L90.2089 27.1991L90.167 27.1991C90.1041 27.1991 90.0202 27.1781 89.9573 27.1571L89.8734 27.1362C89.8105 27.1362 89.7476 27.1152 89.6847 27.0942L89.6637 27.0942C89.6427 27.0942 89.6427 27.0942 89.6218 27.0942C89.5169 27.0523 89.433 27.0313 89.3701 27.0104C89.2863 26.9894 89.2024 26.9684 89.1185 26.9265C89.0975 26.9265 89.0766 26.9265 89.0556 26.9055C88.9927 26.8845 88.9298 26.8636 88.8669 26.8426L88.8459 26.8216C88.8249 26.8216 88.8249 26.8216 88.804 26.8007C88.7201 26.7797 88.6362 26.7378 88.5733 26.6958L88.5523 26.6958C88.4894 26.6748 88.4055 26.6329 88.3426 26.591C88.3217 26.57 88.3007 26.57 88.2797 26.549L88.2588 26.549C88.2168 26.5281 88.1539 26.4861 88.112 26.4652L88.0281 26.4232C87.9652 26.3813 87.9023 26.3393 87.8184 26.2764C87.1264 25.8151 86.5183 25.186 86.0779 24.4731C86.036 24.4102 86.015 24.3682 85.9731 24.3053L85.9521 24.2634C85.9312 24.2214 85.8892 24.1585 85.8683 24.0956L85.8473 24.0537C85.8263 24.0327 85.8263 24.0327 85.8263 24.0117C85.7005 23.7811 85.6166 23.5294 85.5327 23.2778C85.4698 23.152 85.4489 23.0262 85.4069 22.9213C85.386 22.8375 85.365 22.7326 85.344 22.6487C85.2811 22.3552 85.2601 22.0616 85.2392 21.768C85.2392 21.6632 85.2392 21.5793 85.2392 21.4744C85.2392 21.3696 85.2392 21.2648 85.2392 21.1809C85.2601 20.6566 85.365 20.1534 85.5327 19.6501C85.5747 19.4824 85.6376 19.3565 85.7005 19.2098C85.7215 19.1259 85.7634 19.063 85.8053 18.9791C85.8053 18.9581 85.8053 18.9372 85.8263 18.9162L85.8473 18.8742C85.8473 18.8742 85.8683 18.8533 85.8683 18.8323C85.8892 18.8113 85.8892 18.7904 85.9102 18.7694L85.9521 18.6855C85.9941 18.6016 86.036 18.5387 86.0779 18.4549C86.5183 17.7419 87.1264 17.1338 87.8184 16.6515C87.9023 16.6096 87.9652 16.5676 88.0281 16.5257L88.112 16.4837C88.1539 16.4418 88.2168 16.4208 88.2588 16.3999L88.2797 16.3789C88.3007 16.3789 88.3217 16.3579 88.3426 16.3579C88.4055 16.316 88.4894 16.2741 88.5523 16.2321C88.6362 16.2111 88.7201 16.1692 88.804 16.1273C88.8249 16.1273 88.8249 16.1273 88.8459 16.1063L88.8669 16.1063C88.9298 16.0853 88.9927 16.0644 89.0556 16.0434L89.0556 16.0224C89.0766 16.0224 89.0975 16.0224 89.1185 16.0015C89.2024 15.9805 89.2863 15.9595 89.3701 15.9176C89.454 15.8966 89.5379 15.8756 89.6218 15.8547C89.6427 15.8547 89.6427 15.8547 89.6637 15.8337L89.6847 15.8337C89.7476 15.8127 89.8105 15.8127 89.8734 15.7918L89.9153 15.7918C89.9992 15.7708 90.125 15.7498 90.2089 15.7288C90.2299 15.7288 90.2299 15.7288 90.2299 15.7288C90.2928 15.7288 90.3767 15.7079 90.4815 15.7079C90.5025 15.7079 90.5234 15.6869 90.5444 15.6869L90.5654 15.6869C90.6283 15.6869 90.6912 15.6869 90.7541 15.6869L90.7751 15.6869C90.796 15.6659 90.817 15.6659 90.838 15.6659C90.9428 15.6659 91.0267 15.6659 91.1106 15.6659C91.1945 15.6659 91.2783 15.6659 91.3832 15.6659L91.4461 15.6869C91.6348 15.6869 91.8026 15.7079 91.9703 15.7288L92.0542 15.7498C92.222 15.7708 92.3897 15.7918 92.5575 15.8337L92.6204 15.8547C92.7043 15.8756 92.7881 15.9176 92.872 15.9385L92.893 15.9385C92.9559 15.9595 93.0398 15.9805 93.1027 16.0015C93.1236 16.0224 93.1446 16.0224 93.1656 16.0434C93.2495 16.0644 93.2914 16.0853 93.3543 16.1063L93.3962 16.1063C93.4801 16.1482 93.585 16.2111 93.6898 16.2531L93.7108 16.2531C93.7527 16.295 93.8156 16.316 93.8576 16.337L93.8366 16.4208L93.8785 16.337C93.8995 16.3579 93.9414 16.3789 93.9624 16.3999C94.0673 16.4418 94.2141 16.5467 94.3189 16.6096C94.4237 16.6725 94.5286 16.7354 94.6125 16.8193L94.6334 16.8193C94.6544 16.8402 94.6754 16.8612 94.6963 16.8612C94.7802 16.9241 94.8431 16.987 94.927 17.0499L94.9899 17.0919C95.0528 17.1548 95.0948 17.1967 95.1577 17.2596L95.1786 17.2806C95.2206 17.3225 95.2625 17.3645 95.3254 17.4064L95.3464 17.4483C95.4303 17.5322 95.4932 17.5951 95.5561 17.658L95.4932 17.7419L95.5561 17.679L95.598 17.7209C95.64 17.7629 95.6819 17.8048 95.7238 17.8468L95.7448 17.8887C95.7868 17.9516 95.8497 18.0145 95.8916 18.0774C95.9335 18.1194 95.9545 18.1823 95.9964 18.2242L96.0594 18.3081C96.0803 18.371 96.1013 18.4129 96.1432 18.4549L96.2481 18.6226C96.4578 19.021 96.6255 19.4195 96.7513 19.8388ZM93.3543 20.2163C93.4592 20.2163 93.543 20.1114 93.5221 20.0066C93.3962 19.1888 92.4526 18.5387 91.2574 18.5387C90.146 18.5387 89.1185 19.1888 88.9717 20.0066C88.9507 20.1114 89.0346 20.2163 89.1395 20.2163L93.3543 20.2163ZM106.537 16.8193C107.67 17.9516 107.858 18.8742 107.858 20.5099L107.858 26.7587C107.858 26.8426 107.774 26.9265 107.67 26.9265L104.377 26.9265C104.273 26.9265 104.189 26.8426 104.189 26.7587L104.189 20.6776C104.189 20.2792 104.168 19.7969 104 19.4195C103.916 19.2517 103.811 19.1259 103.685 19.021C103.476 18.8742 103.203 18.7904 102.868 18.7904C102.239 18.7904 101.735 19.0001 101.589 19.3565C101.4 19.734 101.4 20.2582 101.4 20.6776L101.4 26.7587C101.4 26.8426 101.316 26.9265 101.232 26.9265L97.9189 26.9265C97.8141 26.9265 97.7512 26.8426 97.7512 26.7587L97.7512 16.0224C97.7512 15.9176 97.8141 15.8337 97.9189 15.8337L101.022 15.8337C101.106 15.8337 101.19 15.9176 101.19 16.0224L101.19 16.316C101.19 16.3999 101.274 16.4418 101.337 16.3999C103.832 14.6804 106.265 16.5886 106.286 16.6096C106.37 16.6725 106.453 16.7354 106.537 16.8193ZM120.767 15.8756C120.871 15.8756 120.934 15.9595 120.934 16.0434L120.934 24.7666L120.934 25.878C120.934 29.6944 118.879 31.7914 115.168 31.7914L115.063 31.7914C115.021 31.7914 114.979 31.7914 114.916 31.7914C114.077 31.7914 112.001 31.6865 109.632 29.5267C109.548 29.4428 109.548 29.317 109.653 29.2541L111.918 27.4926C112.001 27.4297 112.085 27.4507 112.148 27.5136C112.652 28.0169 113.742 28.9186 115.168 28.8347C116.09 28.7718 116.845 28.4153 117.244 27.8701C117.495 27.4926 117.579 27.0523 117.495 26.57C117.474 26.5071 117.412 26.4861 117.349 26.5071C116.468 27.0104 115.482 27.262 114.455 27.262C111.226 27.262 108.604 24.6618 108.604 21.4744C108.604 18.2871 111.226 15.6869 114.455 15.6869C115.482 15.6869 116.489 15.9595 117.37 16.4628C117.433 16.4837 117.495 16.4418 117.495 16.3789L117.495 16.0434C117.495 15.9595 117.579 15.8756 117.684 15.8756L120.767 15.8756ZM114.979 24.1376C116.468 24.1376 117.495 22.9423 117.495 21.4744C117.495 21.1599 117.453 20.8454 117.328 20.5518C116.95 19.5243 116.111 18.8323 114.979 18.8323C113.511 18.8323 112.295 20.0276 112.295 21.4744C112.295 22.9213 113.448 24.0956 114.895 24.1376L114.916 24.1376C114.937 24.1376 114.958 24.1376 114.979 24.1376ZM133.222 19.8388C133.39 20.3631 133.474 20.9083 133.474 21.4744C133.474 21.789 133.432 22.1664 133.369 22.5019C133.369 22.5858 133.285 22.6487 133.201 22.6487L125.443 22.6487C125.296 22.6487 125.212 22.7955 125.275 22.9213C125.757 23.7182 126.617 24.2214 127.561 24.2214C128.358 24.2214 129.112 23.8859 129.637 23.1939C129.679 23.152 129.742 23.1101 129.825 23.131L132.782 23.6553C132.908 23.6762 132.971 23.802 132.908 23.9069C132.845 24.0537 132.761 24.2214 132.719 24.3053L132.677 24.3892C132.614 24.4731 132.572 24.536 132.53 24.6408C132.447 24.7457 132.384 24.8295 132.321 24.9134L132.279 24.9554C132.258 24.9973 132.237 25.0183 132.216 25.0392L132.195 25.0812C132.153 25.1441 132.111 25.186 132.069 25.228L132.027 25.2699C131.964 25.3538 131.901 25.4167 131.838 25.4796L131.797 25.5215C131.734 25.5844 131.692 25.6264 131.65 25.6683L131.629 25.6893C131.587 25.7312 131.524 25.7732 131.482 25.8151L131.419 25.878L131.356 25.8151L131.398 25.878C131.314 25.9619 131.251 26.0248 131.167 26.0667L131.105 26.1296C131 26.1925 130.916 26.2555 130.811 26.3184L130.79 26.3393C130.685 26.4022 130.58 26.4652 130.454 26.5281L130.434 26.549C130.413 26.57 130.371 26.591 130.35 26.591L130.329 26.6119C130.287 26.6329 130.224 26.6539 130.182 26.6748L130.161 26.6958C130.056 26.7378 129.951 26.7797 129.846 26.8216L129.846 26.8426C129.762 26.8636 129.721 26.8845 129.658 26.9055L129.574 26.9265C129.511 26.9474 129.427 26.9894 129.364 27.0104L129.343 27.0104C129.259 27.0313 129.175 27.0523 129.091 27.0733L129.029 27.0942C128.861 27.1362 128.693 27.1781 128.525 27.1991L128.462 27.22C128.274 27.241 128.106 27.262 127.917 27.262L127.854 27.262C127.749 27.283 127.666 27.283 127.582 27.283C127.498 27.283 127.414 27.283 127.309 27.262C127.288 27.262 127.267 27.262 127.246 27.262L127.225 27.262C127.162 27.262 127.099 27.262 127.036 27.241L127.016 27.241C126.995 27.241 126.974 27.241 126.953 27.241C126.848 27.241 126.764 27.22 126.701 27.1991L126.68 27.1991L126.638 27.1991C126.575 27.1991 126.491 27.1781 126.428 27.1571L126.344 27.1362C126.282 27.1362 126.219 27.1152 126.156 27.0942L126.135 27.0942C126.114 27.0942 126.114 27.0942 126.093 27.0942C125.988 27.0523 125.904 27.0313 125.841 27.0104C125.757 26.9894 125.673 26.9684 125.59 26.9265C125.569 26.9265 125.548 26.9265 125.527 26.9055C125.464 26.8845 125.401 26.8636 125.338 26.8426L125.317 26.8216C125.296 26.8216 125.296 26.8216 125.275 26.8007C125.191 26.7797 125.107 26.7378 125.044 26.6958L125.023 26.6958C124.961 26.6748 124.877 26.6329 124.814 26.591C124.793 26.57 124.772 26.57 124.751 26.549L124.73 26.549C124.688 26.5281 124.625 26.4861 124.583 26.4652L124.499 26.4232C124.436 26.3813 124.373 26.3393 124.289 26.2764C123.598 25.8151 122.989 25.186 122.549 24.4731C122.507 24.4102 122.486 24.3682 122.444 24.3053L122.423 24.2634C122.402 24.2214 122.36 24.1585 122.339 24.0956L122.318 24.0537C122.297 24.0327 122.297 24.0327 122.297 24.0117C122.172 23.7811 122.088 23.5294 122.004 23.2778C121.941 23.152 121.92 23.0262 121.878 22.9213C121.857 22.8375 121.836 22.7326 121.815 22.6487C121.752 22.3552 121.731 22.0616 121.71 21.768C121.71 21.6632 121.71 21.5793 121.71 21.4744C121.71 21.3696 121.71 21.2648 121.71 21.1809C121.731 20.6566 121.836 20.1534 122.004 19.6501C122.046 19.4824 122.109 19.3565 122.172 19.2098C122.193 19.1259 122.234 19.063 122.276 18.9791C122.276 18.9581 122.276 18.9372 122.297 18.9162L122.318 18.8742C122.318 18.8742 122.339 18.8533 122.339 18.8323C122.36 18.8113 122.36 18.7904 122.381 18.7694L122.423 18.6855C122.465 18.6016 122.507 18.5387 122.549 18.4549C122.989 17.7419 123.598 17.1338 124.289 16.6515C124.373 16.6096 124.436 16.5676 124.499 16.5257L124.583 16.4837C124.625 16.4418 124.688 16.4208 124.73 16.3999L124.751 16.3789C124.772 16.3789 124.793 16.3579 124.814 16.3579C124.877 16.316 124.961 16.2741 125.023 16.2321C125.107 16.2111 125.191 16.1692 125.275 16.1273C125.296 16.1273 125.296 16.1273 125.317 16.1063L125.338 16.1063C125.401 16.0853 125.464 16.0644 125.527 16.0434L125.527 16.0224C125.548 16.0224 125.569 16.0224 125.59 16.0015C125.673 15.9805 125.757 15.9595 125.841 15.9176C125.925 15.8966 126.009 15.8756 126.093 15.8547C126.114 15.8547 126.114 15.8547 126.135 15.8337L126.156 15.8337C126.219 15.8127 126.282 15.8127 126.344 15.7918L126.386 15.7918C126.47 15.7708 126.596 15.7498 126.68 15.7288C126.701 15.7288 126.701 15.7288 126.701 15.7288C126.764 15.7288 126.848 15.7079 126.953 15.7079C126.974 15.7079 126.995 15.6869 127.016 15.6869L127.036 15.6869C127.099 15.6869 127.162 15.6869 127.225 15.6869L127.246 15.6869C127.267 15.6659 127.288 15.6659 127.309 15.6659C127.414 15.6659 127.498 15.6659 127.582 15.6659C127.666 15.6659 127.749 15.6659 127.854 15.6659L127.917 15.6869C128.106 15.6869 128.274 15.7079 128.441 15.7288L128.525 15.7498C128.693 15.7708 128.861 15.7918 129.029 15.8337L129.091 15.8547C129.175 15.8756 129.259 15.9176 129.343 15.9385L129.364 15.9385C129.427 15.9595 129.511 15.9805 129.574 16.0015C129.595 16.0224 129.616 16.0224 129.637 16.0434C129.721 16.0644 129.762 16.0853 129.825 16.1063L129.867 16.1063C129.951 16.1482 130.056 16.2111 130.161 16.2531L130.182 16.2531C130.224 16.295 130.287 16.316 130.329 16.337L130.308 16.4208L130.35 16.337C130.371 16.3579 130.413 16.3789 130.434 16.3999C130.538 16.4418 130.685 16.5467 130.79 16.6096C130.895 16.6725 131 16.7354 131.084 16.8193L131.105 16.8193C131.125 16.8402 131.146 16.8612 131.167 16.8612C131.251 16.9241 131.314 16.987 131.398 17.0499L131.461 17.0919C131.524 17.1548 131.566 17.1967 131.629 17.2596L131.65 17.2806C131.692 17.3225 131.734 17.3645 131.797 17.4064L131.817 17.4483C131.901 17.5322 131.964 17.5951 132.027 17.658L131.964 17.7419L132.027 17.679L132.069 17.7209C132.111 17.7629 132.153 17.8048 132.195 17.8468L132.216 17.8887C132.258 17.9516 132.321 18.0145 132.363 18.0774C132.405 18.1194 132.426 18.1823 132.468 18.2242L132.53 18.3081C132.551 18.371 132.572 18.4129 132.614 18.4549L132.719 18.6226C132.929 19.021 133.097 19.4195 133.222 19.8388ZM129.825 20.2163C129.93 20.2163 130.014 20.1114 129.993 20.0066C129.867 19.1888 128.924 18.5387 127.728 18.5387C126.617 18.5387 125.59 19.1888 125.443 20.0066C125.422 20.1114 125.506 20.2163 125.611 20.2163L129.825 20.2163ZM143.637 15.8337C143.721 15.8337 143.805 15.9176 143.805 16.0224L143.805 26.7587C143.805 26.8426 143.721 26.9265 143.637 26.9265L140.533 26.9265C140.429 26.9265 140.366 26.8426 140.366 26.7587L140.366 16.0224C140.366 15.9176 140.429 15.8337 140.533 15.8337L143.637 15.8337ZM143.637 12.3528C143.721 12.3528 143.805 12.4367 143.805 12.5205L143.805 14.7852C143.805 14.8901 143.721 14.974 143.637 14.974L140.533 14.974C140.429 14.974 140.366 14.8901 140.366 14.7852L140.366 12.5205C140.366 12.4367 140.429 12.3528 140.533 12.3528L143.637 12.3528ZM153.882 16.8193C155.014 17.9516 155.203 18.8742 155.203 20.5099L155.203 26.7587C155.203 26.8426 155.119 26.9265 155.014 26.9265L151.722 26.9265C151.617 26.9265 151.534 26.8426 151.534 26.7587L151.534 20.6776C151.534 20.2792 151.513 19.7969 151.345 19.4195C151.261 19.2517 151.156 19.1259 151.03 19.021C150.821 18.8742 150.548 18.7904 150.213 18.7904C149.583 18.7904 149.08 19.0001 148.933 19.3565C148.745 19.734 148.745 20.2582 148.745 20.6776L148.745 26.7587C148.745 26.8426 148.661 26.9265 148.577 26.9265L145.264 26.9265C145.159 26.9265 145.096 26.8426 145.096 26.7587L145.096 16.0224C145.096 15.9176 145.159 15.8337 145.264 15.8337L148.367 15.8337C148.451 15.8337 148.535 15.9176 148.535 16.0224L148.535 16.316C148.535 16.3999 148.619 16.4418 148.682 16.3999C151.177 14.6804 153.61 16.5886 153.631 16.6096C153.714 16.6725 153.798 16.7354 153.882 16.8193Z" fill="#FEFDFF"/>
<path d="M134.891 25.639C134.891 24.9886 135.049 24.5316 135.365 24.2679C135.682 24.0043 136.059 23.8725 136.499 23.8725C136.956 23.8725 137.343 24.0043 137.659 24.2679C137.993 24.5316 138.16 24.9886 138.16 25.639C138.16 26.2718 137.993 26.7288 137.659 27.01C137.343 27.2913 136.956 27.4319 136.499 27.4319C136.059 27.4319 135.682 27.2913 135.365 27.01C135.049 26.7288 134.891 26.2718 134.891 25.639Z" fill="#FEFDFF"/>
</svg>
