<svg width="29" height="24" viewBox="0 0 29 24" fill="none" xmlns="http://www.w3.org/2000/svg">
<path d="M8.41496 12.9563V14.6532H4.4046V11.2082H8.41496V12.9563Z" fill="#F6F6F6"/>
<path d="M25.176 12.7511V14.6532H21.1656V11.2082H25.176V12.5968V12.7511Z" fill="#F6F6F6"/>
<path d="M8.41496 9.51153V11.2083H4.4046V9.51153H4.97011H7.84925H8.41496Z" fill="#F6F6F6"/>
<path d="M25.176 9.51153V11.2083H21.1656V9.51153H21.7311H24.61H25.176Z" fill="#F6F6F6"/>
<path d="M21.7311 14.6532H24.6101V22.6739H21.7311V14.6532Z" fill="#F6F6F6"/>
<path d="M7.84917 19.2803V22.7252H4.97003V14.6532H7.84917V19.2803Z" fill="#F6F6F6"/>
<path d="M21.7311 3.18766H24.6101V9.51155H21.7311V3.18766Z" fill="#F6F6F6"/>
<path d="M4.97003 3.18766H7.84917V9.51155H4.97003V3.18766Z" fill="#F6F6F6"/>
<path d="M21.1656 11.2083V14.6532H21.731V22.7252H7.84918V19.2803V14.6532H8.41489V12.9563H21.1137L21.1656 9.51153V11.2083Z" fill="#FFC9D9"/>
<path d="M13.0421 11.2082V10.0774H11.9109V11.2082H13.0421ZM15.3557 11.2082V10.0774H14.2244V11.2082H15.3557ZM17.6693 11.2082V10.0774H16.5385V11.2082H17.6693ZM21.731 3.18758V9.51147H21.1656V12.9562H8.41489V11.2082V9.46054H7.84918V3.18758H9.59721H19.9828H21.731Z" fill="#FFC9D9"/>
<path d="M25.176 14.6532V12.6993C27.1809 12.0824 28.6204 10.2314 28.6204 8.02117V22.6739H24.5587V14.6532H25.176Z" fill="#FFC9D9"/>
<path d="M4.97001 14.6532V22.6739H0.908508V8.07211C0.908508 10.2314 2.39925 12.1339 4.353 12.7512V14.7046L4.97001 14.6532Z" fill="#FFC9D9"/>
<path d="M4.97013 3.18763V9.51152H4.40462V12.7511C2.39936 12.1338 0.959768 10.2832 0.959768 8.07203V3.18763C0.908627 3.18763 4.97013 3.18763 4.97013 3.18763Z" fill="#FFC9D9"/>
<path d="M28.6719 3.18763V8.07203C28.6719 10.2827 27.2324 12.1338 25.227 12.7511V12.6483V11.2597V9.51152H24.6616V3.18763H28.6719Z" fill="#FFC9D9"/>
<path d="M16.5385 10.0774H17.6693V11.2083H16.5385V10.0774Z" fill="#FD739B"/>
<path d="M14.2245 10.0774H15.3558V11.2083H14.2245V10.0774Z" fill="#FD739B"/>
<path d="M11.9109 10.0774H13.0421V11.2083H11.9109V10.0774Z" fill="#FD739B"/>
<path d="M25.1759 12.905C25.0216 12.905 24.8672 12.7511 24.8672 12.5968V9.82018H24.61C24.4557 9.82018 24.3013 9.66584 24.3013 9.5115C24.3013 9.35767 24.4557 9.20332 24.61 9.20332H25.1759C25.2783 9.20332 25.3298 9.25426 25.3812 9.30622C25.4327 9.35767 25.4841 9.46056 25.4841 9.5115V12.5968C25.4841 12.8021 25.3812 12.905 25.1759 12.905Z" fill="#FD739B"/>
<path d="M24.61 15.0128C24.4557 15.0128 24.3013 14.8585 24.3013 14.7045C24.3013 14.5503 24.4557 14.3959 24.61 14.3959H24.8672V12.7512C24.8672 12.5969 25.0216 12.442 25.1759 12.442C25.3298 12.442 25.4841 12.5969 25.4841 12.7512V14.7045C25.4841 14.8585 25.3298 15.0128 25.1759 15.0128H24.61Z" fill="#FD739B"/>
<path d="M28.6718 23.0334H24.61C24.4557 23.0334 24.3013 22.879 24.3013 22.7252C24.3013 22.5708 24.4557 22.4166 24.61 22.4166H28.3116V8.07205C28.3116 7.91771 28.466 7.76388 28.6203 7.76388C28.7747 7.76388 28.929 7.91771 28.929 8.07205V22.7252C28.9804 22.879 28.8261 23.0334 28.6718 23.0334Z" fill="#FD739B"/>
<path d="M21.7311 23.0334H7.84921C7.69502 23.0334 7.54083 22.879 7.54083 22.7252C7.54083 22.5708 7.69502 22.4166 7.84921 22.4166H21.7311C21.8854 22.4166 22.0392 22.5708 22.0392 22.7252C22.0392 22.879 21.8854 23.0334 21.7311 23.0334Z" fill="#FD739B"/>
<path d="M21.7311 15.0128H21.1657C21.0623 15.0128 21.0113 14.9618 20.9599 14.9105C20.9084 14.8585 20.857 14.7561 20.857 14.7045V9.51157C20.857 9.35774 21.0113 9.2034 21.1657 9.2034C21.3195 9.2034 21.4738 9.35774 21.4738 9.51157V14.345H21.7311C21.8854 14.345 22.0393 14.4988 22.0393 14.6532C22.0393 14.8076 21.8854 15.0128 21.7311 15.0128Z" fill="#FD739B"/>
<path d="M4.97012 23.0334H0.908615C0.754427 23.0334 0.600037 22.879 0.600037 22.7252V8.07205C0.600037 7.91771 0.754427 7.76388 0.908615 7.76388C1.06285 7.76388 1.21704 7.91771 1.21704 8.07205V22.4166H4.91857C5.07316 22.4166 5.2274 22.5708 5.2274 22.7252C5.27854 22.879 5.17586 23.0334 4.97012 23.0334Z" fill="#FD739B"/>
<path d="M19.9828 3.49626C19.8285 3.49626 19.6742 3.34192 19.6742 3.18758V0.616763H9.90576V3.18758C9.90576 3.34192 9.75137 3.49626 9.59718 3.49626C9.44294 3.49626 9.28876 3.34192 9.28876 3.18758V0.308595C9.28876 0.154254 9.44294 -8.9395e-05 9.59718 -8.9395e-05H19.9828C20.1372 -8.9395e-05 20.2915 0.154254 20.2915 0.308595V3.18758C20.2915 3.34192 20.1886 3.49626 19.9828 3.49626Z" fill="#FD739B"/>
<path d="M7.84925 23.0334H4.97011C4.81592 23.0334 4.66168 22.879 4.66168 22.7252V14.7045C4.66168 14.5503 4.81592 14.3959 4.97011 14.3959C5.1243 14.3959 5.27854 14.5503 5.27854 14.7045V22.4166H7.54088V14.7045C7.54088 14.5503 7.69506 14.3959 7.84925 14.3959C8.00349 14.3959 8.15768 14.5503 8.15768 14.7045V22.7252C8.15768 22.879 8.05499 23.0334 7.84925 23.0334Z" fill="#FD739B"/>
<path d="M7.84925 3.49626H4.97011C4.81592 3.49626 4.66168 3.34192 4.66168 3.18758C4.66168 3.03375 4.81592 2.87941 4.97011 2.87941H7.84925C8.00349 2.87941 8.15768 3.03375 8.15768 3.18758C8.15768 3.34192 8.05499 3.49626 7.84925 3.49626Z" fill="#FD739B"/>
<path d="M25.1759 13.0594C25.1239 13.0594 25.0216 13.0594 24.9701 13.0079C24.8672 12.9563 24.8158 12.8536 24.8158 12.7512V9.82024H24.5585C24.4042 9.82024 24.2504 9.6659 24.2504 9.51156C24.2504 9.35773 24.4042 9.20338 24.5585 9.20338H25.1239C25.2783 9.20338 25.4326 9.35773 25.4326 9.51156V12.2882C27.1294 11.5679 28.2607 9.92313 28.2607 8.07206V3.49634H24.5585C24.4042 3.49634 24.2504 3.34201 24.2504 3.18767C24.2504 3.03383 24.4042 2.87949 24.5585 2.87949H28.6203C28.7746 2.87949 28.929 3.03383 28.929 3.18767V8.07206C28.929 9.20339 28.5688 10.2833 27.9005 11.2083C27.2322 12.0824 26.3067 12.7512 25.2783 13.0594C25.2268 13.0594 25.2268 13.0594 25.1759 13.0594Z" fill="#FD739B"/>
<path d="M4.40461 13.0594C4.35311 13.0594 4.35311 13.0594 4.30197 13.0594C2.14248 12.3911 0.600037 10.3347 0.600037 8.07206V3.18767C0.600037 3.03383 0.754427 2.87949 0.908615 2.87949H4.97012C5.12431 2.87949 5.27855 3.03383 5.27855 3.18767V9.51156C5.27855 9.6659 5.12431 9.82024 4.97012 9.82024C4.81593 9.82024 4.66169 9.6659 4.66169 9.51156V3.49634H1.26859V8.07206C1.26859 10.026 2.60509 11.8251 4.5075 12.442C4.66169 12.4939 4.76459 12.6992 4.71304 12.8536C4.66169 12.9563 4.55885 13.0594 4.40461 13.0594Z" fill="#FD739B"/>
<path d="M7.84921 9.8201C7.69502 9.8201 7.54083 9.66576 7.54083 9.51142V3.18753C7.54083 3.0337 7.69502 2.87935 7.84921 2.87935H21.7311C21.8854 2.87935 22.0392 3.0337 22.0392 3.18753C22.0392 3.34187 21.8854 3.49621 21.7311 3.49621H8.15764V9.51142C8.15764 9.66576 8.05494 9.8201 7.84921 9.8201Z" fill="#FD739B"/>
<path d="M21.1136 13.2645H8.41487C8.26063 13.2645 8.10645 13.1107 8.10645 12.9563C8.10645 12.8021 8.26063 12.6482 8.41487 12.6482H20.8055V9.51151C20.8055 9.35768 20.9598 9.20334 21.1136 9.20334H21.731C21.8853 9.20334 22.0392 9.35768 22.0392 9.51151C22.0392 9.66585 21.8853 9.82019 21.731 9.82019H21.4738V12.9563C21.4738 13.1107 21.3194 13.2645 21.1136 13.2645Z" fill="#FD739B"/>
<path d="M22.0393 22.4166H24.3014V15.0127H22.0393V22.4166ZM24.6101 23.0334H21.7311C21.5768 23.0334 21.4224 22.879 21.4224 22.7252V14.6532C21.4224 14.4988 21.5768 14.345 21.7311 14.345H24.6101C24.7644 14.345 24.9188 14.4988 24.9188 14.6532V22.6738C24.9188 22.879 24.7644 23.0334 24.6101 23.0334Z" fill="#FD739B"/>
<path d="M22.0393 9.20325H24.3014V3.54765H22.0393V9.20325ZM24.6101 9.8201H21.7311C21.5768 9.8201 21.4224 9.66576 21.4224 9.51142V3.18753C21.4224 3.0337 21.5768 2.87935 21.7311 2.87935H24.6101C24.7644 2.87935 24.9188 3.0337 24.9188 3.18753V9.51142C24.9188 9.66576 24.7644 9.8201 24.6101 9.8201Z" fill="#FD739B"/>
<path d="M4.71297 14.345H8.10648V9.82025H4.71297V14.345ZM8.4149 15.0128H4.35304C4.1988 15.0128 4.04462 14.8585 4.04462 14.7045V9.51157C4.04462 9.35774 4.1988 9.2034 4.35304 9.2034H8.4149C8.56909 9.2034 8.72328 9.35774 8.72328 9.51157V14.7045C8.77462 14.8585 8.62064 15.0128 8.4149 15.0128Z" fill="#FD739B"/>
<path d="M8.4149 11.5679H4.35304C4.1988 11.5679 4.04462 11.414 4.04462 11.2597C4.04462 11.1054 4.1988 10.9515 4.35304 10.9515H8.4149C8.56909 10.9515 8.72328 11.1054 8.72328 11.2597C8.77462 11.414 8.62064 11.5679 8.4149 11.5679Z" fill="#FD739B"/>
<path d="M25.176 11.5679H21.1138C20.9599 11.5679 20.8056 11.414 20.8056 11.2597C20.8056 11.1054 20.9599 10.9515 21.1138 10.9515H25.176C25.3299 10.9515 25.4842 11.1054 25.4842 11.2597C25.4842 11.414 25.3813 11.5679 25.176 11.5679Z" fill="#FD739B"/>
<path d="M18.8521 19.5889H7.84921C7.69502 19.5889 7.54083 19.4348 7.54083 19.2804C7.54083 19.126 7.69502 18.9721 7.84921 18.9721H18.8001C18.9544 18.9721 19.1088 19.126 19.1088 19.2804C19.1602 19.4348 19.0059 19.5889 18.8521 19.5889Z" fill="#FD739B"/>
</svg>
