<svg width="64" height="64" viewBox="0 0 64 64" fill="none" xmlns="http://www.w3.org/2000/svg">
<path d="M15 17H51V25H15C13.9391 25 12.9217 24.5786 12.1716 23.8284C11.4214 23.0783 11 22.0609 11 21C11 19.9391 11.4214 18.9217 12.1716 18.1716C12.9217 17.4214 13.9391 17 15 17Z" fill="#C56F5E"/>
<path d="M32.6468 11.0008L11.8232 31.8243L30.1762 50.1773L50.9998 29.3537L32.6468 11.0008Z" fill="#47AD88"/>
<path d="M36.8821 15.235C36.326 15.7912 35.6657 16.2324 34.9391 16.5334C34.2124 16.8344 33.4336 16.9893 32.6471 16.9893C31.8606 16.9893 31.0818 16.8344 30.3551 16.5334C29.6285 16.2324 28.9682 15.7912 28.4121 15.235L32.6471 11L36.8821 15.235Z" fill="#339974"/>
<path d="M51 25V53H15C13.9391 53 12.9217 52.5786 12.1716 51.8284C11.4214 51.0783 11 50.0609 11 49V21C11 22.0609 11.4214 23.0783 12.1716 23.8284C12.9217 24.5786 13.9391 25 15 25H51Z" fill="#C28172"/>
<path d="M45 35H53V43H45C43.9391 43 42.9217 42.5786 42.1716 41.8284C41.4214 41.0783 41 40.0609 41 39C41 37.9391 41.4214 36.9217 42.1716 36.1716C42.9217 35.4214 43.9391 35 45 35Z" fill="#C56F5E"/>
<path d="M53 44C53.2652 44 53.5196 43.8947 53.7071 43.7071C53.8946 43.5196 54 43.2652 54 43V35C54 34.7348 53.8946 34.4805 53.7071 34.2929C53.5196 34.1054 53.2652 34 53 34H52V17C52 16.7348 51.8946 16.4805 51.7071 16.2929C51.5196 16.1054 51.2652 16 51 16H39.061L37.589 14.528L33.354 10.293C33.1665 10.1056 32.9122 10.0002 32.647 10.0002C32.3818 10.0002 32.1275 10.1056 31.94 10.293L27.705 14.528L26.233 16H15C13.6744 16.0016 12.4036 16.5289 11.4662 17.4662C10.5289 18.4036 10.0016 19.6744 10 21V49C10.0016 50.3256 10.5289 51.5965 11.4662 52.5338C12.4036 53.4711 13.6744 53.9984 15 54H51C51.2652 54 51.5196 53.8947 51.7071 53.7071C51.8946 53.5196 52 53.2652 52 53V44H53ZM52 42H45C44.2044 42 43.4413 41.684 42.8787 41.1213C42.3161 40.5587 42 39.7957 42 39C42 38.2044 42.3161 37.4413 42.8787 36.8787C43.4413 36.3161 44.2044 36 45 36H52V42ZM50 18V24H47.061L41.061 18H50ZM28.468 16.593C29.6736 17.4972 31.14 17.986 32.647 17.986C34.154 17.986 35.6204 17.4972 36.826 16.593L44.233 24H21.061L28.468 16.593ZM32.647 12.414L35.397 15.164C34.5806 15.7017 33.6245 15.9882 32.647 15.9882C31.6695 15.9882 30.7134 15.7017 29.897 15.164L32.647 12.414ZM15 18H24.233L18.282 23.951L18.332 24H15C14.2044 24 13.4413 23.684 12.8787 23.1214C12.3161 22.5587 12 21.7957 12 21C12 20.2044 12.3161 19.4413 12.8787 18.8787C13.4413 18.3161 14.2044 18 15 18ZM50 52H15C14.2044 52 13.4413 51.684 12.8787 51.1213C12.3161 50.5587 12 49.7957 12 49V24.974C12.8604 25.6358 13.9145 25.9964 15 26H50V34H45C43.6739 34 42.4021 34.5268 41.4645 35.4645C40.5268 36.4022 40 37.6739 40 39C40 40.3261 40.5268 41.5979 41.4645 42.5356C42.4021 43.4732 43.6739 44 45 44H50V52Z" fill="black"/>
<path d="M45 40C45.5523 40 46 39.5523 46 39C46 38.4477 45.5523 38 45 38C44.4477 38 44 38.4477 44 39C44 39.5523 44.4477 40 45 40Z" fill="black"/>
<path d="M48 28H44V30H48V28Z" fill="black"/>
<path d="M42 28H38V30H42V28Z" fill="black"/>
<path d="M36 28H32V30H36V28Z" fill="black"/>
<path d="M30 28H26V30H30V28Z" fill="black"/>
<path d="M24 28H20V30H24V28Z" fill="black"/>
<path d="M18 28H14V30H18V28Z" fill="black"/>
<path d="M59.4138 31L60.7068 29.707L59.2928 28.293L56.2928 31.293C56.1053 31.4805 56 31.7348 56 32C56 32.2651 56.1053 32.5194 56.2928 32.707L59.2928 35.707L60.7068 34.293L59.4138 33H61.9998V31H59.4138Z" fill="#00D26E"/>
<path d="M3.293 34.293L4.707 35.707L7.707 32.707C7.89447 32.5194 7.99979 32.2651 7.99979 32C7.99979 31.7348 7.89447 31.4805 7.707 31.293L4.707 28.293L3.293 29.707L4.586 31H2V33H4.586L3.293 34.293Z" fill="#00D26E"/>
<path d="M31.293 56.293L28.293 59.293L29.707 60.707L31 59.414V62H33V59.414L34.293 60.707L35.707 59.293L32.707 56.293C32.5194 56.1056 32.2651 56.0002 32 56.0002C31.7348 56.0002 31.4805 56.1056 31.293 56.293Z" fill="#00D26E"/>
<path d="M32 8C32.2652 7.99994 32.5195 7.89455 32.707 7.707L35.707 4.707L34.293 3.293L33 4.586V2H31V4.586L29.707 3.293L28.293 4.707L31.293 7.707C31.4805 7.89455 31.7348 7.99994 32 8Z" fill="#00D26E"/>
<path d="M54 11H60V9.00003H56.414L61.707 3.70703L60.293 2.29303L55 7.58603V4.00003H53V10C53 10.2652 53.1054 10.5196 53.2929 10.7071C53.4804 10.8947 53.7348 11 54 11Z" fill="#00D26E"/>
<path d="M3.99997 9.00003V11H9.99997C10.2652 11 10.5195 10.8947 10.7071 10.7071C10.8946 10.5196 11 10.2652 11 10V4.00003H8.99997V7.58603L3.70697 2.29303L2.29297 3.70703L7.58597 9.00003H3.99997Z" fill="#00D26E"/>
<path d="M60 55V53H54C53.7348 53 53.4804 53.1054 53.2929 53.2929C53.1054 53.4804 53 53.7348 53 54V60H55V56.414L60.293 61.707L61.707 60.292L56.414 55H60Z" fill="#00D26E"/>
<path d="M9.99997 53H3.99997V55H7.58597L2.29297 60.292L3.70697 61.707L8.99997 56.414V60H11V54C11 53.7348 10.8946 53.4804 10.7071 53.2929C10.5195 53.1054 10.2652 53 9.99997 53Z" fill="#00D26E"/>
<path d="M48 48H44V50H48V48Z" fill="black"/>
<path d="M42 48H38V50H42V48Z" fill="black"/>
<path d="M36 48H32V50H36V48Z" fill="black"/>
<path d="M30 48H26V50H30V48Z" fill="black"/>
<path d="M24 48H20V50H24V48Z" fill="black"/>
<path d="M18 48H14V50H18V48Z" fill="black"/>
</svg>
