<svg width="2000" height="1214" viewBox="0 0 2000 1214" fill="none" xmlns="http://www.w3.org/2000/svg">
<path d="M1253.2 594.6V1116.4C1253.2 1144.6 1230.1 1167.7 1201.9 1167.7H723.2C708.9 1167.7 696 1161.8 686.6 1152.3C677.5 1143 671.9 1130.4 671.9 1116.4V594.6C671.9 567.2 680.2 541.5 694.3 520.1C718.1 484.2 758.5 460.1 804.3 459.1C805.3 459.1 806.3 459.1 807.4 459.1H1117.6C1122.8 459.1 1127.9 459.4 1132.9 460C1137.4 460.5 1141.9 461.3 1146.3 462.2C1176 468.7 1202.1 484.9 1221.1 507.4C1234.5 523.3 1244.4 542.3 1249.4 563.1C1251.9 573.1 1253.2 583.7 1253.2 594.6Z" fill="#E5E8FF"/>
<path d="M1129.6 358.7H810.5V514.9H1129.6V358.7Z" fill="#E5E8FF"/>
<path d="M1140.7 424.5H794.4V435.3H1140.7V424.5Z" fill="#E5E8FF"/>
<path d="M1140.7 398.1H794.4V408.9H1140.7V398.1Z" fill="#E5E8FF"/>
<path d="M1140.7 359.3H794.4V380.7H1140.7V359.3Z" fill="#E5E8FF"/>
<path d="M1181 950.2L1030.7 1125.4C1030.7 1125.4 755.7 905.8 692.7 770L906.8 619.2C906.7 619.2 962.3 795.2 1181 950.2Z" fill="#00887D"/>
<path d="M1147.4 943.1L1021.5 1084.8C1021.5 1084.8 785.2 897.9 732.5 784.1L911.9 657.8C911.9 657.8 964.2 813.2 1147.4 943.1Z" fill="#04B5A4"/>
<path d="M898.5 915.1L906.2 908.2C903.6 903.9 902 900.1 901.3 896.6C900.6 893.1 901 889.2 902.3 885C903.6 880.8 906.2 876.8 910 872.9L917.6 879.3C913.9 883.6 911.7 887.3 911 890.6C910 895.2 910.5 899.1 912.6 902.4L937.1 880.6C935.2 876.9 933.8 872.6 933 867.7C932.4 864 932.8 860.5 934.2 857C935.6 853.5 937.8 850.4 940.9 847.7C946.4 842.8 952.4 840.8 958.9 841.6C963.3 842.2 967.7 844.7 972.3 849.4L976 846.1L979.6 850.6L975.9 853.9C979 858.7 980.6 863.4 980.4 868C980.3 873.8 978.1 879.3 973.7 884.3L966.2 877.5C968.9 874.4 970.4 871.3 970.9 868.5C971.4 865.6 970.9 862.7 969.4 859.8L947.2 879.6C949.3 884.3 950.6 887.5 951.1 889.3C952 892.6 952.2 895.7 951.9 898.6C951.6 901.5 950.7 904.2 949.3 906.9C947.9 909.6 945.9 912 943.5 914.1C938.2 918.8 932.4 921.1 926.1 920.9C919.8 920.7 914.4 918 909.9 912.9L902.1 919.8L898.5 915.1ZM966 855C963.2 852.4 960.1 851.1 956.8 851.2C953.5 851.3 950.5 852.4 947.8 854.8C945.2 857.1 943.6 859.8 943 862.9C942.4 865.9 943 869.7 944.7 874.1L966 855ZM916.3 906.9C919.1 909.5 922.3 910.9 926.1 910.8C929.9 910.8 933.4 909.3 936.7 906.4C939.5 903.9 941.2 901.2 941.8 898.3C942.4 895.4 941.7 891.3 939.8 886L916.3 906.9Z" fill="white"/>
<path d="M1154.8 931.9L978.7 1081.1C978.7 1081.1 741.8 820.8 701.1 676.8L936.4 561.8C936.3 561.7 963.4 744.3 1154.8 931.9Z" fill="#00887D"/>
<path d="M1122.7 919.6L976 1039.6C976 1039.6 772.3 817.7 738.1 697L935.2 600.6C935.3 600.6 962.4 762.4 1122.7 919.6Z" fill="#04B5A4"/>
<path d="M881.399 852.6L890.099 847.1C888.199 842.5 887.199 838.4 887.099 834.8C886.999 831.2 887.899 827.5 889.999 823.5C891.999 819.6 895.199 816 899.499 812.8L905.999 820.3C901.699 823.9 898.899 827.3 897.699 830.4C895.999 834.8 895.899 838.8 897.399 842.3L925.099 824.6C923.799 820.7 923.099 816.2 923.099 811.2C923.099 807.5 924.099 804 925.999 800.8C927.899 797.6 930.599 794.9 934.099 792.6C940.299 788.7 946.499 787.6 952.799 789.5C956.999 790.7 960.999 794 964.799 799.3L968.999 796.6L971.899 801.6L967.699 804.3C969.999 809.6 970.799 814.5 969.999 818.9C968.999 824.6 965.899 829.7 960.799 833.9L954.399 825.9C957.499 823.2 959.499 820.5 960.499 817.7C961.399 814.9 961.399 812 960.399 808.8L935.299 824.8C936.599 829.8 937.399 833.2 937.599 835C937.899 838.4 937.699 841.5 936.899 844.3C936.099 847.1 934.799 849.6 932.999 852C931.199 854.4 928.899 856.5 926.099 858.2C920.099 862 913.999 863.4 907.799 862.2C901.599 861 896.699 857.5 892.999 851.7L884.199 857.3L881.399 852.6ZM957.599 804C955.199 801 952.399 799.3 949.099 798.7C945.799 798.1 942.699 798.9 939.699 800.8C936.699 802.7 934.699 805.1 933.599 808C932.499 810.9 932.499 814.7 933.499 819.3L957.599 804ZM900.299 847.4C902.599 850.5 905.599 852.3 909.399 852.8C913.199 853.3 916.899 852.5 920.599 850.1C923.799 848.1 925.899 845.7 926.899 842.9C927.899 840.1 927.899 836 926.799 830.4L900.299 847.4Z" fill="white"/>
<path d="M1132.1 969.4L924.2 1069.7C924.2 1069.7 760.1 758.4 756.8 608.7L1013.4 556.3C1013.3 556.3 993.8 739.8 1132.1 969.4Z" fill="#00887D"/>
<path d="M1104.1 949.4L932 1028.8C932 1028.8 790.4 762.9 787.6 637.5L1002.6 593.6C1002.6 593.7 988.3 757.1 1104.1 949.4Z" fill="#04B5A4"/>
<path d="M887.3 824.1L897.1 820.9C896.4 816 896.5 811.8 897.3 808.3C898.1 804.8 899.9 801.4 902.9 798.1C905.8 794.8 909.8 792.1 914.8 790.1L919.2 799C914.1 801.5 910.6 804 908.6 806.7C905.8 810.5 904.7 814.3 905.4 818.2L936.6 808C936.3 803.9 936.8 799.4 938.1 794.5C939 790.9 940.8 787.8 943.5 785.2C946.1 782.6 949.4 780.6 953.4 779.3C960.4 777 966.7 777.6 972.3 780.9C976.1 783.1 979.1 787.3 981.5 793.4L986.2 791.9L987.7 797.5L983 799C983.9 804.7 983.4 809.6 981.5 813.7C979.1 819 974.8 823.1 968.9 825.9L964.7 816.6C968.4 814.8 971 812.7 972.6 810.2C974.2 807.8 974.9 804.9 974.7 801.6L946.4 810.8C946.5 816 946.3 819.4 946.1 821.2C945.6 824.6 944.6 827.5 943.1 830C941.7 832.5 939.8 834.7 937.4 836.5C935 838.3 932.3 839.8 929.2 840.8C922.4 843 916.2 842.8 910.5 840.1C904.8 837.4 900.9 832.8 898.8 826.3L888.9 829.5L887.3 824.1ZM973.2 796.1C971.6 792.6 969.3 790.2 966.3 788.9C963.3 787.6 960 787.5 956.7 788.6C953.4 789.7 950.8 791.5 949 794C947.2 796.5 946.3 800.2 946.1 804.9L973.2 796.1ZM906.9 823.8C908.4 827.3 910.8 829.8 914.3 831.3C917.8 832.8 921.6 832.8 925.8 831.5C929.4 830.3 932 828.6 933.7 826.2C935.4 823.8 936.4 819.8 936.8 814.1L906.9 823.8Z" fill="white"/>
<path d="M1153.8 976.1L924.6 1003C924.6 1003 871.2 655.1 917 512.6L1176.6 546.9C1176.6 546.9 1098.2 713.9 1153.8 976.1Z" fill="#00887D"/>
<path d="M1133.9 948.1L945.3 966.9C945.3 966.9 898.3 669.3 936.6 549.9L1154.1 578.6C1154.2 578.7 1087.3 728.5 1133.9 948.1Z" fill="#04B5A4"/>
<path d="M1021.6 826.8C1055.84 826.8 1083.6 798.773 1083.6 764.2C1083.6 729.627 1055.84 701.6 1021.6 701.6C987.358 701.6 959.6 729.627 959.6 764.2C959.6 798.773 987.358 826.8 1021.6 826.8Z" fill="#00887D"/>
<path d="M969.8 760.1L980.1 760.3C981.1 755.4 982.5 751.5 984.4 748.4C986.3 745.4 989.1 742.8 993 740.6C996.9 738.4 1001.5 737.2 1006.9 737L1008.2 746.9C1002.6 747.6 998.4 748.8 995.7 750.7C991.8 753.4 989.6 756.7 988.9 760.5L1021.7 761.1C1022.8 757.1 1024.7 753 1027.5 748.8C1029.6 745.7 1032.3 743.4 1035.6 741.7C1039 740.1 1042.7 739.3 1046.8 739.4C1054.1 739.5 1059.9 742.1 1064.1 747.1C1066.9 750.5 1068.5 755.4 1068.7 761.9L1073.6 762L1073.2 767.8L1068.3 767.7C1067.3 773.4 1065.3 777.9 1062.1 781.1C1058.1 785.3 1052.7 787.8 1046.1 788.5L1045.2 778.4C1049.3 777.9 1052.5 776.7 1054.8 775C1057.1 773.2 1058.7 770.7 1059.6 767.5L1029.9 767C1028.3 771.9 1027 775.2 1026.2 776.7C1024.6 779.7 1022.7 782.2 1020.5 784.1C1018.3 786 1015.8 787.4 1013 788.4C1010.1 789.4 1007.1 789.8 1003.8 789.8C996.7 789.7 990.8 787.4 986.4 783C981.9 778.6 979.8 773 979.9 766.1L969.5 765.9L969.8 760.1ZM1060.1 761.8C1059.8 758 1058.4 755 1055.9 752.7C1053.5 750.5 1050.5 749.3 1046.9 749.2C1043.4 749.1 1040.4 750 1037.9 751.8C1035.4 753.6 1033.3 756.8 1031.6 761.2L1060.1 761.8ZM988.4 766.3C988.6 770.1 990.2 773.3 993 775.8C995.8 778.3 999.4 779.6 1003.8 779.7C1007.5 779.8 1010.6 778.9 1013 777.2C1015.4 775.5 1017.7 772 1019.8 766.8L988.4 766.3Z" fill="white"/>
<path d="M1011 933.6H947.4C947.4 932.2 981.4 373.2 938.2 314.4C891.1 250.2 889.2 235.5 883.1 213.8C882.5 211.6 881.1 205.8 880.5 203.5L895.9 197.5C896.6 200 898.7 206.9 899.8 209.9C907.5 230.5 913.6 245.8 960.3 296C1017.3 357.2 1011.1 927.3 1011 933.6Z" fill="#89B640"/>
<path d="M981.6 459.1L972 394C975.5 327.6 1026.5 308.6 1028.7 307.9L1038.4 335L1033.6 321.4L1038.6 334.9C1037 335.5 1005.6 318.2 981.6 459.1Z" fill="#89B640"/>
<path d="M1294.1 291.6C1294.1 291.6 1268 204.9 1199.6 201.6C1087.7 196.2 1055.7 251.3 1007.5 337.3C1007.5 337.3 1045.1 349.8 1112.3 345.2C1174.7 340.9 1264.3 316.6 1294.1 291.6Z" fill="#89B640"/>
<path d="M1150.8 87.5999C1150.8 87.5999 1103.1 10.7 1036.2 25.2C926.7 49 910.1 110.5 885.9 206.1C885.9 206.1 925.4 208.4 989.2 186.5C1048.3 166.2 1128.5 119.6 1150.8 87.5999Z" fill="#89B640"/>
<path d="M707.9 50.2C707.9 50.2 816.2 51.3999 859 107.8C901.8 164.2 891 207.7 891 207.7C891 207.7 814.9 226.1 777.5 191.2C714.8 132.8 713.1 66.8 707.9 50.2Z" fill="#89B640"/>
<path d="M879.801 194.7C834.601 123.8 724.401 65.4 723.301 64.9L724.201 63.1C725.301 63.7 836.001 122.2 881.501 193.6L879.801 194.7Z" fill="#52672E"/>
<path d="M896.7 194.7L895 193.6C895.3 193.2 921.7 154.2 964 121.5C988.9 102.3 1014.3 88.9 1039.6 81.8C1071.2 72.9 1102.7 73.8 1133.2 84.6L1132.5 86.5C1064.5 62.5 1004 93.1 965.3 123.1C923.3 155.6 897 194.4 896.7 194.7Z" fill="#52672E"/>
<path d="M1034.1 322.2L1032.8 320.7C1033.1 320.4 1065.2 294 1111.2 276.3C1138.2 265.9 1164.7 260.5 1189.9 260.2C1221.4 259.9 1251 267.7 1277.9 283.4L1276.9 285.1C1216.8 250 1154.1 261.9 1112 278.1C1066.3 295.7 1034.5 322 1034.1 322.2Z" fill="#52672E"/>
<path d="M1032.6 837.8C1027.7 837.8 1023.7 841.9 1023.7 847V860.6C1023.7 865.6 1027.7 869.8 1032.6 869.8H1042.2V837.9H1032.6V837.8Z" fill="#FBCB35"/>
<path d="M1104 837.8H1094.3V869.7H1104V837.8Z" fill="#FBCB35"/>
<path d="M1068.7 837.8H1052.8V869.7H1068.7V837.8Z" fill="#FBCB35"/>
<path d="M1174 837.8H1111.8V869.7H1174V837.8Z" fill="#FBCB35"/>
<path d="M1191 837.8H1181.8V869.7H1191C1195.9 869.7 1199.9 865.6 1199.9 860.5V846.9C1200 841.9 1195.9 837.8 1191 837.8Z" fill="#FBCB35"/>
<path d="M1052.8 837.8H1042.1V869.7H1052.8V837.8Z" fill="#FFD969"/>
<path d="M1094.3 837.8H1068.7V869.7H1094.3V837.8Z" fill="#FFD969"/>
<path d="M1111.8 837.8H1104V869.7H1111.8V837.8Z" fill="#FFD969"/>
<path d="M1181.8 837.8H1174V869.7H1181.8V837.8Z" fill="#FFD969"/>
<path d="M1013.1 869.7C1008.2 869.7 1004.2 873.8 1004.2 878.9V892.5C1004.2 897.5 1008.2 901.7 1013.1 901.7H1022.7V869.8H1013.1V869.7Z" fill="#FBCB35"/>
<path d="M1084.6 869.7H1074.9V901.6H1084.6V869.7Z" fill="#FBCB35"/>
<path d="M1049.3 869.7H1033.4V901.6H1049.3V869.7Z" fill="#FBCB35"/>
<path d="M1154.6 869.7H1092.4V901.6H1154.6V869.7Z" fill="#FBCB35"/>
<path d="M1171.6 869.7H1162.4V901.6H1171.6C1176.5 901.6 1180.5 897.5 1180.5 892.4V878.8C1180.5 873.9 1176.5 869.7 1171.6 869.7Z" fill="#FBCB35"/>
<path d="M1033.4 869.7H1022.7V901.6H1033.4V869.7Z" fill="#FFD969"/>
<path d="M1074.9 869.7H1049.3V901.6H1074.9V869.7Z" fill="#FFD969"/>
<path d="M1092.4 869.7H1084.6V901.6H1092.4V869.7Z" fill="#FFD969"/>
<path d="M1162.4 869.7H1154.6V901.6H1162.4V869.7Z" fill="#FFD969"/>
<path d="M1032.6 901.7C1027.7 901.7 1023.7 905.8 1023.7 910.9V924.5C1023.7 929.5 1027.7 933.7 1032.6 933.7H1042.2V901.8H1032.6V901.7Z" fill="#FBCB35"/>
<path d="M1104 901.7H1094.3V933.6H1104V901.7Z" fill="#FBCB35"/>
<path d="M1068.7 901.7H1052.8V933.6H1068.7V901.7Z" fill="#FBCB35"/>
<path d="M1174 901.7H1111.8V933.6H1174V901.7Z" fill="#FBCB35"/>
<path d="M1191 901.7H1181.8V933.6H1191C1195.9 933.6 1199.9 929.5 1199.9 924.4V910.8C1200 905.8 1195.9 901.7 1191 901.7Z" fill="#FBCB35"/>
<path d="M1052.8 901.7H1042.1V933.6H1052.8V901.7Z" fill="#FFD969"/>
<path d="M1094.3 901.7H1068.7V933.6H1094.3V901.7Z" fill="#FFD969"/>
<path d="M1111.8 901.7H1104V933.6H1111.8V901.7Z" fill="#FFD969"/>
<path d="M1181.8 901.7H1174V933.6H1181.8V901.7Z" fill="#FFD969"/>
<path d="M1018 933.6C1013.1 933.6 1009.1 937.7 1009.1 942.8V956.4C1009.1 961.4 1013.1 965.6 1018 965.6H1027.6V933.7H1018V933.6Z" fill="#FBCB35"/>
<path d="M1089.4 933.6H1079.7V965.5H1089.4V933.6Z" fill="#FBCB35"/>
<path d="M1054.2 933.6H1038.3V965.5H1054.2V933.6Z" fill="#FBCB35"/>
<path d="M1159.4 933.6H1097.2V965.5H1159.4V933.6Z" fill="#FBCB35"/>
<path d="M1176.5 933.6H1167.3V965.5H1176.5C1181.4 965.5 1185.4 961.4 1185.4 956.3V942.7C1185.4 937.7 1181.4 933.6 1176.5 933.6Z" fill="#FBCB35"/>
<path d="M1038.3 933.6H1027.6V965.5H1038.3V933.6Z" fill="#FFD969"/>
<path d="M1079.7 933.6H1054.1V965.5H1079.7V933.6Z" fill="#FFD969"/>
<path d="M1097.3 933.6H1089.5V965.5H1097.3V933.6Z" fill="#FFD969"/>
<path d="M1167.3 933.6H1159.5V965.5H1167.3V933.6Z" fill="#FFD969"/>
<path d="M1032.6 965.6C1027.7 965.6 1023.7 969.7 1023.7 974.8V988.4C1023.7 993.4 1027.7 997.6 1032.6 997.6H1042.2V965.7H1032.6V965.6Z" fill="#FBCB35"/>
<path d="M1104 965.6H1094.3V997.5H1104V965.6Z" fill="#FBCB35"/>
<path d="M1068.7 965.6H1052.8V997.5H1068.7V965.6Z" fill="#FBCB35"/>
<path d="M1174 965.6H1111.8V997.5H1174V965.6Z" fill="#FBCB35"/>
<path d="M1191 965.6H1181.8V997.5H1191C1195.9 997.5 1199.9 993.4 1199.9 988.3V974.7C1200 969.7 1195.9 965.6 1191 965.6Z" fill="#FBCB35"/>
<path d="M1052.8 965.6H1042.1V997.5H1052.8V965.6Z" fill="#FFD969"/>
<path d="M1094.3 965.6H1068.7V997.5H1094.3V965.6Z" fill="#FFD969"/>
<path d="M1111.8 965.6H1104V997.5H1111.8V965.6Z" fill="#FFD969"/>
<path d="M1181.8 965.6H1174V997.5H1181.8V965.6Z" fill="#FFD969"/>
<path d="M1021.9 997.5C1017 997.5 1013 1001.6 1013 1006.7V1020.3C1013 1025.3 1017 1029.5 1021.9 1029.5H1031.5V997.6H1021.9V997.5Z" fill="#FBCB35"/>
<path d="M1093.3 997.5H1083.6V1029.4H1093.3V997.5Z" fill="#FBCB35"/>
<path d="M1058 997.5H1042.1V1029.4H1058V997.5Z" fill="#FBCB35"/>
<path d="M1163.3 997.5H1101.1V1029.4H1163.3V997.5Z" fill="#FBCB35"/>
<path d="M1180.4 997.5H1171.2V1029.4H1180.4C1185.3 1029.4 1189.3 1025.3 1189.3 1020.2V1006.6C1189.3 1001.6 1185.3 997.5 1180.4 997.5Z" fill="#FBCB35"/>
<path d="M1042.2 997.5H1031.5V1029.4H1042.2V997.5Z" fill="#FFD969"/>
<path d="M1083.6 997.5H1058V1029.4H1083.6V997.5Z" fill="#FFD969"/>
<path d="M1101.1 997.5H1093.3V1029.4H1101.1V997.5Z" fill="#FFD969"/>
<path d="M1171.1 997.5H1163.3V1029.4H1171.1V997.5Z" fill="#FFD969"/>
<path d="M1040.4 1029.4C1035.5 1029.4 1031.5 1033.5 1031.5 1038.6V1052.2C1031.5 1057.2 1035.5 1061.4 1040.4 1061.4H1050V1029.5H1040.4V1029.4Z" fill="#FBCB35"/>
<path d="M1111.8 1029.4H1102.1V1061.3H1111.8V1029.4Z" fill="#FBCB35"/>
<path d="M1076.5 1029.4H1060.6V1061.3H1076.5V1029.4Z" fill="#FBCB35"/>
<path d="M1181.8 1029.4H1119.6V1061.3H1181.8V1029.4Z" fill="#FBCB35"/>
<path d="M1198.8 1029.4H1189.6V1061.3H1198.8C1203.7 1061.3 1207.7 1057.2 1207.7 1052.1V1038.5C1207.7 1033.6 1203.7 1029.4 1198.8 1029.4Z" fill="#FBCB35"/>
<path d="M1060.6 1029.4H1049.9V1061.3H1060.6V1029.4Z" fill="#FFD969"/>
<path d="M1102.1 1029.4H1076.5V1061.3H1102.1V1029.4Z" fill="#FFD969"/>
<path d="M1119.6 1029.4H1111.8V1061.3H1119.6V1029.4Z" fill="#FFD969"/>
<path d="M1189.6 1029.4H1181.8V1061.3H1189.6V1029.4Z" fill="#FFD969"/>
<path d="M1025.8 1061.4C1020.9 1061.4 1016.9 1065.5 1016.9 1070.6V1084.2C1016.9 1089.2 1020.9 1093.4 1025.8 1093.4H1035.4V1061.5H1025.8V1061.4Z" fill="#FBCB35"/>
<path d="M1097.2 1061.4H1087.5V1093.3H1097.2V1061.4Z" fill="#FBCB35"/>
<path d="M1061.9 1061.4H1046V1093.3H1061.9V1061.4Z" fill="#FBCB35"/>
<path d="M1167.2 1061.4H1105V1093.3H1167.2V1061.4Z" fill="#FBCB35"/>
<path d="M1184.2 1061.4H1175V1093.3H1184.2C1189.1 1093.3 1193.1 1089.2 1193.1 1084.1V1070.5C1193.2 1065.5 1189.1 1061.4 1184.2 1061.4Z" fill="#FBCB35"/>
<path d="M1046 1061.4H1035.3V1093.3H1046V1061.4Z" fill="#FFD969"/>
<path d="M1087.5 1061.4H1061.9V1093.3H1087.5V1061.4Z" fill="#FFD969"/>
<path d="M1105 1061.4H1097.2V1093.3H1105V1061.4Z" fill="#FFD969"/>
<path d="M1175 1061.4H1167.2V1093.3H1175V1061.4Z" fill="#FFD969"/>
<path d="M1026.8 1093.3C1021.9 1093.3 1017.9 1097.4 1017.9 1102.5V1116.1C1017.9 1121.1 1021.9 1125.3 1026.8 1125.3H1036.4V1093.4H1026.8V1093.3Z" fill="#FBCB35"/>
<path d="M1098.2 1093.3H1088.5V1125.2H1098.2V1093.3Z" fill="#FBCB35"/>
<path d="M1062.9 1093.3H1047V1125.2H1062.9V1093.3Z" fill="#FBCB35"/>
<path d="M1168.2 1093.3H1106V1125.2H1168.2V1093.3Z" fill="#FBCB35"/>
<path d="M1185.2 1093.3H1176V1125.2H1185.2C1190.1 1125.2 1194.1 1121.1 1194.1 1116V1102.4C1194.1 1097.5 1190.1 1093.3 1185.2 1093.3Z" fill="#FBCB35"/>
<path d="M1047 1093.3H1036.3V1125.2H1047V1093.3Z" fill="#FFD969"/>
<path d="M1088.5 1093.3H1062.9V1125.2H1088.5V1093.3Z" fill="#FFD969"/>
<path d="M1106 1093.3H1098.2V1125.2H1106V1093.3Z" fill="#FFD969"/>
<path d="M1176 1093.3H1168.2V1125.2H1176V1093.3Z" fill="#FFD969"/>
<path d="M1128.3 838.3H1036.4C1036.1 838.3 1035.9 838.1 1035.9 837.8C1035.9 837.5 1036.1 837.3 1036.4 837.3H1128.3C1128.6 837.3 1128.8 837.5 1128.8 837.8C1128.8 838.1 1128.6 838.3 1128.3 838.3Z" fill="#F05A2A"/>
<path d="M1125.7 870.2H1033.8C1033.5 870.2 1033.3 870 1033.3 869.7C1033.3 869.4 1033.5 869.2 1033.8 869.2H1125.7C1126 869.2 1126.2 869.4 1126.2 869.7C1126.2 870 1125.9 870.2 1125.7 870.2Z" fill="#F05A2A"/>
<path d="M1122.4 902.2H1030.5C1030.2 902.2 1030 902 1030 901.7C1030 901.4 1030.2 901.2 1030.5 901.2H1122.4C1122.7 901.2 1122.9 901.4 1122.9 901.7C1122.9 902 1122.7 902.2 1122.4 902.2Z" fill="#F05A2A"/>
<path d="M1125.7 934.1H1033.8C1033.5 934.1 1033.3 933.9 1033.3 933.6C1033.3 933.3 1033.5 933.1 1033.8 933.1H1125.7C1126 933.1 1126.2 933.3 1126.2 933.6C1126.2 933.9 1125.9 934.1 1125.7 934.1Z" fill="#F05A2A"/>
<path d="M1122 998H1030.1C1029.8 998 1029.6 997.8 1029.6 997.5C1029.6 997.2 1029.8 997 1030.1 997H1122C1122.3 997 1122.5 997.2 1122.5 997.5C1122.5 997.8 1122.2 998 1122 998Z" fill="#F05A2A"/>
<path d="M1122.4 966.1H1030.5C1030.2 966.1 1030 965.9 1030 965.6C1030 965.3 1030.2 965.1 1030.5 965.1H1122.4C1122.7 965.1 1122.9 965.3 1122.9 965.6C1122.9 965.9 1122.7 966.1 1122.4 966.1Z" fill="#F05A2A"/>
<path d="M1131.3 1029.9H1039.4C1039.1 1029.9 1038.9 1029.7 1038.9 1029.4C1038.9 1029.1 1039.1 1028.9 1039.4 1028.9H1131.3C1131.6 1028.9 1131.8 1029.1 1131.8 1029.4C1131.8 1029.7 1131.6 1029.9 1131.3 1029.9Z" fill="#F05A2A"/>
<path d="M1129.6 1061.9H1037.7C1037.4 1061.9 1037.2 1061.7 1037.2 1061.4C1037.2 1061.1 1037.4 1060.9 1037.7 1060.9H1129.6C1129.9 1060.9 1130.1 1061.1 1130.1 1061.4C1130.1 1061.7 1129.8 1061.9 1129.6 1061.9Z" fill="#F05A2A"/>
<path d="M1114.5 1093.8H1022.6C1022.3 1093.8 1022.1 1093.6 1022.1 1093.3C1022.1 1093 1022.3 1092.8 1022.6 1092.8H1114.5C1114.8 1092.8 1115 1093 1115 1093.3C1115 1093.6 1114.8 1093.8 1114.5 1093.8Z" fill="#F05A2A"/>
<path d="M896.099 901.7C891.199 901.7 887.199 905.8 887.199 910.9V924.5C887.199 929.5 891.199 933.7 896.099 933.7H905.699V901.8H896.099V901.7Z" fill="#FBCB35"/>
<path d="M967.499 901.7H957.799V933.6H967.499V901.7Z" fill="#FBCB35"/>
<path d="M932.199 901.7H916.299V933.6H932.199V901.7Z" fill="#FBCB35"/>
<path d="M1037.5 901.7H975.299V933.6H1037.5V901.7Z" fill="#FBCB35"/>
<path d="M1054.5 901.7H1045.3V933.6H1054.5C1059.4 933.6 1063.4 929.5 1063.4 924.4V910.8C1063.4 905.8 1059.4 901.7 1054.5 901.7Z" fill="#FBCB35"/>
<path d="M916.3 901.7H905.6V933.6H916.3V901.7Z" fill="#FFD969"/>
<path d="M957.799 901.7H932.199V933.6H957.799V901.7Z" fill="#FFD969"/>
<path d="M975.299 901.7H967.499V933.6H975.299V901.7Z" fill="#FFD969"/>
<path d="M1045.3 901.7H1037.5V933.6H1045.3V901.7Z" fill="#FFD969"/>
<path d="M888.299 869.7C883.399 869.7 879.399 873.8 879.399 878.9V892.5C879.399 897.5 883.399 901.7 888.299 901.7H897.899V869.8H888.299V869.7Z" fill="#FBCB35"/>
<path d="M959.699 869.7H949.999V901.6H959.699V869.7Z" fill="#FBCB35"/>
<path d="M924.399 869.7H908.499V901.6H924.399V869.7Z" fill="#FBCB35"/>
<path d="M1029.7 869.7H967.499V901.6H1029.7V869.7Z" fill="#FBCB35"/>
<path d="M1046.8 869.7H1037.6V901.6H1046.8C1051.7 901.6 1055.7 897.5 1055.7 892.4V878.8C1055.7 873.9 1051.7 869.7 1046.8 869.7Z" fill="#FBCB35"/>
<path d="M908.5 869.7H897.8V901.6H908.5V869.7Z" fill="#FFD969"/>
<path d="M949.999 869.7H924.399V901.6H949.999V869.7Z" fill="#FFD969"/>
<path d="M967.499 869.7H959.699V901.6H967.499V869.7Z" fill="#FFD969"/>
<path d="M1037.5 869.7H1029.7V901.6H1037.5V869.7Z" fill="#FFD969"/>
<path d="M881.5 933.6C876.6 933.6 872.6 937.7 872.6 942.8V956.4C872.6 961.4 876.6 965.6 881.5 965.6H891.1V933.7H881.5V933.6Z" fill="#FBCB35"/>
<path d="M952.899 933.6H943.199V965.5H952.899V933.6Z" fill="#FBCB35"/>
<path d="M917.599 933.6H901.699V965.5H917.599V933.6Z" fill="#FBCB35"/>
<path d="M1022.9 933.6H960.699V965.5H1022.9V933.6Z" fill="#FBCB35"/>
<path d="M1039.9 933.6H1030.7V965.5H1039.9C1044.8 965.5 1048.8 961.4 1048.8 956.3V942.7C1048.9 937.7 1044.8 933.6 1039.9 933.6Z" fill="#FBCB35"/>
<path d="M901.7 933.6H891V965.5H901.7V933.6Z" fill="#FFD969"/>
<path d="M943.2 933.6H917.6V965.5H943.2V933.6Z" fill="#FFD969"/>
<path d="M960.699 933.6H952.899V965.5H960.699V933.6Z" fill="#FFD969"/>
<path d="M1030.7 933.6H1022.9V965.5H1030.7V933.6Z" fill="#FFD969"/>
<path d="M896.099 965.6C891.199 965.6 887.199 969.7 887.199 974.8V988.4C887.199 993.4 891.199 997.6 896.099 997.6H905.699V965.7H896.099V965.6Z" fill="#FBCB35"/>
<path d="M967.499 965.6H957.799V997.5H967.499V965.6Z" fill="#FBCB35"/>
<path d="M932.199 965.6H916.299V997.5H932.199V965.6Z" fill="#FBCB35"/>
<path d="M1037.5 965.6H975.299V997.5H1037.5V965.6Z" fill="#FBCB35"/>
<path d="M1054.5 965.6H1045.3V997.5H1054.5C1059.4 997.5 1063.4 993.4 1063.4 988.3V974.7C1063.4 969.7 1059.4 965.6 1054.5 965.6Z" fill="#FBCB35"/>
<path d="M916.3 965.6H905.6V997.5H916.3V965.6Z" fill="#FFD969"/>
<path d="M957.799 965.6H932.199V997.5H957.799V965.6Z" fill="#FFD969"/>
<path d="M975.299 965.6H967.499V997.5H975.299V965.6Z" fill="#FFD969"/>
<path d="M1045.3 965.6H1037.5V997.5H1045.3V965.6Z" fill="#FFD969"/>
<path d="M885.4 997.5C880.5 997.5 876.5 1001.6 876.5 1006.7V1020.3C876.5 1025.3 880.5 1029.5 885.4 1029.5H895V997.6H885.4V997.5Z" fill="#FBCB35"/>
<path d="M956.8 997.5H947.1V1029.4H956.8V997.5Z" fill="#FBCB35"/>
<path d="M921.5 997.5H905.6V1029.4H921.5V997.5Z" fill="#FBCB35"/>
<path d="M1026.8 997.5H964.6V1029.4H1026.8V997.5Z" fill="#FBCB35"/>
<path d="M1043.8 997.5H1034.6V1029.4H1043.8C1048.7 1029.4 1052.7 1025.3 1052.7 1020.2V1006.6C1052.7 1001.6 1048.7 997.5 1043.8 997.5Z" fill="#FBCB35"/>
<path d="M905.6 997.5H894.9V1029.4H905.6V997.5Z" fill="#FFD969"/>
<path d="M947.1 997.5H921.5V1029.4H947.1V997.5Z" fill="#FFD969"/>
<path d="M964.6 997.5H956.8V1029.4H964.6V997.5Z" fill="#FFD969"/>
<path d="M1034.6 997.5H1026.8V1029.4H1034.6V997.5Z" fill="#FFD969"/>
<path d="M903.799 1029.4C898.899 1029.4 894.899 1033.5 894.899 1038.6V1052.2C894.899 1057.2 898.899 1061.4 903.799 1061.4H913.399V1029.5H903.799V1029.4Z" fill="#FBCB35"/>
<path d="M975.3 1029.4H965.6V1061.3H975.3V1029.4Z" fill="#FBCB35"/>
<path d="M940 1029.4H924.1V1061.3H940V1029.4Z" fill="#FBCB35"/>
<path d="M1045.3 1029.4H983.1V1061.3H1045.3V1029.4Z" fill="#FBCB35"/>
<path d="M1062.3 1029.4H1053.1V1061.3H1062.3C1067.2 1061.3 1071.2 1057.2 1071.2 1052.1V1038.5C1071.2 1033.6 1067.2 1029.4 1062.3 1029.4Z" fill="#FBCB35"/>
<path d="M924.099 1029.4H913.399V1061.3H924.099V1029.4Z" fill="#FFD969"/>
<path d="M965.599 1029.4H939.999V1061.3H965.599V1029.4Z" fill="#FFD969"/>
<path d="M983.1 1029.4H975.3V1061.3H983.1V1029.4Z" fill="#FFD969"/>
<path d="M1053.1 1029.4H1045.3V1061.3H1053.1V1029.4Z" fill="#FFD969"/>
<path d="M889.299 1061.4C884.399 1061.4 880.399 1065.5 880.399 1070.6V1084.2C880.399 1089.2 884.399 1093.4 889.299 1093.4H898.899V1061.5H889.299V1061.4Z" fill="#FBCB35"/>
<path d="M960.699 1061.4H950.999V1093.3H960.699V1061.4Z" fill="#FBCB35"/>
<path d="M925.399 1061.4H909.499V1093.3H925.399V1061.4Z" fill="#FBCB35"/>
<path d="M1030.7 1061.4H968.499V1093.3H1030.7V1061.4Z" fill="#FBCB35"/>
<path d="M1047.7 1061.4H1038.5V1093.3H1047.7C1052.6 1093.3 1056.6 1089.2 1056.6 1084.1V1070.5C1056.6 1065.5 1052.6 1061.4 1047.7 1061.4Z" fill="#FBCB35"/>
<path d="M909.5 1061.4H898.8V1093.3H909.5V1061.4Z" fill="#FFD969"/>
<path d="M950.999 1061.4H925.399V1093.3H950.999V1061.4Z" fill="#FFD969"/>
<path d="M968.499 1061.4H960.699V1093.3H968.499V1061.4Z" fill="#FFD969"/>
<path d="M1038.5 1061.4H1030.7V1093.3H1038.5V1061.4Z" fill="#FFD969"/>
<path d="M890.2 1093.3C885.3 1093.3 881.3 1097.4 881.3 1102.5V1116.1C881.3 1121.1 885.3 1125.3 890.2 1125.3H899.8V1093.4H890.2V1093.3Z" fill="#FBCB35"/>
<path d="M961.7 1093.3H952V1125.2H961.7V1093.3Z" fill="#FBCB35"/>
<path d="M926.4 1093.3H910.5V1125.2H926.4V1093.3Z" fill="#FBCB35"/>
<path d="M1031.7 1093.3H969.5V1125.2H1031.7V1093.3Z" fill="#FBCB35"/>
<path d="M1048.7 1093.3H1039.5V1125.2H1048.7C1053.6 1125.2 1057.6 1121.1 1057.6 1116V1102.4C1057.6 1097.5 1053.6 1093.3 1048.7 1093.3Z" fill="#FBCB35"/>
<path d="M910.5 1093.3H899.8V1125.2H910.5V1093.3Z" fill="#FFD969"/>
<path d="M951.999 1093.3H926.399V1125.2H951.999V1093.3Z" fill="#FFD969"/>
<path d="M969.5 1093.3H961.7V1125.2H969.5V1093.3Z" fill="#FFD969"/>
<path d="M1039.5 1093.3H1031.7V1125.2H1039.5V1093.3Z" fill="#FFD969"/>
<path d="M985.9 902.2H894C893.7 902.2 893.5 902 893.5 901.7C893.5 901.4 893.7 901.2 894 901.2H985.9C986.2 901.2 986.4 901.4 986.4 901.7C986.4 902 986.2 902.2 985.9 902.2Z" fill="#F05A2A"/>
<path d="M989.2 934.1H897.3C897 934.1 896.8 933.9 896.8 933.6C896.8 933.3 897 933.1 897.3 933.1H989.2C989.5 933.1 989.7 933.3 989.7 933.6C989.7 933.9 989.4 934.1 989.2 934.1Z" fill="#F05A2A"/>
<path d="M985.4 998H893.5C893.2 998 893 997.8 893 997.5C893 997.2 893.2 997 893.5 997H985.4C985.7 997 985.9 997.2 985.9 997.5C985.9 997.8 985.7 998 985.4 998Z" fill="#F05A2A"/>
<path d="M985.9 966.1H894C893.7 966.1 893.5 965.9 893.5 965.6C893.5 965.3 893.7 965.1 894 965.1H985.9C986.2 965.1 986.4 965.3 986.4 965.6C986.4 965.9 986.2 966.1 985.9 966.1Z" fill="#F05A2A"/>
<path d="M994.8 1029.9H903C902.7 1029.9 902.5 1029.7 902.5 1029.4C902.5 1029.1 902.7 1028.9 903 1028.9H994.9C995.2 1028.9 995.4 1029.1 995.4 1029.4C995.4 1029.7 995.1 1029.9 994.8 1029.9Z" fill="#F05A2A"/>
<path d="M993 1061.9H901.1C900.8 1061.9 900.6 1061.7 900.6 1061.4C900.6 1061.1 900.8 1060.9 901.1 1060.9H993C993.3 1060.9 993.5 1061.1 993.5 1061.4C993.5 1061.7 993.3 1061.9 993 1061.9Z" fill="#F05A2A"/>
<path d="M978 1093.8H886.1C885.8 1093.8 885.6 1093.6 885.6 1093.3C885.6 1093 885.8 1092.8 886.1 1092.8H978C978.3 1092.8 978.5 1093 978.5 1093.3C978.5 1093.6 978.2 1093.8 978 1093.8Z" fill="#F05A2A"/>
<path d="M750.9 837.8C746 837.8 742 841.9 742 847V860.6C742 865.6 746 869.8 750.9 869.8H760.5V837.9H750.9V837.8Z" fill="#FBCB35"/>
<path d="M822.3 837.8H812.6V869.7H822.3V837.8Z" fill="#FBCB35"/>
<path d="M787 837.8H771.1V869.7H787V837.8Z" fill="#FBCB35"/>
<path d="M892.3 837.8H830.1V869.7H892.3V837.8Z" fill="#FBCB35"/>
<path d="M909.4 837.8H900.2V869.7H909.4C914.3 869.7 918.3 865.6 918.3 860.5V846.9C918.3 841.9 914.3 837.8 909.4 837.8Z" fill="#FBCB35"/>
<path d="M771.1 837.8H760.4V869.7H771.1V837.8Z" fill="#FFD969"/>
<path d="M812.6 837.8H787V869.7H812.6V837.8Z" fill="#FFD969"/>
<path d="M830.1 837.8H822.3V869.7H830.1V837.8Z" fill="#FFD969"/>
<path d="M900.1 837.8H892.3V869.7H900.1V837.8Z" fill="#FFD969"/>
<path d="M731.4 869.7C726.5 869.7 722.5 873.8 722.5 878.9V892.5C722.5 897.5 726.5 901.7 731.4 901.7H741V869.8H731.4V869.7Z" fill="#FBCB35"/>
<path d="M802.9 869.7H793.2V901.6H802.9V869.7Z" fill="#FBCB35"/>
<path d="M767.6 869.7H751.7V901.6H767.6V869.7Z" fill="#FBCB35"/>
<path d="M872.9 869.7H810.7V901.6H872.9V869.7Z" fill="#FBCB35"/>
<path d="M889.9 869.7H880.7V901.6H889.9C894.8 901.6 898.8 897.5 898.8 892.4V878.8C898.8 873.9 894.8 869.7 889.9 869.7Z" fill="#FBCB35"/>
<path d="M751.7 869.7H741V901.6H751.7V869.7Z" fill="#FFD969"/>
<path d="M793.2 869.7H767.6V901.6H793.2V869.7Z" fill="#FFD969"/>
<path d="M810.7 869.7H802.9V901.6H810.7V869.7Z" fill="#FFD969"/>
<path d="M880.7 869.7H872.9V901.6H880.7V869.7Z" fill="#FFD969"/>
<path d="M750.9 901.7C746 901.7 742 905.8 742 910.9V924.5C742 929.5 746 933.7 750.9 933.7H760.5V901.8H750.9V901.7Z" fill="#FBCB35"/>
<path d="M822.3 901.7H812.6V933.6H822.3V901.7Z" fill="#FBCB35"/>
<path d="M787 901.7H771.1V933.6H787V901.7Z" fill="#FBCB35"/>
<path d="M892.3 901.7H830.1V933.6H892.3V901.7Z" fill="#FBCB35"/>
<path d="M909.4 901.7H900.2V933.6H909.4C914.3 933.6 918.3 929.5 918.3 924.4V910.8C918.3 905.8 914.3 901.7 909.4 901.7Z" fill="#FBCB35"/>
<path d="M771.1 901.7H760.4V933.6H771.1V901.7Z" fill="#FFD969"/>
<path d="M812.6 901.7H787V933.6H812.6V901.7Z" fill="#FFD969"/>
<path d="M830.1 901.7H822.3V933.6H830.1V901.7Z" fill="#FFD969"/>
<path d="M900.1 901.7H892.3V933.6H900.1V901.7Z" fill="#FFD969"/>
<path d="M736.3 933.6C731.4 933.6 727.4 937.7 727.4 942.8V956.4C727.4 961.4 731.4 965.6 736.3 965.6H745.9V933.7H736.3V933.6Z" fill="#FBCB35"/>
<path d="M807.7 933.6H798V965.5H807.7V933.6Z" fill="#FBCB35"/>
<path d="M772.501 933.6H756.601V965.5H772.501V933.6Z" fill="#FBCB35"/>
<path d="M877.7 933.6H815.5V965.5H877.7V933.6Z" fill="#FBCB35"/>
<path d="M894.801 933.6H885.601V965.5H894.801C899.701 965.5 903.701 961.4 903.701 956.3V942.7C903.701 937.7 899.701 933.6 894.801 933.6Z" fill="#FBCB35"/>
<path d="M756.6 933.6H745.9V965.5H756.6V933.6Z" fill="#FFD969"/>
<path d="M798 933.6H772.4V965.5H798V933.6Z" fill="#FFD969"/>
<path d="M815.601 933.6H807.801V965.5H815.601V933.6Z" fill="#FFD969"/>
<path d="M885.601 933.6H877.801V965.5H885.601V933.6Z" fill="#FFD969"/>
<path d="M750.9 965.6C746 965.6 742 969.7 742 974.8V988.4C742 993.4 746 997.6 750.9 997.6H760.5V965.7H750.9V965.6Z" fill="#FBCB35"/>
<path d="M822.3 965.6H812.6V997.5H822.3V965.6Z" fill="#FBCB35"/>
<path d="M787 965.6H771.1V997.5H787V965.6Z" fill="#FBCB35"/>
<path d="M892.3 965.6H830.1V997.5H892.3V965.6Z" fill="#FBCB35"/>
<path d="M909.4 965.6H900.2V997.5H909.4C914.3 997.5 918.3 993.4 918.3 988.3V974.7C918.3 969.7 914.3 965.6 909.4 965.6Z" fill="#FBCB35"/>
<path d="M771.1 965.6H760.4V997.5H771.1V965.6Z" fill="#FFD969"/>
<path d="M812.6 965.6H787V997.5H812.6V965.6Z" fill="#FFD969"/>
<path d="M830.1 965.6H822.3V997.5H830.1V965.6Z" fill="#FFD969"/>
<path d="M900.1 965.6H892.3V997.5H900.1V965.6Z" fill="#FFD969"/>
<path d="M740.2 997.5C735.3 997.5 731.3 1001.6 731.3 1006.7V1020.3C731.3 1025.3 735.3 1029.5 740.2 1029.5H749.8V997.6H740.2V997.5Z" fill="#FBCB35"/>
<path d="M811.599 997.5H801.899V1029.4H811.599V997.5Z" fill="#FBCB35"/>
<path d="M776.299 997.5H760.399V1029.4H776.299V997.5Z" fill="#FBCB35"/>
<path d="M881.599 997.5H819.399V1029.4H881.599V997.5Z" fill="#FBCB35"/>
<path d="M898.7 997.5H889.5V1029.4H898.7C903.6 1029.4 907.6 1025.3 907.6 1020.2V1006.6C907.6 1001.6 903.6 997.5 898.7 997.5Z" fill="#FBCB35"/>
<path d="M760.5 997.5H749.8V1029.4H760.5V997.5Z" fill="#FFD969"/>
<path d="M801.9 997.5H776.3V1029.4H801.9V997.5Z" fill="#FFD969"/>
<path d="M819.5 997.5H811.7V1029.4H819.5V997.5Z" fill="#FFD969"/>
<path d="M889.4 997.5H881.6V1029.4H889.4V997.5Z" fill="#FFD969"/>
<path d="M758.7 1029.4C753.8 1029.4 749.8 1033.5 749.8 1038.6V1052.2C749.8 1057.2 753.8 1061.4 758.7 1061.4H768.3V1029.5H758.7V1029.4Z" fill="#FBCB35"/>
<path d="M830.099 1029.4H820.399V1061.3H830.099V1029.4Z" fill="#FBCB35"/>
<path d="M794.799 1029.4H778.899V1061.3H794.799V1029.4Z" fill="#FBCB35"/>
<path d="M900.099 1029.4H837.899V1061.3H900.099V1029.4Z" fill="#FBCB35"/>
<path d="M917.099 1029.4H907.899V1061.3H917.099C921.999 1061.3 925.999 1057.2 925.999 1052.1V1038.5C925.999 1033.6 921.999 1029.4 917.099 1029.4Z" fill="#FBCB35"/>
<path d="M778.9 1029.4H768.2V1061.3H778.9V1029.4Z" fill="#FFD969"/>
<path d="M820.4 1029.4H794.8V1061.3H820.4V1029.4Z" fill="#FFD969"/>
<path d="M837.9 1029.4H830.1V1061.3H837.9V1029.4Z" fill="#FFD969"/>
<path d="M907.9 1029.4H900.1V1061.3H907.9V1029.4Z" fill="#FFD969"/>
<path d="M744.1 1061.4C739.2 1061.4 735.2 1065.5 735.2 1070.6V1084.2C735.2 1089.2 739.2 1093.4 744.1 1093.4H753.7V1061.5H744.1V1061.4Z" fill="#FBCB35"/>
<path d="M815.5 1061.4H805.8V1093.3H815.5V1061.4Z" fill="#FBCB35"/>
<path d="M780.2 1061.4H764.3V1093.3H780.2V1061.4Z" fill="#FBCB35"/>
<path d="M885.5 1061.4H823.3V1093.3H885.5V1061.4Z" fill="#FBCB35"/>
<path d="M902.5 1061.4H893.3V1093.3H902.5C907.4 1093.3 911.4 1089.2 911.4 1084.1V1070.5C911.5 1065.5 907.4 1061.4 902.5 1061.4Z" fill="#FBCB35"/>
<path d="M764.301 1061.4H753.601V1093.3H764.301V1061.4Z" fill="#FFD969"/>
<path d="M805.8 1061.4H780.2V1093.3H805.8V1061.4Z" fill="#FFD969"/>
<path d="M823.3 1061.4H815.5V1093.3H823.3V1061.4Z" fill="#FFD969"/>
<path d="M893.3 1061.4H885.5V1093.3H893.3V1061.4Z" fill="#FFD969"/>
<path d="M745.1 1093.3C740.2 1093.3 736.2 1097.4 736.2 1102.5V1116.1C736.2 1121.1 740.2 1125.3 745.1 1125.3H754.7V1093.4H745.1V1093.3Z" fill="#FBCB35"/>
<path d="M816.5 1093.3H806.8V1125.2H816.5V1093.3Z" fill="#FBCB35"/>
<path d="M781.2 1093.3H765.3V1125.2H781.2V1093.3Z" fill="#FBCB35"/>
<path d="M886.5 1093.3H824.3V1125.2H886.5V1093.3Z" fill="#FBCB35"/>
<path d="M903.5 1093.3H894.3V1125.2H903.5C908.4 1125.2 912.4 1121.1 912.4 1116V1102.4C912.4 1097.5 908.4 1093.3 903.5 1093.3Z" fill="#FBCB35"/>
<path d="M765.301 1093.3H754.601V1125.2H765.301V1093.3Z" fill="#FFD969"/>
<path d="M806.8 1093.3H781.2V1125.2H806.8V1093.3Z" fill="#FFD969"/>
<path d="M824.3 1093.3H816.5V1125.2H824.3V1093.3Z" fill="#FFD969"/>
<path d="M894.3 1093.3H886.5V1125.2H894.3V1093.3Z" fill="#FFD969"/>
<path d="M846.6 838.3H754.7C754.4 838.3 754.2 838.1 754.2 837.8C754.2 837.5 754.4 837.3 754.7 837.3H846.6C846.9 837.3 847.1 837.5 847.1 837.8C847.1 838.1 846.9 838.3 846.6 838.3Z" fill="#F05A2A"/>
<path d="M844 870.2H752.1C751.8 870.2 751.6 870 751.6 869.7C751.6 869.4 751.8 869.2 752.1 869.2H844C844.3 869.2 844.5 869.4 844.5 869.7C844.5 870 844.3 870.2 844 870.2Z" fill="#F05A2A"/>
<path d="M840.7 902.2H748.8C748.5 902.2 748.3 902 748.3 901.7C748.3 901.4 748.5 901.2 748.8 901.2H840.7C841 901.2 841.2 901.4 841.2 901.7C841.2 902 841 902.2 840.7 902.2Z" fill="#F05A2A"/>
<path d="M844 934.1H752.1C751.8 934.1 751.6 933.9 751.6 933.6C751.6 933.3 751.8 933.1 752.1 933.1H844C844.3 933.1 844.5 933.3 844.5 933.6C844.5 933.9 844.3 934.1 844 934.1Z" fill="#F05A2A"/>
<path d="M840.3 998H748.4C748.1 998 747.9 997.8 747.9 997.5C747.9 997.2 748.1 997 748.4 997H840.3C840.6 997 840.8 997.2 840.8 997.5C840.8 997.8 840.5 998 840.3 998Z" fill="#F05A2A"/>
<path d="M840.7 966.1H748.8C748.5 966.1 748.3 965.9 748.3 965.6C748.3 965.3 748.5 965.1 748.8 965.1H840.7C841 965.1 841.2 965.3 841.2 965.6C841.2 965.9 841 966.1 840.7 966.1Z" fill="#F05A2A"/>
<path d="M849.6 1029.9H757.7C757.4 1029.9 757.2 1029.7 757.2 1029.4C757.2 1029.1 757.4 1028.9 757.7 1028.9H849.6C849.9 1028.9 850.1 1029.1 850.1 1029.4C850.1 1029.7 849.9 1029.9 849.6 1029.9Z" fill="#F05A2A"/>
<path d="M847.9 1061.9H756C755.7 1061.9 755.5 1061.7 755.5 1061.4C755.5 1061.1 755.7 1060.9 756 1060.9H847.9C848.2 1060.9 848.4 1061.1 848.4 1061.4C848.4 1061.7 848.1 1061.9 847.9 1061.9Z" fill="#F05A2A"/>
<path d="M832.8 1093.8H740.9C740.6 1093.8 740.4 1093.6 740.4 1093.3C740.4 1093 740.6 1092.8 740.9 1092.8H832.8C833.1 1092.8 833.3 1093 833.3 1093.3C833.3 1093.6 833.1 1093.8 832.8 1093.8Z" fill="#F05A2A"/>
<path d="M353.9 603.7C353.9 603.7 337.3 607 327.2 612C317.1 617 154.7 635.9 154.7 635.9L183.5 666C183.5 666 232.3 670.2 242 667.6C251.7 665 340.4 625.7 340.4 625.7C340.4 625.7 344.4 624.6 352.7 621.8C361 619 365 616.3 365 616.3C365 616.3 363.6 614.5 359.6 615.2C355.6 615.9 349 612.6 349.6 611.7C350.2 610.5 352.1 606.8 353.9 603.7Z" fill="#F9BFB1"/>
<path d="M258.9 449.1C254.1 449.1 250.2 453.1 250.2 458.1V471.5C250.2 476.4 254.1 480.5 258.9 480.5H268.3V449.2H258.9V449.1Z" fill="#FBCB35"/>
<path d="M328.9 449.1H319.4V480.4H328.9V449.1Z" fill="#FBCB35"/>
<path d="M294.4 449.1H278.8V480.4H294.4V449.1Z" fill="#FBCB35"/>
<path d="M397.4 449.1H336.5V480.4H397.4V449.1Z" fill="#FBCB35"/>
<path d="M414.1 449.1H405.1V480.4H414.1C418.9 480.4 422.8 476.4 422.8 471.4V458C422.9 453.2 418.9 449.1 414.1 449.1Z" fill="#FBCB35"/>
<path d="M278.8 449.1H268.3V480.4H278.8V449.1Z" fill="#FFD969"/>
<path d="M319.4 449.1H294.3V480.4H319.4V449.1Z" fill="#FFD969"/>
<path d="M336.5 449.1H328.9V480.4H336.5V449.1Z" fill="#FFD969"/>
<path d="M405.1 449.1H397.5V480.4H405.1V449.1Z" fill="#FFD969"/>
<path d="M239.9 480.4C235.1 480.4 231.2 484.4 231.2 489.4V502.8C231.2 507.7 235.1 511.8 239.9 511.8H249.3V480.5H239.9V480.4Z" fill="#FBCB35"/>
<path d="M309.8 480.4H300.3V511.7H309.8V480.4Z" fill="#FBCB35"/>
<path d="M275.3 480.4H259.7V511.7H275.3V480.4Z" fill="#FBCB35"/>
<path d="M378.4 480.4H317.5V511.7H378.4V480.4Z" fill="#FBCB35"/>
<path d="M395.1 480.4H386.1V511.7H395.1C399.9 511.7 403.8 507.7 403.8 502.7V489.3C403.8 484.4 399.9 480.4 395.1 480.4Z" fill="#FBCB35"/>
<path d="M259.7 480.4H249.2V511.7H259.7V480.4Z" fill="#FFD969"/>
<path d="M300.4 480.4H275.3V511.7H300.4V480.4Z" fill="#FFD969"/>
<path d="M317.5 480.4H309.9V511.7H317.5V480.4Z" fill="#FFD969"/>
<path d="M386 480.4H378.4V511.7H386V480.4Z" fill="#FFD969"/>
<path d="M258.9 511.7C254.1 511.7 250.2 515.7 250.2 520.7V534C250.2 538.9 254.1 543 258.9 543H268.3V511.7H258.9Z" fill="#FBCB35"/>
<path d="M328.9 511.7H319.4V543H328.9V511.7Z" fill="#FBCB35"/>
<path d="M294.4 511.7H278.8V543H294.4V511.7Z" fill="#FBCB35"/>
<path d="M397.4 511.7H336.5V543H397.4V511.7Z" fill="#FBCB35"/>
<path d="M414.1 511.7H405.1V543H414.1C418.9 543 422.8 539 422.8 534V520.6C422.9 515.7 418.9 511.7 414.1 511.7Z" fill="#FBCB35"/>
<path d="M278.8 511.7H268.3V543H278.8V511.7Z" fill="#FFD969"/>
<path d="M319.4 511.7H294.3V543H319.4V511.7Z" fill="#FFD969"/>
<path d="M336.5 511.7H328.9V543H336.5V511.7Z" fill="#FFD969"/>
<path d="M405.1 511.7H397.5V543H405.1V511.7Z" fill="#FFD969"/>
<path d="M244.6 543C239.8 543 235.9 547 235.9 552V565.4C235.9 570.3 239.8 574.4 244.6 574.4H254V543H244.6Z" fill="#FBCB35"/>
<path d="M314.601 543H305.101V574.3H314.601V543Z" fill="#FBCB35"/>
<path d="M280.1 543H264.5V574.3H280.1V543Z" fill="#FBCB35"/>
<path d="M383.1 543H322.2V574.3H383.1V543Z" fill="#FBCB35"/>
<path d="M399.8 543H390.8V574.3H399.8C404.6 574.3 408.5 570.3 408.5 565.3V551.9C408.6 547 404.6 543 399.8 543Z" fill="#FBCB35"/>
<path d="M264.5 543H254V574.3H264.5V543Z" fill="#FFD969"/>
<path d="M305.1 543H280V574.3H305.1V543Z" fill="#FFD969"/>
<path d="M322.201 543H314.601V574.3H322.201V543Z" fill="#FFD969"/>
<path d="M390.8 543H383.2V574.3H390.8V543Z" fill="#FFD969"/>
<path d="M258.9 574.3C254.1 574.3 250.2 578.3 250.2 583.3V596.7C250.2 601.6 254.1 605.7 258.9 605.7H268.3V574.4H258.9V574.3Z" fill="#FBCB35"/>
<path d="M328.9 574.3H319.4V605.6H328.9V574.3Z" fill="#FBCB35"/>
<path d="M294.4 574.3H278.8V605.6H294.4V574.3Z" fill="#FBCB35"/>
<path d="M397.4 574.3H336.5V605.6H397.4V574.3Z" fill="#FBCB35"/>
<path d="M414.1 574.3H405.1V605.6H414.1C418.9 605.6 422.8 601.6 422.8 596.6V583.2C422.9 578.3 418.9 574.3 414.1 574.3Z" fill="#FBCB35"/>
<path d="M278.8 574.3H268.3V605.6H278.8V574.3Z" fill="#FFD969"/>
<path d="M319.4 574.3H294.3V605.6H319.4V574.3Z" fill="#FFD969"/>
<path d="M336.5 574.3H328.9V605.6H336.5V574.3Z" fill="#FFD969"/>
<path d="M405.1 574.3H397.5V605.6H405.1V574.3Z" fill="#FFD969"/>
<path d="M248.4 605.6C243.6 605.6 239.7 609.6 239.7 614.6V628C239.7 632.9 243.6 637 248.4 637H257.8V605.7H248.4V605.6Z" fill="#FBCB35"/>
<path d="M318.4 605.6H308.9V636.9H318.4V605.6Z" fill="#FBCB35"/>
<path d="M283.9 605.6H268.3V636.9H283.9V605.6Z" fill="#FBCB35"/>
<path d="M386.9 605.6H326V636.9H386.9V605.6Z" fill="#FBCB35"/>
<path d="M403.6 605.6H394.6V636.9H403.6C408.4 636.9 412.3 632.9 412.3 627.9V614.5C412.4 609.6 408.4 605.6 403.6 605.6Z" fill="#FBCB35"/>
<path d="M268.3 605.6H257.8V636.9H268.3V605.6Z" fill="#FFD969"/>
<path d="M308.9 605.6H283.8V636.9H308.9V605.6Z" fill="#FFD969"/>
<path d="M326 605.6H318.4V636.9H326V605.6Z" fill="#FFD969"/>
<path d="M394.6 605.6H387V636.9H394.6V605.6Z" fill="#FFD969"/>
<path d="M266.5 636.8C261.7 636.8 257.8 640.8 257.8 645.8V659.2C257.8 664.1 261.7 668.2 266.5 668.2H275.9V636.9H266.5V636.8Z" fill="#FBCB35"/>
<path d="M336.5 636.8H327V668.1H336.5V636.8Z" fill="#FBCB35"/>
<path d="M302 636.8H286.4V668.1H302V636.8Z" fill="#FBCB35"/>
<path d="M405 636.8H344.1V668.1H405V636.8Z" fill="#FBCB35"/>
<path d="M421.7 636.8H412.7V668.1H421.7C426.5 668.1 430.4 664.1 430.4 659.1V645.7C430.5 640.9 426.5 636.8 421.7 636.8Z" fill="#FBCB35"/>
<path d="M286.4 636.8H275.9V668.1H286.4V636.8Z" fill="#FFD969"/>
<path d="M327 636.8H301.9V668.1H327V636.8Z" fill="#FFD969"/>
<path d="M344.1 636.8H336.5V668.1H344.1V636.8Z" fill="#FFD969"/>
<path d="M412.7 636.8H405.1V668.1H412.7V636.8Z" fill="#FFD969"/>
<path d="M252.2 668.1C247.4 668.1 243.5 672.1 243.5 677.1V690.5C243.5 695.4 247.4 699.5 252.2 699.5H261.6V668.2H252.2V668.1Z" fill="#FBCB35"/>
<path d="M322.2 668.1H312.7V699.4H322.2V668.1Z" fill="#FBCB35"/>
<path d="M287.7 668.1H272.1V699.4H287.7V668.1Z" fill="#FBCB35"/>
<path d="M390.8 668.1H329.9V699.4H390.8V668.1Z" fill="#FBCB35"/>
<path d="M407.5 668.1H398.5V699.4H407.5C412.3 699.4 416.2 695.4 416.2 690.4V677C416.2 672.2 412.3 668.1 407.5 668.1Z" fill="#FBCB35"/>
<path d="M272.1 668.1H261.6V699.4H272.1V668.1Z" fill="#FFD969"/>
<path d="M312.7 668.1H287.6V699.4H312.7V668.1Z" fill="#FFD969"/>
<path d="M329.8 668.1H322.2V699.4H329.8V668.1Z" fill="#FFD969"/>
<path d="M398.4 668.1H390.8V699.4H398.4V668.1Z" fill="#FFD969"/>
<path d="M253.2 699.4C248.4 699.4 244.5 703.4 244.5 708.4V721.8C244.5 726.7 248.4 730.8 253.2 730.8H262.6V699.5H253.2V699.4Z" fill="#FBCB35"/>
<path d="M323.2 699.4H313.7V730.7H323.2V699.4Z" fill="#FBCB35"/>
<path d="M288.6 699.4H273V730.7H288.6V699.4Z" fill="#FBCB35"/>
<path d="M391.7 699.4H330.8V730.7H391.7V699.4Z" fill="#FBCB35"/>
<path d="M408.4 699.4H399.4V730.7H408.4C413.2 730.7 417.1 726.7 417.1 721.7V708.3C417.1 703.5 413.2 699.4 408.4 699.4Z" fill="#FBCB35"/>
<path d="M273.1 699.4H262.6V730.7H273.1V699.4Z" fill="#FFD969"/>
<path d="M313.7 699.4H288.6V730.7H313.7V699.4Z" fill="#FFD969"/>
<path d="M330.8 699.4H323.2V730.7H330.8V699.4Z" fill="#FFD969"/>
<path d="M399.3 699.4H391.7V730.7H399.3V699.4Z" fill="#FFD969"/>
<path d="M350.1 481.8H260.1C259.4 481.8 258.8 481.2 258.8 480.5C258.8 479.8 259.4 479.2 260.1 479.2H350.1C350.8 479.2 351.4 479.8 351.4 480.5C351.4 481.2 350.8 481.8 350.1 481.8Z" fill="#F05A2A"/>
<path d="M346.9 513H256.9C256.2 513 255.6 512.4 255.6 511.7C255.6 511 256.2 510.4 256.9 510.4H346.9C347.6 510.4 348.2 511 348.2 511.7C348.2 512.4 347.7 513 346.9 513Z" fill="#F05A2A"/>
<path d="M350.1 544.3H260.1C259.4 544.3 258.8 543.7 258.8 543C258.8 542.3 259.4 541.7 260.1 541.7H350.1C350.8 541.7 351.4 542.3 351.4 543C351.4 543.7 350.8 544.3 350.1 544.3Z" fill="#F05A2A"/>
<path d="M346.5 606.9H256.5C255.8 606.9 255.2 606.3 255.2 605.6C255.2 604.9 255.8 604.3 256.5 604.3H346.5C347.2 604.3 347.8 604.9 347.8 605.6C347.8 606.3 347.2 606.9 346.5 606.9Z" fill="#F05A2A"/>
<path d="M346.9 575.6H256.9C256.2 575.6 255.6 575 255.6 574.3C255.6 573.6 256.2 573 256.9 573H346.9C347.6 573 348.2 573.6 348.2 574.3C348.2 575 347.7 575.6 346.9 575.6Z" fill="#F05A2A"/>
<path d="M355.6 638.2H265.6C264.9 638.2 264.3 637.6 264.3 636.9C264.3 636.2 264.9 635.6 265.6 635.6H355.6C356.3 635.6 356.9 636.2 356.9 636.9C357 637.6 356.4 638.2 355.6 638.2Z" fill="#F05A2A"/>
<path d="M353.9 669.5H263.9C263.2 669.5 262.6 668.9 262.6 668.2C262.6 667.5 263.2 666.9 263.9 666.9H353.9C354.6 666.9 355.2 667.5 355.2 668.2C355.2 668.9 354.6 669.5 353.9 669.5Z" fill="#F05A2A"/>
<path d="M339.1 700.8H249.1C248.4 700.8 247.8 700.2 247.8 699.5C247.8 698.8 248.4 698.2 249.1 698.2H339.1C339.8 698.2 340.4 698.8 340.4 699.5C340.5 700.2 339.9 700.8 339.1 700.8Z" fill="#F05A2A"/>
<path d="M127.6 579L128.2 584.2L133 624.4C133 624.4 133.4 634.5 148.7 631.5C164 628.5 157.5 612.1 157.5 612.1L156 599.8C156 599.8 168.7 602.5 178.2 592.4C187.8 582.4 187.1 572.1 182.6 564C178.1 555.9 166.8 533.4 164.6 529.8C162.4 526.2 141.9 510.2 111 540.6C111 540.6 115 557.8 116.2 559.7C116.9 560.8 118.3 564.5 120.7 568.9C122.5 572.1 124.7 575.6 127.6 579Z" fill="#F9BFB1"/>
<path d="M105.1 1097.8L72.7002 1144.1H92.3002L119.3 1105.1L105.1 1097.8Z" fill="#F9BFB1"/>
<path d="M399.9 1096.4L421 1144.1L435.8 1137.8L414.3 1091.9L399.9 1096.4Z" fill="#F9BFB1"/>
<path d="M223.2 808.3L185.8 971.3L82.5 1121L105.1 1134.4L235.4 999.7L309.7 825.1L223.2 808.3Z" fill="#162C53"/>
<path d="M177 789.4L404.5 1116L430.5 1110.3L275.6 732.4L177 789.4Z" fill="#22446D"/>
<path d="M172.2 613.2C172.2 613.2 117.5 633.4 114.2 648.6C110.9 663.8 196.8 837.5 200.8 844.9C204.8 852.3 280.4 828.5 290.3 741.4C290.3 741.3 192.7 617.1 172.2 613.2Z" fill="#444BA1"/>
<path d="M145.4 656.6L186.8 719.1L202.1 711.1C202.1 711.1 225.3 734.7 252.5 736.5C279.7 738.3 283.1 732.5 283.1 732.5L172.1 645.2L145.4 656.6Z" fill="#22446D"/>
<path d="M384.7 715.4C384.7 715.4 385.1 719.5 377.3 721.3L371.3 722.2C371.3 722.2 377.2 725 383.5 726.5C389.8 728 400.4 727.9 403.8 727.2C403.8 727.2 407.7 729.4 402.7 732.2C402.7 732.2 405.7 734.7 401.3 736.4C401.3 736.4 401.1 739.8 395.5 741C395.5 741 384.2 743.2 375.8 742.5C375.8 742.5 385.1 746.2 388 746C388 746 391.5 749.5 384.6 749.1C377.8 748.7 367.2 742.5 361.5 741.7C355.7 740.8 350.4 734.1 337.5 736C324.6 737.9 255.8 731.6 240.1 724.6C224.4 717.6 187.9 691.3 187.9 691.3L218.8 674.9L255.6 702L340.6 719.9C340.6 719.9 348.5 720.8 359.5 717.8C370.5 714.8 384.7 715.4 384.7 715.4Z" fill="#F9BFB1"/>
<path d="M144.6 580.7C147.6 579.4 159.9 573.2 159.9 573.2C159.9 573.2 155.7 539.9 159.2 537C162.7 534.2 164.7 529.8 164.7 529.8C164.7 529.8 178.1 517.2 162.3 512.7C162.3 512.7 147 499.5 129.1 510.3C111.2 521.1 115.6 534.6 115.6 534.6C115.6 534.6 103.4 538.5 105.3 549.3C107.2 560.1 115.4 578.2 128.3 584.1C134.5 588 144.6 580.7 144.6 580.7Z" fill="#162C53"/>
<path d="M161.2 549.1C161.2 549.1 154.7 544 150.7 550.4C146.7 556.9 155.6 568.7 161.1 569.4C161.1 569.4 164.5 554.2 161.2 549.1Z" fill="#F9BFB1"/>
<path d="M164.9 616C164.9 616 133 615.1 125.7 623.9C118.3 632.7 124.8 636 124.8 636C124.8 636 157.3 625.3 164.9 616Z" fill="#212676"/>
<path d="M190 636.1L231.2 679.3C231.2 679.3 208.1 696.4 191.5 701.1C191.5 701.1 147.6 663.2 142.6 652.2L190 636.1Z" fill="#444BA1"/>
<path d="M404.5 731.2C404.3 731.2 404.2 731.1 404.1 730.9C404 730.7 404 730.4 404.3 730.2C404.9 729.9 405.1 729.5 405.1 729.2C405.1 728.6 404.2 727.9 403.7 727.6C388.8 730.9 371.2 722.6 371.1 722.5L369.2 721.6L371.3 721.5C381.3 721.2 383.8 719.1 384.5 717.8C385 716.9 384.7 716.1 384.5 715.7C383.4 715.7 379.2 715.7 372.7 716C369.4 716.1 364.8 717.1 359.9 718.1C353.6 719.4 347.1 720.7 343.3 720.3C336.7 719.6 262.1 703.6 259 702.9C258.7 702.8 258.6 702.6 258.6 702.3C258.7 702 258.9 701.9 259.2 701.9C260 702.1 336.8 718.6 343.4 719.2C347.1 719.6 353.5 718.3 359.7 717C364.6 716 369.3 715 372.7 714.9C380.2 714.6 384.8 714.6 384.8 714.6H385.1L385.2 714.8C385.2 714.9 386.3 716.4 385.4 718.1C384.2 720.4 380.2 721.8 373.6 722.2C378.6 724.2 392.1 728.9 403.8 726.3H404L404.2 726.4C404.4 726.5 406.3 727.6 406.3 729C406.3 729.7 405.9 730.3 405 730.9C404.7 731.2 404.6 731.2 404.5 731.2Z" fill="#F05A2A"/>
<path d="M67.9 1145.8C67.1 1145.8 66.3 1145.9 65.5 1146C65.9 1140.1 66.5 1135 67.5 1133.6C70.1 1130 75.6 1135.7 84.9 1136.1C94.2 1136.5 99.7 1126.4 101.4 1127.5C105.5 1130.3 139.6 1149.3 143.4 1152.8C145.2 1154.5 145.5 1158.1 145.3 1161.3H83.4C83.4 1152.8 76.5 1145.8 67.9 1145.8Z" fill="#162C53"/>
<path d="M83.3999 1161.4H64.8999C64.9999 1157.1 65.0999 1151.3 65.4999 1146.1C66.2999 1146 67.0999 1145.9 67.8999 1145.9C76.4999 1145.8 83.3999 1152.8 83.3999 1161.4Z" fill="#33597F"/>
<path d="M64.8998 1161.4H83.4998H145.3C145.1 1164.8 144.4 1167.9 144.4 1167.9H81.9998H64.7998C64.7998 1167.8 64.7998 1165.2 64.8998 1161.4Z" fill="#CDE4F6"/>
<path d="M410.4 1145.8C409.6 1145.8 408.8 1145.9 408 1146C408.4 1140.1 409 1135 410 1133.6C412.6 1130 418.1 1135.7 427.4 1136.1C436.7 1136.5 442.2 1126.4 443.9 1127.5C448 1130.3 482.1 1149.3 485.9 1152.8C487.7 1154.5 488 1158.1 487.8 1161.3H426C425.9 1152.8 419 1145.8 410.4 1145.8Z" fill="#162C53"/>
<path d="M425.9 1161.4H407.3C407.4 1157.1 407.5 1151.3 407.9 1146.1C408.7 1146 409.5 1145.9 410.3 1145.9C419 1145.8 425.9 1152.8 425.9 1161.4Z" fill="#33597F"/>
<path d="M407.4 1161.4H426H487.8C487.6 1164.8 486.9 1167.9 486.9 1167.9H424.6H407.4C407.3 1167.8 407.3 1165.2 407.4 1161.4Z" fill="#CDE4F6"/>
<path d="M1556.1 600.6C1556.1 600.6 1572.7 603.9 1582.8 608.9C1592.9 613.9 1755.3 632.8 1755.3 632.8L1726.5 662.9C1726.5 662.9 1677.7 667.1 1668 664.5C1658.3 661.9 1569.6 622.6 1569.6 622.6C1569.6 622.6 1565.6 621.5 1557.3 618.7C1549 615.9 1545 613.2 1545 613.2C1545 613.2 1546.4 611.4 1550.4 612.1C1554.4 612.8 1561 609.5 1560.4 608.6C1559.8 607.5 1557.9 603.7 1556.1 600.6Z" fill="#F9BFB1"/>
<path d="M1741.8 558.7L1742.9 563.5L1751 600.2C1751 600.2 1753.7 609.2 1739.4 611.2C1725.1 613.2 1725.8 596.9 1725.8 596.9L1723.3 585.7C1723.3 585.7 1713 591.9 1701.5 586C1690.1 580.1 1687.5 570.9 1689 562.4C1690.5 553.9 1693.5 530.7 1694.3 526.9C1695.1 523.1 1708.2 502.8 1744.6 520C1744.6 520 1746.3 536.3 1745.8 538.3C1745.5 539.5 1745.4 543.1 1744.7 547.8C1744.2 551 1743.3 554.8 1741.8 558.7Z" fill="#F9BFB1"/>
<path d="M1834.4 1099.3L1860.4 1146.9L1848.8 1153.3L1818.7 1105.1L1834.4 1099.3Z" fill="#F9BFB1"/>
<path d="M1547 1107.7L1521.3 1155.1L1507.2 1149.1L1530.5 1105.6L1547 1107.7Z" fill="#F9BFB1"/>
<path d="M1717.6 815.2L1764.2 968.9L1848.8 1112.1L1826.8 1126.3L1705.5 1006.6L1631.2 832L1717.6 815.2Z" fill="black"/>
<path d="M1763.9 796.4L1543.4 1128L1518 1120.8L1665.3 739.4L1763.9 796.4Z" fill="#333333"/>
<path d="M1703.1 628.7C1703.1 628.7 1750.7 590.9 1758.8 604.2C1761.3 608.3 1771 609.3 1770.4 638.5C1768.9 704.3 1752.8 826.3 1751.8 832C1750.5 840.3 1671.2 842.6 1633.2 763.6C1633.2 763.6 1685 639.1 1703.1 628.7Z" fill="#FF4148"/>
<path d="M1779.6 543.9C1779.6 543.9 1787.7 537.5 1792.7 545.6C1797.7 553.7 1786.7 568.4 1779.8 569.2C1779.8 569.1 1775.5 550.2 1779.6 543.9Z" fill="#F9BFB1"/>
<path d="M1711.1 620C1711.1 620 1730.6 594.8 1742.1 594.7C1753.6 594.6 1752 601.7 1752 601.7C1752 601.7 1723.1 619.9 1711.1 620Z" fill="#F23243"/>
<path d="M1928.4 728.1L1873.7 952.4C1873.7 952.4 1529 881.2 1411.4 788.7L1534 557.3C1534.1 557.2 1663.3 688.9 1928.4 728.1Z" fill="#00887D"/>
<path d="M1895.3 737L1847.2 920.3C1847.2 920.3 1551.9 860.7 1453.3 783.1L1556 589.2C1556.1 589.2 1673.2 704.2 1895.3 737Z" fill="#04B5A4"/>
<path d="M1742.41 800.009C1754.32 767.908 1737.71 732.134 1705.29 720.106C1672.88 708.078 1636.95 724.351 1625.04 756.452C1613.12 788.554 1629.74 824.328 1662.15 836.356C1694.57 848.384 1730.5 832.111 1742.41 800.009Z" fill="#00887D"/>
<path d="M1661.9 825.4L1665.7 815.8C1661.5 813.2 1658.3 810.4 1656.1 807.6C1653.9 804.8 1652.5 801.2 1651.8 796.8C1651.1 792.4 1651.6 787.7 1653.2 782.5L1662.9 784.8C1661.6 790.3 1661.3 794.6 1662.1 797.8C1663.3 802.4 1665.5 805.6 1668.9 807.6L1680.9 777C1677.5 774.6 1674.4 771.4 1671.4 767.3C1669.2 764.3 1668 760.9 1667.6 757.2C1667.2 753.5 1667.8 749.7 1669.3 745.9C1672 739.1 1676.4 734.6 1682.6 732.4C1686.7 730.9 1691.9 731.2 1698.1 733.2L1699.9 728.6L1705.2 731L1703.4 735.6C1708.4 738.5 1711.9 742 1713.8 746.1C1716.3 751.4 1716.8 757.2 1715.2 763.6L1705.4 760.9C1706.4 756.9 1706.4 753.5 1705.5 750.7C1704.6 747.9 1702.8 745.6 1700.2 743.6L1689.3 771.3C1693.3 774.5 1695.9 776.8 1697.1 778.2C1699.4 780.8 1701 783.4 1702 786.1C1703 788.8 1703.5 791.6 1703.4 794.7C1703.3 797.7 1702.7 800.7 1701.5 803.8C1698.9 810.5 1694.7 815.1 1689.1 817.8C1683.4 820.5 1677.4 820.5 1671 818L1667.2 827.7L1661.9 825.4ZM1694.9 741.3C1691.2 740.3 1687.9 740.5 1684.9 742.1C1681.9 743.6 1679.8 746 1678.5 749.3C1677.2 752.6 1677 755.7 1677.8 758.7C1678.6 761.7 1680.8 764.7 1684.4 767.9L1694.9 741.3ZM1674.1 810C1677.8 811.1 1681.3 810.8 1684.6 809C1688 807.3 1690.4 804.3 1692 800.2C1693.4 796.7 1693.7 793.5 1692.9 790.7C1692.1 787.9 1689.7 784.5 1685.5 780.7L1674.1 810Z" fill="white"/>
<path d="M1634 872.2C1634 872.2 1636.6 875.4 1643.4 871.3L1648.4 867.8C1648.4 867.8 1646.1 873.9 1642.6 879.4C1639.1 884.9 1631.4 892.1 1628.5 894C1628.5 894 1627.2 898.2 1632.8 896.8C1632.8 896.8 1632.3 900.7 1636.7 898.8C1636.7 898.8 1639.2 901.1 1644.1 898.1C1644.1 898.1 1653.7 891.9 1659.3 885.5C1659.3 885.5 1655.2 894.6 1652.9 896.5C1652.9 896.5 1652.8 901.4 1657.5 896.4C1662.1 891.4 1665.4 879.6 1669 875C1672.6 870.4 1671.7 861.8 1682.3 854.3C1692.9 846.7 1738 794.4 1744.4 778.5C1750.8 762.6 1758.8 718.3 1758.8 718.3L1725.1 728L1717.5 773L1668.8 845C1668.8 845 1663.7 851.1 1653.8 856.6C1643.9 862.1 1634 872.2 1634 872.2Z" fill="#F9BFB1"/>
<path d="M1716.2 667.9V730.9C1716.2 730.9 1747.9 735.8 1763.1 727.8C1763.1 727.8 1773.5 634.5 1769.4 623L1716.2 667.9Z" fill="#FF4148"/>
<path d="M1517.9 587.5C1517.9 587.5 1528.1 605.4 1522.2 609L1514.3 594.3C1514.3 594.3 1520.8 608.4 1518 611.4L1510.1 599.4C1510.1 599.4 1516.6 613.1 1514.9 615.1L1508.6 605C1508.6 605 1511.6 613.2 1508.6 616.8L1503.9 606.7C1503.9 606.7 1501 603.4 1505.9 602.1C1505.9 602.1 1504.2 598.2 1507.9 596.8C1507.9 596.8 1505.9 591.7 1511.6 591.5C1511.5 591.6 1511 584.8 1517.9 587.5Z" fill="#F9BFB1"/>
<path d="M1746.1 538.2C1746.1 538.2 1776.1 527.6 1790.2 539.2C1804.3 550.8 1801.8 559.3 1804.7 569.8C1807.6 580.3 1816.1 589.7 1816.1 589.7C1816.1 589.7 1761 618.5 1761.2 565.3C1761.2 565.3 1762.1 543 1744.6 542.7C1744.6 542.8 1742.7 540.4 1746.1 538.2Z" fill="#162C53"/>
<path d="M1749 537.3C1747.4 527.3 1744.1 512.9 1725 508.8C1705.9 504.7 1696.6 509.2 1696.6 509.2C1696.1 508.7 1695.6 508.5 1695.1 508.5C1664 494 1680 532.3 1686.4 533.2C1690.5 533.7 1694.3 530.9 1696.5 528.7C1697.8 529.7 1699.5 530.8 1701.4 531.5C1705.3 532.9 1711.8 563.4 1711.8 563.4C1711.8 563.4 1724.5 565.1 1727.5 565.3C1727.5 565.3 1738.7 568.6 1742.9 563.4C1752.4 554.3 1750.7 547.3 1749 537.3Z" fill="#162C53"/>
<path d="M1703.9 550.3C1703.9 550.3 1707.4 542 1713.6 547C1719.9 552 1711.5 566.4 1711.5 566.4L1703.9 550.3Z" fill="#F9BFB1"/>
<path d="M1536.8 1146.3C1537.6 1146.3 1538.4 1146.4 1539.2 1146.5C1538.8 1140.6 1538.2 1135.5 1537.2 1134.1C1534.6 1130.5 1529.1 1136.2 1519.8 1136.6C1510.5 1137 1505 1126.9 1503.3 1128C1499.2 1130.8 1465.1 1149.8 1461.3 1153.3C1459.5 1155 1459.2 1158.6 1459.4 1161.8H1521.2C1521.2 1153.3 1528.2 1146.3 1536.8 1146.3Z" fill="black"/>
<path d="M1521.2 1161.9H1539.8C1539.7 1157.6 1539.6 1151.8 1539.2 1146.6C1538.4 1146.5 1537.6 1146.4 1536.8 1146.4C1528.2 1146.3 1521.2 1153.3 1521.2 1161.9Z" fill="#4D4D4D"/>
<path d="M1539.8 1161.9H1521.2H1459.4C1459.6 1165.3 1460.3 1168.4 1460.3 1168.4H1522.6H1539.8C1539.9 1168.4 1539.9 1165.7 1539.8 1161.9Z" fill="#E6E6E6"/>
<path d="M1864.3 1146.3C1865.1 1146.3 1865.9 1146.4 1866.7 1146.5C1866.3 1140.6 1865.7 1135.5 1864.7 1134.1C1862.1 1130.5 1856.6 1136.2 1847.3 1136.6C1838 1137 1832.5 1126.9 1830.8 1128C1826.7 1130.8 1792.6 1149.8 1788.8 1153.3C1787 1155 1786.7 1158.6 1786.9 1161.8H1848.7C1848.8 1153.3 1855.7 1146.3 1864.3 1146.3Z" fill="black"/>
<path d="M1848.8 1161.9H1867.4C1867.3 1157.6 1867.2 1151.8 1866.8 1146.6C1866 1146.5 1865.2 1146.4 1864.4 1146.4C1855.7 1146.3 1848.8 1153.3 1848.8 1161.9Z" fill="#4D4D4D"/>
<path d="M1867.3 1161.9H1848.7H1786.9C1787.1 1165.3 1787.8 1168.4 1787.8 1168.4H1850.1H1867.3C1867.4 1168.4 1867.4 1165.7 1867.3 1161.9Z" fill="#E6E6E6"/>
<path d="M1905.3 1168.5H34.7998V1175.9H1905.3V1168.5Z" fill="#242B2B"/>
<path opacity="0.1" d="M1228.1 1138.6L686.6 1152.2C677.5 1142.9 671.9 1130.3 671.9 1116.3V980.6L804.4 459L810.5 435.2H794.4V424.4H810.5V408.8H794.4V398H810.5V380.6H794.4V359.2H810.5V358.6H1129.6V359.2H1140.7V380.6H1129.6V398H1140.7V408.8H1129.6V424.4H1140.7V435.2H1129.6L1133.1 459.9L1228.1 1138.6Z" fill="#E5E8FF"/>
<path opacity="0.32" d="M1111.1 1105.7C1100.3 1105.7 1091.5 1096.9 1091.5 1086.1V630.9C1091.5 620.1 1100.3 611.3 1111.1 611.3C1121.9 611.3 1130.7 620.1 1130.7 630.9V1086.1C1130.6 1096.9 1121.9 1105.7 1111.1 1105.7Z" fill="white"/>
<path opacity="0.28" d="M888.6 598.9V1167.6H723.8V598.9C723.8 553.4 760.7 516.5 806.2 516.5C829 516.5 849.6 525.7 864.5 540.6C879.4 555.6 888.6 576.2 888.6 598.9Z" fill="white"/>
<path opacity="0.3" d="M830.1 459.1C805.2 463.4 741.9 477.9 694.3 520.2C718.6 483.5 760.3 459.1 807.4 459.1H830.1Z" fill="white"/>
<path opacity="0.41" d="M1015.3 460.9L1061 459H1117.8C1161.9 459 1201.3 480.4 1226.1 513.3L1226.2 513.4C1227.7 515.4 1229.2 517.5 1230.6 519.7C1230.6 519.7 1230.6 519.8 1230.7 519.8C1231.2 520.5 1231.7 521.2 1232.2 522C1232.4 522.4 1232.7 522.8 1233 523.2C1234.3 525.3 1235.5 527.4 1236.7 529.5C1236.8 529.7 1237 530 1237.1 530.2C1237.6 531.1 1238.1 532 1238.6 532.9C1238.7 533 1238.7 533.1 1238.8 533.3C1239.3 534.4 1239.9 535.5 1240.4 536.6C1240.5 536.8 1240.5 536.9 1240.6 537.1C1240.9 537.8 1241.3 538.6 1241.6 539.3C1241.8 539.8 1242 540.2 1242.2 540.7C1243.2 542.9 1244 545.1 1244.9 547.3C1245 547.7 1245.2 548 1245.3 548.4C1245.6 549.3 1245.9 550.2 1246.2 551.1C1246.3 551.3 1246.3 551.5 1246.4 551.7C1246.8 552.8 1247.1 553.9 1247.5 555.1C1247.6 555.3 1247.6 555.5 1247.7 555.7C1248 556.6 1248.2 557.5 1248.5 558.4C1248.6 558.8 1248.7 559.2 1248.8 559.5C1249.1 560.7 1249.4 561.8 1249.7 563C1252.2 573.1 1253.5 583.7 1253.5 594.6V1116.4C1253.5 1144.6 1230.4 1167.7 1202.2 1167.7H1146.5V586.8C1146.3 586.8 1148.1 460.9 1015.3 460.9Z" fill="white"/>
</svg>
