<svg width="27" height="28" viewBox="0 0 27 28" fill="none" xmlns="http://www.w3.org/2000/svg">
<path d="M20.2801 8.15999H23.6401C23.9371 8.15999 24.222 8.27799 24.4321 8.48803C24.6421 8.69807 24.7601 8.98295 24.7601 9.27999V22.72C24.7601 23.017 24.6421 23.3019 24.4321 23.512C24.222 23.722 23.9371 23.84 23.6401 23.84H3.48011C3.18306 23.84 2.89819 23.722 2.68815 23.512C2.47811 23.3019 2.36011 23.017 2.36011 22.72V4.79999C2.36011 4.50295 2.47811 4.21807 2.68815 4.00803C2.89819 3.79799 3.18306 3.67999 3.48011 3.67999H20.2801V8.15999ZM4.60011 10.4V21.6H22.5201V10.4H4.60011ZM4.60011 5.91999V8.15999H18.0401V5.91999H4.60011ZM16.9201 14.88H20.2801V17.12H16.9201V14.88Z" fill="#808080"/>
</svg>
