<svg width="28" height="28" viewBox="0 0 28 28" fill="none" xmlns="http://www.w3.org/2000/svg">
<mask id="mask0_458_4442" style="mask-type:alpha" maskUnits="userSpaceOnUse" x="0" y="0" width="28" height="28">
<rect x="0.840088" y="0.319977" width="26.88" height="26.88" fill="#D9D9D9"/>
</mask>
<g mask="url(#mask0_458_4442)">
<path d="M13.8082 13.9286C12.2684 13.9286 10.9891 13.4192 9.97039 12.4005C8.95168 11.3818 8.44232 10.1025 8.44232 8.56274C8.44232 7.02297 8.95168 5.74373 9.97039 4.72501C10.9891 3.70627 12.2684 3.1969 13.8082 3.1969C15.3479 3.1969 16.6272 3.70627 17.6459 4.72501C18.6646 5.74373 19.174 7.02297 19.174 8.56274C19.174 10.1025 18.6646 11.3818 17.6459 12.4005C16.6272 13.4192 15.3479 13.9286 13.8082 13.9286ZM2.60986 25.1502V21.6507C2.60986 20.7953 2.82566 20.0468 3.25726 19.4053C3.68887 18.7637 4.25073 18.2757 4.94285 17.9413C6.46706 17.2336 7.95627 16.7029 9.41048 16.349C10.8647 15.9952 12.3306 15.8183 13.8082 15.8183C15.2857 15.8183 16.7477 15.9991 18.1941 16.3607C19.6406 16.7223 21.1253 17.2507 22.6483 17.9459C23.3606 18.2822 23.9318 18.7699 24.3616 19.409C24.7915 20.0481 25.0064 20.7953 25.0064 21.6507V25.1502H2.60986ZM4.94282 22.8172H22.6735V21.6507C22.6735 21.3164 22.5782 21.0014 22.3877 20.7059C22.1972 20.4104 21.958 20.1887 21.6703 20.041C20.2549 19.3489 18.9213 18.8609 17.6692 18.5771C16.4172 18.2932 15.1302 18.1513 13.8082 18.1513C12.4861 18.1513 11.1913 18.2932 9.92375 18.5771C8.65617 18.8609 7.32249 19.3489 5.9227 20.041C5.63495 20.1887 5.39971 20.4104 5.21697 20.7059C5.0342 21.0014 4.94282 21.3164 4.94282 21.6507V22.8172ZM13.8082 11.5956C14.6714 11.5956 15.3926 11.3059 15.972 10.7266C16.5513 10.1472 16.841 9.42594 16.841 8.56274C16.841 7.69953 16.5513 6.97826 15.972 6.39891C15.3926 5.81954 14.6714 5.52985 13.8082 5.52985C12.945 5.52985 12.2237 5.81954 11.6443 6.39891C11.065 6.97826 10.7753 7.69953 10.7753 8.56274C10.7753 9.42594 11.065 10.1472 11.6443 10.7266C12.2237 11.3059 12.945 11.5956 13.8082 11.5956Z" fill="#808080"/>
</g>
</svg>
