<svg width="30" height="30" viewBox="0 0 30 30" fill="none" xmlns="http://www.w3.org/2000/svg">
<path d="M30 15C30 23.2843 23.2843 30 15 30C6.71573 30 0 23.2843 0 15C0 6.71573 6.71573 0 15 0C23.2843 0 30 6.71573 30 15Z" fill="#A6FFD5"/>
<rect width="30" height="30" rx="5" fill="#A6FFD4"/>
<path d="M11.6642 15.3661H14.2605V16.2402H11.6642V15.3661Z" fill="#F6F6F6"/>
<path d="M6.75409 13.0787V11.9216H15.4173V14.5179H6.75409V13.0787Z" fill="#A6FFD5"/>
<path d="M14.2605 16.2403V15.3662H11.6642V16.2403H14.2605ZM15.4173 14.5179V17.3971H6.78009V14.5179H15.4173ZM8.21932 15.9319H7.65417V16.4973H8.21932V15.9319ZM8.50228 16.523H9.06769V15.9576H8.50228V16.523ZM9.37637 15.9319V16.4973H9.94177V15.9319H9.37637Z" fill="#A6FFD5"/>
<path d="M16.4457 20.4562C16.4457 20.2249 16.2402 20.0194 16.0086 20.0194C15.7517 20.0194 15.5719 20.2249 15.5719 20.4562C15.5719 20.6877 15.7771 20.8932 16.0086 20.8932C16.2656 20.8932 16.4457 20.7134 16.4457 20.4562ZM20.6358 19.4537V20.3275C20.6358 20.9446 20.1219 21.4589 19.479 21.4589H12.538C11.8957 21.4589 11.3812 20.9446 11.3812 20.3275V19.4537H20.6358Z" fill="#A6FFD5"/>
<path d="M20.6358 8.81113V9.68497H11.4072V8.81113C11.4072 8.19428 11.9212 7.68006 12.564 7.68006H19.5048C20.0959 7.68006 20.6358 8.19428 20.6358 8.81113Z" fill="#A6FFD5"/>
<path d="M20.6358 9.68492V19.4537H11.4072V17.3714H12.2556V18.5796H19.762V10.5333H12.2556V11.9216H11.4072V9.68492H20.6358Z" fill="#F6F6F6"/>
<path d="M19.762 10.5332V18.5796H12.2556V17.3713H15.4172V14.5178V11.9215H12.2556V10.5332H19.762Z" fill="#F6F6F6"/>
<path d="M16.0087 20.0194C16.2657 20.0194 16.4457 20.2249 16.4457 20.4562C16.4457 20.6877 16.2402 20.8932 16.0087 20.8932C15.7517 20.8932 15.5719 20.6877 15.5719 20.4562C15.5719 20.2249 15.7772 20.0194 16.0087 20.0194Z" fill="#00D26E"/>
<path d="M9.37634 15.9319H9.94174V16.4973H9.37634V15.9319Z" fill="#00D26E"/>
<path d="M8.50226 15.9319H9.06767V16.4973H8.50226V15.9319Z" fill="#00D26E"/>
<path d="M7.62817 15.9319H8.19383V16.4973H7.62817V15.9319Z" fill="#00D26E"/>
<path d="M19.479 21.6388H12.538C11.8183 21.6388 11.2272 21.0477 11.2272 20.3277V17.3715C11.2272 17.2943 11.3043 17.2174 11.3813 17.2174C11.4584 17.2174 11.5359 17.2943 11.5359 17.3715V20.3277C11.5359 20.8679 11.9729 21.3046 12.5126 21.3046H19.4533C19.9933 21.3046 20.4303 20.8679 20.4303 20.3277V8.8112C20.4303 8.27152 19.9933 7.83448 19.4533 7.83448H12.538C11.9984 7.83448 11.5613 8.27152 11.5613 8.8112V11.9217C11.5613 11.9989 11.4844 12.076 11.4072 12.076C11.3301 12.076 11.2529 11.9989 11.2529 11.9217V8.8112C11.2529 8.09146 11.8443 7.50007 12.564 7.50007H19.5048C20.2245 7.50007 20.8156 8.09146 20.8156 8.8112V20.3277C20.7902 21.0477 20.1988 21.6388 19.479 21.6388Z" fill="#00D26E"/>
<path d="M20.6358 9.83951H11.4072C11.33 9.83951 11.2529 9.76209 11.2529 9.68492C11.2529 9.608 11.33 9.53083 11.4072 9.53083H20.6358C20.713 9.53083 20.7902 9.608 20.7902 9.68492C20.7902 9.76209 20.713 9.83951 20.6358 9.83951Z" fill="#00D26E"/>
<path d="M20.6358 19.6078H11.4072C11.33 19.6078 11.2529 19.5309 11.2529 19.4537C11.2529 19.3766 11.33 19.2994 11.4072 19.2994H20.6358C20.713 19.2994 20.7902 19.3766 20.7902 19.4537C20.7902 19.5564 20.713 19.6078 20.6358 19.6078Z" fill="#00D26E"/>
<path d="M16.8828 8.86255H15.1603C15.0834 8.86255 15.0062 8.78538 15.0062 8.70821C15.0062 8.63129 15.0834 8.55412 15.1603 8.55412H16.8828C16.9599 8.55412 17.0368 8.63129 17.0368 8.70821C17.0368 8.78538 16.9599 8.86255 16.8828 8.86255Z" fill="#00D26E"/>
<path d="M19.762 18.7594H12.2556C12.1784 18.7594 12.1013 18.6825 12.1013 18.6053V17.3971C12.1013 17.3199 12.1784 17.2427 12.2556 17.2427C12.3328 17.2427 12.4097 17.3199 12.4097 17.3971V18.451H19.6077V10.7133H12.4097V11.9215C12.4097 11.9987 12.3328 12.0759 12.2556 12.0759C12.1784 12.0759 12.1013 11.9987 12.1013 11.9215V10.5332C12.1013 10.4563 12.1784 10.3792 12.2556 10.3792H19.7875C19.8646 10.3792 19.9418 10.4563 19.9418 10.5332V18.5796C19.9418 18.6825 19.8646 18.7594 19.762 18.7594Z" fill="#00D26E"/>
<path d="M6.93413 17.2174H15.2632V12.076H6.93413V17.2174ZM15.4173 17.5515H6.75407C6.67715 17.5515 6.59998 17.4743 6.59998 17.3972V11.9216C6.59998 11.8445 6.67715 11.7673 6.75407 11.7673H15.4173C15.4944 11.7673 15.5719 11.8445 15.5719 11.9216V17.3714C15.5973 17.4743 15.5202 17.5515 15.4173 17.5515Z" fill="#00D26E"/>
<path d="M11.8443 16.0605H14.1321V15.5203H11.8443V16.0605ZM14.2605 16.3947H11.6642C11.5871 16.3947 11.5099 16.3175 11.5099 16.2403V15.3663C11.5099 15.2891 11.5871 15.2122 11.6642 15.2122H14.2605C14.3379 15.2122 14.4151 15.2891 14.4151 15.3663V16.2403C14.4406 16.3175 14.3634 16.3947 14.2605 16.3947Z" fill="#00D26E"/>
<path d="M13.6951 13.2328H6.75407C6.67715 13.2328 6.59998 13.1556 6.59998 13.0787C6.59998 13.0013 6.67715 12.9241 6.75407 12.9241H13.6951C13.7722 12.9241 13.8494 13.0013 13.8494 13.0787C13.8494 13.1556 13.7722 13.2328 13.6951 13.2328Z" fill="#00D26E"/>
<path d="M15.4173 14.6722H6.75407C6.67715 14.6722 6.59998 14.5953 6.59998 14.5179C6.59998 14.4407 6.67715 14.3638 6.75407 14.3638H15.4173C15.4944 14.3638 15.5719 14.4407 15.5719 14.5179C15.5719 14.5953 15.5202 14.6722 15.4173 14.6722Z" fill="#00D26E"/>
</svg>
