<svg width="28" height="28" viewBox="0 0 28 28" fill="none" xmlns="http://www.w3.org/2000/svg">
<path d="M21.76 24.9599H6.07997C5.18884 24.9599 4.33421 24.6059 3.70409 23.9758C3.07397 23.3457 2.71997 22.4911 2.71997 21.5999V3.67994C2.71997 3.38289 2.83797 3.09802 3.04801 2.88798C3.25805 2.67794 3.54293 2.55994 3.83997 2.55994H19.52C19.817 2.55994 20.1019 2.67794 20.3119 2.88798C20.522 3.09802 20.64 3.38289 20.64 3.67994V17.1199H25.12V21.5999C25.12 22.4911 24.766 23.3457 24.1358 23.9758C23.5057 24.6059 22.6511 24.9599 21.76 24.9599ZM20.64 19.3599V21.5999C20.64 21.897 20.758 22.1819 20.968 22.3919C21.178 22.6019 21.4629 22.7199 21.76 22.7199C22.057 22.7199 22.3419 22.6019 22.5519 22.3919C22.762 22.1819 22.88 21.897 22.88 21.5999V19.3599H20.64ZM18.4 22.7199V4.79994H4.95997V21.5999C4.95997 21.897 5.07797 22.1819 5.28801 22.3919C5.49805 22.6019 5.78293 22.7199 6.07997 22.7199H18.4ZM7.19997 8.15994H16.16V10.3999H7.19997V8.15994ZM7.19997 12.6399H16.16V14.8799H7.19997V12.6399ZM7.19997 17.1199H12.8V19.3599H7.19997V17.1199Z" fill="#808080"/>
</svg>
