<svg width="30" height="30" viewBox="0 0 30 30" fill="none" xmlns="http://www.w3.org/2000/svg">
<path d="M30 15C30 23.2843 23.2843 30 15 30C6.71573 30 0 23.2843 0 15C0 6.71573 6.71573 0 15 0C23.2843 0 30 6.71573 30 15Z" fill="#FFC9D9"/>
<rect width="30" height="30" rx="5" fill="#FFC9D9"/>
<path d="M11.7075 15.4781V16.3266H9.70227V14.6041H11.7075V15.4781Z" fill="#F6F6F6"/>
<path d="M20.0879 15.3756V16.3266H18.0828V14.6041H20.0879V15.2984V15.3756Z" fill="#F6F6F6"/>
<path d="M11.7075 13.7558V14.6041H9.70227V13.7558H9.98503H11.4246H11.7075Z" fill="#F6F6F6"/>
<path d="M20.0879 13.7558V14.6041H18.0828V13.7558H18.3655H19.805H20.0879Z" fill="#F6F6F6"/>
<path d="M18.3655 16.3266H19.805V20.3369H18.3655V16.3266Z" fill="#F6F6F6"/>
<path d="M11.4246 18.6402V20.3626H9.98499V16.3266H11.4246V18.6402Z" fill="#F6F6F6"/>
<path d="M18.3655 10.5938H19.805V13.7558H18.3655V10.5938Z" fill="#F6F6F6"/>
<path d="M9.98499 10.5938H11.4246V13.7558H9.98499V10.5938Z" fill="#F6F6F6"/>
<path d="M18.0828 14.6041V16.3266H18.3655V20.3626H11.4246V18.6402V16.3266H11.7074V15.4781H18.0568L18.0828 13.7558V14.6041Z" fill="#FFC9D9"/>
<path d="M14.021 14.6041V14.0387H13.4554V14.6041H14.021ZM15.1778 14.6041V14.0387H14.6122V14.6041H15.1778ZM16.3346 14.6041V14.0387H15.7692V14.6041H16.3346ZM18.3655 10.5938V13.7557H18.0828V15.4781H11.7074V14.6041V13.7303H11.4246V10.5938H12.2986H17.4914H18.3655Z" fill="#FFC9D9"/>
<path d="M20.088 16.3266V15.3496C21.0904 15.0412 21.8102 14.1157 21.8102 13.0106V20.3369H19.7793V16.3266H20.088Z" fill="#FFC9D9"/>
<path d="M9.98498 16.3266V20.3369H7.95422V13.036C7.95422 14.1157 8.69959 15.0669 9.67647 15.3756V16.3523L9.98498 16.3266Z" fill="#FFC9D9"/>
<path d="M9.98503 10.5938V13.7558H9.70228V15.3756C8.69965 15.0669 7.97985 14.1416 7.97985 13.036V10.5938C7.95428 10.5938 9.98503 10.5938 9.98503 10.5938Z" fill="#FFC9D9"/>
<path d="M21.836 10.5938V13.036C21.836 14.1414 21.1162 15.0669 20.1135 15.3756V15.3241V14.6299V13.7558H19.8308V10.5938H21.836Z" fill="#FFC9D9"/>
<path d="M15.7693 14.0387H16.3347V14.6041H15.7693V14.0387Z" fill="#FD739B"/>
<path d="M14.6122 14.0387H15.1778V14.6041H14.6122V14.0387Z" fill="#FD739B"/>
<path d="M13.4554 14.0387H14.021V14.6041H13.4554V14.0387Z" fill="#FD739B"/>
<path d="M20.0879 15.4525C20.0108 15.4525 19.9336 15.3756 19.9336 15.2984V13.9101H19.805C19.7278 13.9101 19.6506 13.8329 19.6506 13.7558C19.6506 13.6788 19.7278 13.6017 19.805 13.6017H20.0879C20.1391 13.6017 20.1649 13.6271 20.1906 13.6531C20.2163 13.6788 20.242 13.7303 20.242 13.7558V15.2984C20.242 15.401 20.1906 15.4525 20.0879 15.4525Z" fill="#FD739B"/>
<path d="M19.805 16.5064C19.7278 16.5064 19.6506 16.4293 19.6506 16.3523C19.6506 16.2751 19.7278 16.198 19.805 16.198H19.9336V15.3756C19.9336 15.2984 20.0108 15.221 20.0879 15.221C20.1648 15.221 20.242 15.2984 20.242 15.3756V16.3523C20.242 16.4293 20.1648 16.5064 20.0879 16.5064H19.805Z" fill="#FD739B"/>
<path d="M21.8359 20.5167H19.805C19.7278 20.5167 19.6506 20.4395 19.6506 20.3626C19.6506 20.2854 19.7278 20.2083 19.805 20.2083H21.6558V13.036C21.6558 12.9588 21.733 12.8819 21.8101 12.8819C21.8873 12.8819 21.9645 12.9588 21.9645 13.036V20.3626C21.9902 20.4395 21.913 20.5167 21.8359 20.5167Z" fill="#FD739B"/>
<path d="M18.3655 20.5167H11.4246C11.3475 20.5167 11.2704 20.4395 11.2704 20.3626C11.2704 20.2854 11.3475 20.2083 11.4246 20.2083H18.3655C18.4427 20.2083 18.5196 20.2854 18.5196 20.3626C18.5196 20.4395 18.4427 20.5167 18.3655 20.5167Z" fill="#FD739B"/>
<path d="M18.3655 16.5064H18.0828C18.0311 16.5064 18.0056 16.4809 17.9799 16.4552C17.9542 16.4293 17.9285 16.378 17.9285 16.3523V13.7558C17.9285 13.6789 18.0056 13.6017 18.0828 13.6017C18.1597 13.6017 18.2369 13.6789 18.2369 13.7558V16.1725H18.3655C18.4427 16.1725 18.5196 16.2494 18.5196 16.3266C18.5196 16.4038 18.4427 16.5064 18.3655 16.5064Z" fill="#FD739B"/>
<path d="M9.98509 20.5167H7.95434C7.87724 20.5167 7.80005 20.4395 7.80005 20.3626V13.036C7.80005 12.9588 7.87724 12.8819 7.95434 12.8819C8.03146 12.8819 8.10855 12.9588 8.10855 13.036V20.2083H9.95932C10.0366 20.2083 10.1137 20.2854 10.1137 20.3626C10.1393 20.4395 10.088 20.5167 9.98509 20.5167Z" fill="#FD739B"/>
<path d="M17.4914 10.7481C17.4143 10.7481 17.3371 10.671 17.3371 10.5938V9.30839H12.4529V10.5938C12.4529 10.671 12.3757 10.7481 12.2986 10.7481C12.2215 10.7481 12.1444 10.671 12.1444 10.5938V9.15431C12.1444 9.07713 12.2215 8.99996 12.2986 8.99996H17.4914C17.5686 8.99996 17.6458 9.07713 17.6458 9.15431V10.5938C17.6458 10.671 17.5943 10.7481 17.4914 10.7481Z" fill="#FD739B"/>
<path d="M11.4246 20.5167H9.98503C9.90793 20.5167 9.83081 20.4395 9.83081 20.3626V16.3522C9.83081 16.2751 9.90793 16.1979 9.98503 16.1979C10.0621 16.1979 10.1392 16.2751 10.1392 16.3522V20.2083H11.2704V16.3522C11.2704 16.2751 11.3475 16.1979 11.4246 16.1979C11.5017 16.1979 11.5788 16.2751 11.5788 16.3522V20.3626C11.5788 20.4395 11.5275 20.5167 11.4246 20.5167Z" fill="#FD739B"/>
<path d="M11.4246 10.7481H9.98503C9.90793 10.7481 9.83081 10.671 9.83081 10.5938C9.83081 10.5169 9.90793 10.4397 9.98503 10.4397H11.4246C11.5017 10.4397 11.5788 10.5169 11.5788 10.5938C11.5788 10.671 11.5275 10.7481 11.4246 10.7481Z" fill="#FD739B"/>
<path d="M20.088 15.5297C20.062 15.5297 20.0108 15.5297 19.9851 15.5039C19.9337 15.4781 19.9079 15.4268 19.9079 15.3756V13.9101H19.7793C19.7022 13.9101 19.6252 13.8329 19.6252 13.7558C19.6252 13.6789 19.7022 13.6017 19.7793 13.6017H20.062C20.1392 13.6017 20.2164 13.6789 20.2164 13.7558V15.1441C21.0647 14.7839 21.6304 13.9616 21.6304 13.036V10.7482H19.7793C19.7022 10.7482 19.6252 10.671 19.6252 10.5938C19.6252 10.5169 19.7022 10.4397 19.7793 10.4397H21.8102C21.8874 10.4397 21.9645 10.5169 21.9645 10.5938V13.036C21.9645 13.6017 21.7845 14.1416 21.4503 14.6041C21.1162 15.0412 20.6534 15.3756 20.1392 15.5297C20.1135 15.5297 20.1135 15.5297 20.088 15.5297Z" fill="#FD739B"/>
<path d="M9.70234 15.5297C9.67659 15.5297 9.67659 15.5297 9.65102 15.5297C8.57127 15.1955 7.80005 14.1673 7.80005 13.036V10.5938C7.80005 10.5169 7.87724 10.4397 7.95434 10.4397H9.98509C10.0622 10.4397 10.1393 10.5169 10.1393 10.5938V13.7558C10.1393 13.8329 10.0622 13.9101 9.98509 13.9101C9.908 13.9101 9.83088 13.8329 9.83088 13.7558V10.7482H8.13433V13.036C8.13433 14.013 8.80258 14.9126 9.75378 15.221C9.83088 15.247 9.88232 15.3496 9.85655 15.4268C9.83088 15.4781 9.77945 15.5297 9.70234 15.5297Z" fill="#FD739B"/>
<path d="M11.4246 13.9101C11.3475 13.9101 11.2704 13.8329 11.2704 13.7557V10.5938C11.2704 10.5169 11.3475 10.4397 11.4246 10.4397H18.3655C18.4427 10.4397 18.5196 10.5169 18.5196 10.5938C18.5196 10.6709 18.4427 10.7481 18.3655 10.7481H11.5788V13.7557C11.5788 13.8329 11.5274 13.9101 11.4246 13.9101Z" fill="#FD739B"/>
<path d="M18.0568 15.6322H11.7074C11.6303 15.6322 11.5532 15.5553 11.5532 15.4781C11.5532 15.401 11.6303 15.3241 11.7074 15.3241H17.9027V13.7557C17.9027 13.6788 17.9799 13.6017 18.0568 13.6017H18.3655C18.4427 13.6017 18.5196 13.6788 18.5196 13.7557C18.5196 13.8329 18.4427 13.9101 18.3655 13.9101H18.2369V15.4781C18.2369 15.5553 18.1597 15.6322 18.0568 15.6322Z" fill="#FD739B"/>
<path d="M18.5196 20.2083H19.6507V16.5064H18.5196V20.2083ZM19.805 20.5167H18.3655C18.2884 20.5167 18.2112 20.4395 18.2112 20.3626V16.3266C18.2112 16.2494 18.2884 16.1725 18.3655 16.1725H19.805C19.8822 16.1725 19.9594 16.2494 19.9594 16.3266V20.3369C19.9594 20.4395 19.8822 20.5167 19.805 20.5167Z" fill="#FD739B"/>
<path d="M18.5196 13.6016H19.6507V10.7738H18.5196V13.6016ZM19.805 13.9101H18.3655C18.2884 13.9101 18.2112 13.8329 18.2112 13.7557V10.5938C18.2112 10.5169 18.2884 10.4397 18.3655 10.4397H19.805C19.8822 10.4397 19.9594 10.5169 19.9594 10.5938V13.7557C19.9594 13.8329 19.8822 13.9101 19.805 13.9101Z" fill="#FD739B"/>
<path d="M9.85652 16.1725H11.5533V13.9101H9.85652V16.1725ZM11.7075 16.5064H9.67655C9.59943 16.5064 9.52234 16.4293 9.52234 16.3523V13.7558C9.52234 13.6789 9.59943 13.6017 9.67655 13.6017H11.7075C11.7846 13.6017 11.8617 13.6789 11.8617 13.7558V16.3523C11.8873 16.4293 11.8103 16.5064 11.7075 16.5064Z" fill="#FD739B"/>
<path d="M11.7075 14.7839H9.67655C9.59943 14.7839 9.52234 14.707 9.52234 14.6298C9.52234 14.5527 9.59943 14.4758 9.67655 14.4758H11.7075C11.7846 14.4758 11.8617 14.5527 11.8617 14.6298C11.8873 14.707 11.8103 14.7839 11.7075 14.7839Z" fill="#FD739B"/>
<path d="M20.0881 14.7839H18.0569C17.98 14.7839 17.9028 14.707 17.9028 14.6298C17.9028 14.5527 17.98 14.4758 18.0569 14.4758H20.0881C20.165 14.4758 20.2421 14.5527 20.2421 14.6298C20.2421 14.707 20.1907 14.7839 20.0881 14.7839Z" fill="#FD739B"/>
<path d="M16.926 18.7945H11.4246C11.3475 18.7945 11.2704 18.7174 11.2704 18.6402C11.2704 18.563 11.3475 18.4861 11.4246 18.4861H16.9C16.9772 18.4861 17.0544 18.563 17.0544 18.6402C17.0801 18.7174 17.0029 18.7945 16.926 18.7945Z" fill="#FD739B"/>
</svg>
