<svg width="30" height="29" viewBox="0 0 30 29" fill="none" xmlns="http://www.w3.org/2000/svg">
<path d="M3.9542 23.4683L2.51471 28.61L1.02325 23.4683H3.9542Z" fill="#F6F6F6"/>
<path d="M1.6402 1.05218H3.38838V3.36577H1.6402V1.05218Z" fill="#F6F6F6"/>
<path d="M3.9542 3.31418V8.50674H1.02325V3.31418H1.64011H3.33684H3.9542Z" fill="#F6F6F6"/>
<path d="M1.02325 8.50699H3.90275V23.4684H1.02325V8.50699Z" fill="#F6F6F6"/>
<path d="M20.0979 9.07228V7.94146H18.9671V9.07228H20.0979ZM22.4115 9.07228V7.94146H21.2801V9.07228H22.4115ZM24.725 9.07228V7.94146H23.5937V9.07228H24.725ZM26.4732 3.3143V10.769H7.96405V3.3143H26.4732Z" fill="#F6F6F6"/>
<path d="M15.4708 22.8514H18.9152V26.2963H15.4708V22.8514Z" fill="#F6F6F6"/>
<path d="M9.71283 17.7097H13.1572V21.1546H9.71283V17.7097Z" fill="#F6F6F6"/>
<path d="M21.2802 17.7097H24.725V21.1546H21.2802V17.7097Z" fill="#F6F6F6"/>
<path d="M15.4708 12.517H18.9152V15.962H15.4708V12.517Z" fill="#F6F6F6"/>
<path d="M13.1571 15.962V12.5171H9.71272V15.962H13.1571ZM13.1571 21.1545V17.7096H9.71272V21.1545H13.1571ZM13.1571 26.3471V22.9027H9.71272V26.3471H13.1571ZM18.967 15.962V12.5171H15.5221V15.962H18.967ZM18.967 21.1545V17.7096H15.5221V21.1545H18.967ZM18.967 26.3471V22.9027H15.5221V26.3471H18.967ZM24.725 15.962V12.5171H21.2801V15.962H24.725ZM24.725 26.3471V17.7096H21.2801V26.3471H24.725ZM26.4732 10.8203V3.31419H7.96403V10.7689H26.4732V10.8203ZM28.7868 1.05204V28.6607H5.65045V1.05204H28.7868Z" fill="#FFDEBB"/>
<path d="M23.5428 7.94135H24.6736V9.07217H23.5428V7.94135Z" fill="#FA9F3C"/>
<path d="M21.2802 21.1545H24.725V26.3471H21.2802V21.1545Z" fill="#F6F6F6"/>
<path d="M21.2802 12.517H24.725V15.962H21.2802V12.517Z" fill="#F6F6F6"/>
<path d="M21.2802 7.94135H22.4115V9.07217H21.2802V7.94135Z" fill="#FA9F3C"/>
<path d="M18.9671 7.94135H20.0979V9.07217H18.9671V7.94135Z" fill="#FA9F3C"/>
<path d="M15.4708 17.7097H18.9152V21.1546H15.4708V17.7097Z" fill="#F6F6F6"/>
<path d="M9.71283 22.8514H13.1572V26.2963H9.71283V22.8514Z" fill="#F6F6F6"/>
<path d="M9.71283 12.517H13.1572V15.962H9.71283V12.517Z" fill="#F6F6F6"/>
<path d="M6.01065 28.3011H28.4782V1.36072H6.01065V28.3011ZM28.7868 28.9694H5.65052C5.49669 28.9694 5.34235 28.815 5.34235 28.6607V1.05204C5.34235 0.897699 5.49669 0.743367 5.65052 0.743367H28.7354C28.8897 0.743367 29.0441 0.897699 29.0441 1.05204V28.6607C29.0955 28.815 28.9412 28.9694 28.7868 28.9694Z" fill="#FA9F3C"/>
<path d="M8.27279 10.4607H26.1131V3.67433H8.27279V10.4607ZM26.4733 11.1295H7.96411C7.81028 11.1295 7.65594 10.9747 7.65594 10.8204V3.31421C7.65594 3.15987 7.81028 3.00553 7.96411 3.00553H26.4733C26.6276 3.00553 26.782 3.15987 26.782 3.31421V10.7689C26.782 10.9747 26.6276 11.1295 26.4733 11.1295Z" fill="#FA9F3C"/>
<path d="M10.0209 15.6534H12.8484V12.8259H10.0209V15.6534ZM13.1571 16.3222H9.71268C9.55834 16.3222 9.40399 16.1674 9.40399 16.013V12.5172C9.40399 12.3629 9.55834 12.209 9.71268 12.209H13.1571C13.3114 12.209 13.4657 12.3629 13.4657 12.5172V15.9621C13.5167 16.1674 13.3629 16.3222 13.1571 16.3222Z" fill="#FA9F3C"/>
<path d="M15.7795 15.6534H18.607V12.8259H15.7795V15.6534ZM18.9671 16.3222H15.5222C15.3679 16.3222 15.2136 16.1674 15.2136 16.013V12.5172C15.2136 12.3629 15.3679 12.209 15.5222 12.209H18.9671C19.121 12.209 19.2753 12.3629 19.2753 12.5172V15.9621C19.2753 16.1674 19.121 16.3222 18.9671 16.3222Z" fill="#FA9F3C"/>
<path d="M21.5888 15.6534H24.4169V12.8259H21.5888V15.6534ZM24.7251 16.3222H21.2802C21.1263 16.3222 20.972 16.1674 20.972 16.013V12.5172C20.972 12.3629 21.1263 12.209 21.2802 12.209H24.7251C24.8794 12.209 25.0337 12.3629 25.0337 12.5172V15.9621C25.0337 16.1674 24.8794 16.3222 24.7251 16.3222Z" fill="#FA9F3C"/>
<path d="M10.0209 20.8464H12.8484V18.0184H10.0209V20.8464ZM13.1571 21.4633H9.71268C9.55834 21.4633 9.40399 21.3089 9.40399 21.1546V17.7097C9.40399 17.5559 9.55834 17.4015 9.71268 17.4015H13.1571C13.3114 17.4015 13.4657 17.5559 13.4657 17.7097V21.1546C13.5167 21.3089 13.3629 21.4633 13.1571 21.4633Z" fill="#FA9F3C"/>
<path d="M15.7795 20.8464H18.607V18.0184H15.7795V20.8464ZM18.9671 21.4633H15.5222C15.3679 21.4633 15.2136 21.3089 15.2136 21.1546V17.7097C15.2136 17.5559 15.3679 17.4015 15.5222 17.4015H18.9671C19.121 17.4015 19.2753 17.5559 19.2753 17.7097V21.1546C19.2753 21.3089 19.121 21.4633 18.9671 21.4633Z" fill="#FA9F3C"/>
<path d="M24.7251 21.4633H21.2802C21.1263 21.4633 20.972 21.3089 20.972 21.1546C20.972 21.0003 21.1263 20.8464 21.2802 20.8464H24.7251C24.8794 20.8464 25.0337 21.0003 25.0337 21.1546C25.0337 21.3089 24.8794 21.4633 24.7251 21.4633Z" fill="#FA9F3C"/>
<path d="M10.0209 25.9875H12.8484V23.16H10.0209V25.9875ZM13.1571 26.6559H9.71268C9.55834 26.6559 9.40399 26.5015 9.40399 26.3472V22.9028C9.40399 22.7484 9.55834 22.5941 9.71268 22.5941H13.1571C13.3114 22.5941 13.4657 22.7484 13.4657 22.9028V26.3472C13.5167 26.5015 13.3629 26.6559 13.1571 26.6559Z" fill="#FA9F3C"/>
<path d="M15.7795 25.9875H18.607V23.16H15.7795V25.9875ZM18.9671 26.6559H15.5222C15.3679 26.6559 15.2136 26.5015 15.2136 26.3472V22.9028C15.2136 22.7484 15.3679 22.5941 15.5222 22.5941H18.9671C19.121 22.5941 19.2753 22.7484 19.2753 22.9028V26.3472C19.2753 26.5015 19.121 26.6559 18.9671 26.6559Z" fill="#FA9F3C"/>
<path d="M21.5888 25.9875H24.4169V18.0184H21.5888V25.9875ZM24.7251 26.6559H21.2802C21.1263 26.6559 20.972 26.5015 20.972 26.3472V17.7097C20.972 17.5559 21.1263 17.4015 21.2802 17.4015H24.7251C24.8794 17.4015 25.0337 17.5559 25.0337 17.7097V26.3472C25.0337 26.5015 24.8794 26.6559 24.7251 26.6559Z" fill="#FA9F3C"/>
<path d="M1.02337 23.7769C0.869541 23.7769 0.71521 23.6226 0.71521 23.4682V8.50685C0.71521 8.35251 0.869541 8.19868 1.02337 8.19868C1.17771 8.19868 1.33206 8.35251 1.33206 8.50685V23.4682C1.3835 23.6226 1.22916 23.7769 1.02337 23.7769Z" fill="#FA9F3C"/>
<path d="M3.95431 23.7769C3.79997 23.7769 3.64563 23.6226 3.64563 23.4682V8.50685C3.64563 8.35251 3.79997 8.19868 3.95431 8.19868C4.10865 8.19868 4.26249 8.35251 4.26249 8.50685V23.4682C4.26249 23.6226 4.10865 23.7769 3.95431 23.7769Z" fill="#FA9F3C"/>
<path d="M1.48635 23.7768L2.51478 27.4275L3.5427 23.7768H1.48635ZM2.51478 28.9694C2.35993 28.9694 2.25755 28.867 2.2061 28.7126L0.76661 23.5201C0.715163 23.4172 0.766611 23.3138 0.818058 23.2628C0.869504 23.2109 0.971879 23.1599 1.07528 23.1599H3.95427C4.05716 23.1599 4.15955 23.2109 4.211 23.2628C4.26244 23.3652 4.31389 23.4681 4.26244 23.5201L2.82295 28.7126C2.7715 28.867 2.61716 28.9694 2.51478 28.9694Z" fill="#FA9F3C"/>
<path d="M3.9542 8.81552H1.07521C0.920362 8.81552 0.766541 8.66118 0.766541 8.50684V3.31427C0.766541 3.15993 0.920362 3.00559 1.07521 3.00559H1.64011C1.79496 3.00559 1.9488 3.15993 1.9488 3.31427C1.9488 3.4681 1.79496 3.62244 1.64011 3.62244H1.38339V8.14722H3.64552V3.62244H3.33685C3.18301 3.62244 3.02867 3.4681 3.02867 3.31427C3.02867 3.15993 3.18301 3.00559 3.33685 3.00559H3.90275C4.05709 3.00559 4.21093 3.15993 4.21093 3.31427V8.50684C4.26238 8.71262 4.10854 8.81552 3.9542 8.81552Z" fill="#FA9F3C"/>
<path d="M1.94895 3.00563H3.02882V1.36086H1.94895V3.00563ZM3.33699 3.67444H1.58932C1.43498 3.67444 1.28064 3.52011 1.28064 3.36577V1.05218C1.28064 0.897836 1.43498 0.743505 1.58932 0.743505H3.33699C3.49133 0.743505 3.64566 0.897836 3.64566 1.05218V3.36577C3.69711 3.52011 3.54278 3.67444 3.33699 3.67444Z" fill="#FA9F3C"/>
</svg>
