<svg xmlns="http://www.w3.org/2000/svg" viewBox="0 0 30 30"><defs><style>.cls-1{fill:#212121;}</style></defs><g id="Layer_2" data-name="Layer 2"><g id="_20_Bank_Line_Icon_Set" data-name="20 Bank Line Icon Set"><g id="Target"><path class="cls-1" d="M15,28A13,13,0,1,1,28,15,13,13,0,0,1,15,28ZM15,4A11,11,0,1,0,26,15,11,11,0,0,0,15,4Z"/><path class="cls-1" d="M29,16H22a1,1,0,0,1,0-2h7a1,1,0,0,1,0,2Z"/><path class="cls-1" d="M15,9a1,1,0,0,1-1-1V1a1,1,0,0,1,2,0V8A1,1,0,0,1,15,9Z"/><path class="cls-1" d="M8,16H1a1,1,0,0,1,0-2H8a1,1,0,0,1,0,2Z"/><path class="cls-1" d="M15,30a1,1,0,0,1-1-1V22a1,1,0,0,1,2,0v7A1,1,0,0,1,15,30Z"/><path class="cls-1" d="M15,24a9,9,0,1,1,9-9A9,9,0,0,1,15,24ZM15,8a7,7,0,1,0,7,7A7,7,0,0,0,15,8Z"/><path class="cls-1" d="M15.5,19H13a1,1,0,0,1,0-2h2.5a.5.5,0,0,0,0-1h-1a2.5,2.5,0,0,1,0-5H17a1,1,0,0,1,0,2H14.5a.5.5,0,0,0,0,1h1a2.5,2.5,0,0,1,0,5Z"/><path class="cls-1" d="M15,13a1,1,0,0,1-1-1V11a1,1,0,0,1,2,0v1A1,1,0,0,1,15,13Z"/><path class="cls-1" d="M15,20a1,1,0,0,1-1-1V18a1,1,0,0,1,2,0v1A1,1,0,0,1,15,20Z"/></g></g></g></svg>