<svg width="30" height="30" viewBox="0 0 30 30" fill="none" xmlns="http://www.w3.org/2000/svg">
<path d="M30 15C30 23.2843 23.2843 30 15 30C6.71573 30 0 23.2843 0 15C0 6.71573 6.71573 0 15 0C23.2843 0 30 6.71573 30 15Z" fill="#FFDEBB"/>
<rect width="30" height="30" rx="5" fill="#FFDEBB"/>
<path d="M9.41957 19.1624L8.69983 21.7332L7.9541 19.1624H9.41957Z" fill="#F6F6F6"/>
<path d="M8.26245 7.95435H9.13654V9.11115H8.26245V7.95435Z" fill="#F6F6F6"/>
<path d="M9.41957 9.08536V11.6816H7.9541V9.08536H8.26253H9.1109H9.41957Z" fill="#F6F6F6"/>
<path d="M7.9541 11.6817H9.39385V19.1624H7.9541V11.6817Z" fill="#F6F6F6"/>
<path d="M17.4914 11.9644V11.399H16.9259V11.9644H17.4914ZM18.6481 11.9644V11.399H18.0825V11.9644H18.6481ZM19.8049 11.9644V11.399H19.2393V11.9644H19.8049ZM20.679 9.0854V12.8127H11.4244V9.0854H20.679Z" fill="#F6F6F6"/>
<path d="M15.1779 18.854H16.9001V20.5764H15.1779V18.854Z" fill="#F6F6F6"/>
<path d="M12.2988 16.2831H14.021V18.0056H12.2988V16.2831Z" fill="#F6F6F6"/>
<path d="M18.0825 16.2831H19.805V18.0056H18.0825V16.2831Z" fill="#F6F6F6"/>
<path d="M15.1779 13.6868H16.9001V15.4092H15.1779V13.6868Z" fill="#F6F6F6"/>
<path d="M14.021 15.4092V13.6868H12.2988V15.4092H14.021ZM14.021 18.0055V16.2831H12.2988V18.0055H14.021ZM14.021 20.6018V18.8796H12.2988V20.6018H14.021ZM16.926 15.4092V13.6868H15.2035V15.4092H16.926ZM16.926 18.0055V16.2831H15.2035V18.0055H16.926ZM16.926 20.6018V18.8796H15.2035V20.6018H16.926ZM19.805 15.4092V13.6868H18.0825V15.4092H19.805ZM19.805 20.6018V16.2831H18.0825V20.6018H19.805ZM20.6791 12.8384V9.08535H11.4245V12.8127H20.6791V12.8384ZM21.8359 7.95428V21.7586H10.2677V7.95428H21.8359Z" fill="#FFDEBB"/>
<path d="M19.2139 11.3989H19.7793V11.9644H19.2139V11.3989Z" fill="#FA9F3C"/>
<path d="M18.0825 18.0055H19.805V20.6018H18.0825V18.0055Z" fill="#F6F6F6"/>
<path d="M18.0825 13.6868H19.805V15.4092H18.0825V13.6868Z" fill="#F6F6F6"/>
<path d="M18.0825 11.3989H18.6482V11.9644H18.0825V11.3989Z" fill="#FA9F3C"/>
<path d="M16.9259 11.3989H17.4913V11.9644H16.9259V11.3989Z" fill="#FA9F3C"/>
<path d="M15.1779 16.2831H16.9001V18.0056H15.1779V16.2831Z" fill="#F6F6F6"/>
<path d="M12.2988 18.854H14.021V20.5764H12.2988V18.854Z" fill="#F6F6F6"/>
<path d="M12.2988 13.6868H14.021V15.4092H12.2988V13.6868Z" fill="#F6F6F6"/>
<path d="M10.4478 21.5788H21.6816V8.10861H10.4478V21.5788ZM21.8359 21.9129H10.2677C10.1908 21.9129 10.1136 21.8358 10.1136 21.7586V7.95427C10.1136 7.8771 10.1908 7.79994 10.2677 7.79994H21.8102C21.8873 7.79994 21.9645 7.8771 21.9645 7.95427V21.7586C21.9902 21.8358 21.9131 21.9129 21.8359 21.9129Z" fill="#FA9F3C"/>
<path d="M11.5788 12.6586H20.499V9.26543H11.5788V12.6586ZM20.6791 12.993H11.4245C11.3476 12.993 11.2704 12.9156 11.2704 12.8384V9.08537C11.2704 9.0082 11.3476 8.93103 11.4245 8.93103H20.6791C20.7562 8.93103 20.8334 9.0082 20.8334 9.08537V12.8127C20.8334 12.9156 20.7562 12.993 20.6791 12.993Z" fill="#FA9F3C"/>
<path d="M12.4528 15.255H13.8666V13.8412H12.4528V15.255ZM14.021 15.5894H12.2988C12.2216 15.5894 12.1444 15.5119 12.1444 15.4348V13.6868C12.1444 13.6097 12.2216 13.5328 12.2988 13.5328H14.021C14.0981 13.5328 14.1753 13.6097 14.1753 13.6868V15.4093C14.2008 15.5119 14.1238 15.5894 14.021 15.5894Z" fill="#FA9F3C"/>
<path d="M15.3322 15.255H16.7459V13.8412H15.3322V15.255ZM16.926 15.5894H15.2035C15.1264 15.5894 15.0492 15.5119 15.0492 15.4348V13.6868C15.0492 13.6097 15.1264 13.5328 15.2035 13.5328H16.926C17.0029 13.5328 17.0801 13.6097 17.0801 13.6868V15.4093C17.0801 15.5119 17.0029 15.5894 16.926 15.5894Z" fill="#FA9F3C"/>
<path d="M18.2369 15.255H19.6509V13.8412H18.2369V15.255ZM19.805 15.5894H18.0826C18.0056 15.5894 17.9285 15.5119 17.9285 15.4348V13.6868C17.9285 13.6097 18.0056 13.5328 18.0826 13.5328H19.805C19.8822 13.5328 19.9593 13.6097 19.9593 13.6868V15.4093C19.9593 15.5119 19.8822 15.5894 19.805 15.5894Z" fill="#FA9F3C"/>
<path d="M12.4528 17.8515H13.8666V16.4375H12.4528V17.8515ZM14.021 18.1599H12.2988C12.2216 18.1599 12.1444 18.0827 12.1444 18.0056V16.2831C12.1444 16.2062 12.2216 16.129 12.2988 16.129H14.021C14.0981 16.129 14.1753 16.2062 14.1753 16.2831V18.0056C14.2008 18.0827 14.1238 18.1599 14.021 18.1599Z" fill="#FA9F3C"/>
<path d="M15.3322 17.8515H16.7459V16.4375H15.3322V17.8515ZM16.926 18.1599H15.2035C15.1264 18.1599 15.0492 18.0827 15.0492 18.0056V16.2831C15.0492 16.2062 15.1264 16.129 15.2035 16.129H16.926C17.0029 16.129 17.0801 16.2062 17.0801 16.2831V18.0056C17.0801 18.0827 17.0029 18.1599 16.926 18.1599Z" fill="#FA9F3C"/>
<path d="M19.805 18.1599H18.0826C18.0056 18.1599 17.9285 18.0827 17.9285 18.0056C17.9285 17.9284 18.0056 17.8515 18.0826 17.8515H19.805C19.8822 17.8515 19.9593 17.9284 19.9593 18.0056C19.9593 18.0827 19.8822 18.1599 19.805 18.1599Z" fill="#FA9F3C"/>
<path d="M12.4528 20.422H13.8666V19.0082H12.4528V20.422ZM14.021 20.7562H12.2988C12.2216 20.7562 12.1444 20.679 12.1444 20.6018V18.8796C12.1444 18.8025 12.2216 18.7253 12.2988 18.7253H14.021C14.0981 18.7253 14.1753 18.8025 14.1753 18.8796V20.6018C14.2008 20.679 14.1238 20.7562 14.021 20.7562Z" fill="#FA9F3C"/>
<path d="M15.3322 20.422H16.7459V19.0082H15.3322V20.422ZM16.926 20.7562H15.2035C15.1264 20.7562 15.0492 20.679 15.0492 20.6018V18.8796C15.0492 18.8025 15.1264 18.7253 15.2035 18.7253H16.926C17.0029 18.7253 17.0801 18.8025 17.0801 18.8796V20.6018C17.0801 20.679 17.0029 20.7562 16.926 20.7562Z" fill="#FA9F3C"/>
<path d="M18.2369 20.422H19.6509V16.4374H18.2369V20.422ZM19.805 20.7562H18.0826C18.0056 20.7562 17.9285 20.679 17.9285 20.6018V16.2831C17.9285 16.2062 18.0056 16.129 18.0826 16.129H19.805C19.8822 16.129 19.9593 16.2062 19.9593 16.2831V20.6018C19.9593 20.679 19.8822 20.7562 19.805 20.7562Z" fill="#FA9F3C"/>
<path d="M7.95413 19.3167C7.87721 19.3167 7.80005 19.2395 7.80005 19.1624V11.6817C7.80005 11.6045 7.87721 11.5276 7.95413 11.5276C8.0313 11.5276 8.10847 11.6045 8.10847 11.6817V19.1624C8.1342 19.2395 8.05702 19.3167 7.95413 19.3167Z" fill="#FA9F3C"/>
<path d="M9.4196 19.3167C9.34243 19.3167 9.26526 19.2395 9.26526 19.1624V11.6817C9.26526 11.6045 9.34243 11.5276 9.4196 11.5276C9.49677 11.5276 9.57369 11.6045 9.57369 11.6817V19.1624C9.57369 19.2395 9.49677 19.3167 9.4196 19.3167Z" fill="#FA9F3C"/>
<path d="M8.18559 19.3167L8.6998 21.142L9.21377 19.3167H8.18559ZM8.6998 21.9129C8.62238 21.9129 8.57119 21.8617 8.54547 21.7846L7.82572 19.1883C7.79999 19.1368 7.82572 19.0851 7.85144 19.0597C7.87717 19.0337 7.92835 19.0082 7.98005 19.0082H9.41955C9.471 19.0082 9.52219 19.0337 9.54791 19.0597C9.57364 19.1109 9.59936 19.1623 9.57364 19.1883L8.85389 21.7846C8.82817 21.8617 8.75099 21.9129 8.6998 21.9129Z" fill="#FA9F3C"/>
<path d="M9.41951 11.836H7.98002C7.90259 11.836 7.82568 11.7588 7.82568 11.6817V9.08537C7.82568 9.0082 7.90259 8.93103 7.98002 8.93103H8.26247C8.3399 8.93103 8.41681 9.0082 8.41681 9.08537C8.41681 9.16229 8.3399 9.23946 8.26247 9.23946H8.13411V11.5018H9.26517V9.23946H9.11084C9.03392 9.23946 8.95675 9.16229 8.95675 9.08537C8.95675 9.0082 9.03392 8.93103 9.11084 8.93103H9.39379C9.47096 8.93103 9.54788 9.0082 9.54788 9.08537V11.6817C9.5736 11.7846 9.49668 11.836 9.41951 11.836Z" fill="#FA9F3C"/>
<path d="M8.41692 8.93107H8.95685V8.10868H8.41692V8.93107ZM9.11094 9.26547H8.23711C8.15994 9.26547 8.08276 9.18831 8.08276 9.11114V7.95434C8.08276 7.87717 8.15994 7.80001 8.23711 7.80001H9.11094C9.18811 7.80001 9.26528 7.87717 9.26528 7.95434V9.11114C9.291 9.18831 9.21383 9.26547 9.11094 9.26547Z" fill="#FA9F3C"/>
</svg>
