<svg width="29" height="29" viewBox="0 0 29 29" fill="none" xmlns="http://www.w3.org/2000/svg">
<path d="M10.3285 15.7323H15.5211V17.4805H10.3285V15.7323Z" fill="#F6F6F6"/>
<path d="M0.50824 11.1574V8.84326H17.8346V14.0358H0.50824V11.1574Z" fill="#A6FFD5"/>
<path d="M15.521 17.4806V15.7325H10.3285V17.4806H15.521ZM17.8346 14.0357V19.7942H0.560181V14.0357H17.8346ZM3.43865 16.8638H2.30835V17.9946H3.43865V16.8638ZM4.00456 18.0461H5.13538V16.9152H4.00456V18.0461ZM5.75275 16.8638V17.9946H6.88354V16.8638H5.75275Z" fill="#A6FFD5"/>
<path d="M19.8914 25.9123C19.8914 25.4498 19.4803 25.0387 19.0173 25.0387C18.5034 25.0387 18.1437 25.4498 18.1437 25.9123C18.1437 26.3753 18.5543 26.7864 19.0173 26.7864C19.5313 26.7864 19.8914 26.4268 19.8914 25.9123ZM28.2716 23.9074V25.6551C28.2716 26.8893 27.2437 27.9177 25.9581 27.9177H12.0761C10.7914 27.9177 9.76248 26.8893 9.76248 25.6551V23.9074H28.2716Z" fill="#A6FFD5"/>
<path d="M28.2716 2.62228V4.36995H9.81442V2.62228C9.81442 1.38857 10.8423 0.360138 12.128 0.360138H26.0095C27.1917 0.360138 28.2716 1.38857 28.2716 2.62228Z" fill="#A6FFD5"/>
<path d="M28.2716 4.36983V23.9074H9.81442V19.7428H11.5112V22.1592H26.524V6.06655H11.5112V8.84315H9.81442V4.36983H28.2716Z" fill="#F6F6F6"/>
<path d="M26.5239 6.06651V22.1592H11.5111V19.7427H17.8345V14.0357V8.84312H11.5111V6.06651H26.5239Z" fill="#F6F6F6"/>
<path d="M19.0174 25.0388C19.5313 25.0388 19.8915 25.4499 19.8915 25.9124C19.8915 26.3754 19.4804 26.7865 19.0174 26.7865C18.5034 26.7865 18.1438 26.3754 18.1438 25.9124C18.1438 25.4499 18.5544 25.0388 19.0174 25.0388Z" fill="#00D26E"/>
<path d="M5.75275 16.8638H6.88354V17.9947H5.75275V16.8638Z" fill="#00D26E"/>
<path d="M4.00455 16.8638H5.13537V17.9947H4.00455V16.8638Z" fill="#00D26E"/>
<path d="M2.25635 16.8638H3.38767V17.9947H2.25635V16.8638Z" fill="#00D26E"/>
<path d="M25.9581 28.2776H12.0761C10.6366 28.2776 9.45435 27.0953 9.45435 25.6553V19.743C9.45435 19.5886 9.60868 19.4348 9.76251 19.4348C9.91685 19.4348 10.0717 19.5886 10.0717 19.743V25.6553C10.0717 26.7357 10.9458 27.6093 12.0251 27.6093H25.9066C26.9865 27.6093 27.8606 26.7357 27.8606 25.6553V2.62238C27.8606 1.54301 26.9865 0.668921 25.9066 0.668921H12.0761C10.9967 0.668921 10.1227 1.54301 10.1227 2.62238V8.84337C10.1227 8.99771 9.96881 9.15205 9.81446 9.15205C9.66012 9.15205 9.50578 8.99771 9.50578 8.84337V2.62238C9.50578 1.18288 10.6885 0.00011711 12.128 0.00011711H26.0095C27.449 0.00011711 28.6313 1.18288 28.6313 2.62238V25.6553C28.5804 27.0953 27.3976 28.2776 25.9581 28.2776Z" fill="#00D26E"/>
<path d="M28.2717 4.67903H9.81445C9.66011 4.67903 9.50577 4.52419 9.50577 4.36985C9.50577 4.21602 9.66011 4.06168 9.81445 4.06168H28.2717C28.426 4.06168 28.5803 4.21602 28.5803 4.36985C28.5803 4.52419 28.426 4.67903 28.2717 4.67903Z" fill="#00D26E"/>
<path d="M28.2717 24.2157H9.81445C9.66011 24.2157 9.50577 24.0618 9.50577 23.9075C9.50577 23.7531 9.66011 23.5988 9.81445 23.5988H28.2717C28.426 23.5988 28.5803 23.7531 28.5803 23.9075C28.5803 24.1128 28.426 24.2157 28.2717 24.2157Z" fill="#00D26E"/>
<path d="M20.7655 2.72513H17.3206C17.1668 2.72513 17.0125 2.57078 17.0125 2.41644C17.0125 2.26261 17.1668 2.10827 17.3206 2.10827H20.7655C20.9199 2.10827 21.0737 2.26261 21.0737 2.41644C21.0737 2.57078 20.9199 2.72513 20.7655 2.72513Z" fill="#00D26E"/>
<path d="M26.524 22.5188H11.5112C11.3569 22.5188 11.2025 22.365 11.2025 22.2107V19.7942C11.2025 19.6398 11.3569 19.4855 11.5112 19.4855C11.6655 19.4855 11.8194 19.6398 11.8194 19.7942V21.902H26.2153V6.42666H11.8194V8.84313C11.8194 8.99747 11.6655 9.15181 11.5112 9.15181C11.3569 9.15181 11.2025 8.99747 11.2025 8.84313V6.06653C11.2025 5.91269 11.3569 5.75835 11.5112 5.75835H26.5749C26.7293 5.75835 26.8836 5.91269 26.8836 6.06653V22.1592C26.8836 22.365 26.7293 22.5188 26.524 22.5188Z" fill="#00D26E"/>
<path d="M0.868288 19.4347H17.5264V9.15194H0.868288V19.4347ZM17.8346 20.103H0.508169C0.354337 20.103 0.199982 19.9487 0.199982 19.7943V8.84326C0.199982 8.68892 0.354337 8.53457 0.508169 8.53457H17.8346C17.9889 8.53457 18.1437 8.68892 18.1437 8.84326V19.7429C18.1947 19.9487 18.0403 20.103 17.8346 20.103Z" fill="#00D26E"/>
<path d="M10.6886 17.1211H15.2643V16.0407H10.6886V17.1211ZM15.521 17.7894H10.3285C10.1741 17.7894 10.0198 17.635 10.0198 17.4807V15.7325C10.0198 15.5782 10.1741 15.4243 10.3285 15.4243H15.521C15.6759 15.4243 15.8302 15.5782 15.8302 15.7325V17.4807C15.8811 17.635 15.7268 17.7894 15.521 17.7894Z" fill="#00D26E"/>
<path d="M14.3902 11.4655H0.508169C0.354337 11.4655 0.199982 11.3112 0.199982 11.1574C0.199982 11.0025 0.354337 10.8482 0.508169 10.8482H14.3902C14.5445 10.8482 14.6988 11.0025 14.6988 11.1574C14.6988 11.3112 14.5445 11.4655 14.3902 11.4655Z" fill="#00D26E"/>
<path d="M17.8346 14.3445H0.508169C0.354337 14.3445 0.199982 14.1906 0.199982 14.0358C0.199982 13.8815 0.354337 13.7276 0.508169 13.7276H17.8346C17.9889 13.7276 18.1437 13.8815 18.1437 14.0358C18.1437 14.1906 18.0403 14.3445 17.8346 14.3445Z" fill="#00D26E"/>
</svg>
