<svg width="2000" height="1214" viewBox="0 0 2000 1214" fill="none" xmlns="http://www.w3.org/2000/svg">
<path d="M1233.4 593V1114.8C1233.4 1143 1210.3 1166.1 1182.1 1166.1H703.4C689.1 1166.1 676.2 1160.2 666.8 1150.7C657.7 1141.4 652.1 1128.8 652.1 1114.8V593C652.1 565.6 660.4 539.9 674.5 518.5C698.3 482.6 738.7 458.5 784.5 457.5C785.5 457.5 786.5 457.5 787.6 457.5H1097.8C1103 457.5 1108.1 457.8 1113.1 458.4C1117.6 458.9 1122.1 459.7 1126.5 460.6C1156.2 467.1 1182.3 483.3 1201.3 505.8C1214.7 521.7 1224.6 540.7 1229.6 561.5C1232.1 571.5 1233.4 582.1 1233.4 593Z" fill="#E5E8FF"/>
<path d="M1109.7 357.1H790.6V513.3H1109.7V357.1Z" fill="#E5E8FF"/>
<path d="M1120.9 422.8H774.6V433.6H1120.9V422.8Z" fill="#E5E8FF"/>
<path d="M1120.9 396.5H774.6V407.3H1120.9V396.5Z" fill="#E5E8FF"/>
<path d="M1120.9 357.7H774.6V379.1H1120.9V357.7Z" fill="#E5E8FF"/>
<path d="M1161.1 948.5L1010.8 1123.7C1010.8 1123.7 735.8 904.1 672.8 768.3L886.9 617.5C886.9 617.6 942.5 793.5 1161.1 948.5Z" fill="#00887D"/>
<path d="M1127.6 941.5L1001.7 1083.2C1001.7 1083.2 765.4 896.3 712.7 782.5L892 656.1C892 656.1 944.4 811.6 1127.6 941.5Z" fill="#04B5A4"/>
<path d="M878.7 913.4L886.4 906.5C883.8 902.2 882.2 898.4 881.5 894.9C880.8 891.4 881.2 887.5 882.5 883.3C883.8 879.1 886.4 875.1 890.2 871.2L897.8 877.6C894.1 881.9 891.9 885.6 891.2 888.9C890.2 893.5 890.7 897.4 892.8 900.7L917.3 878.9C915.4 875.2 914 870.9 913.2 866C912.6 862.3 913 858.8 914.4 855.3C915.8 851.8 918 848.7 921.1 846C926.6 841.1 932.6 839.1 939.1 839.9C943.5 840.5 947.9 843 952.5 847.7L956.2 844.4L959.8 848.9L956.1 852.2C959.2 857 960.8 861.7 960.6 866.3C960.5 872.1 958.3 877.6 953.9 882.6L946.4 875.8C949.1 872.7 950.6 869.6 951.1 866.8C951.6 863.9 951.1 861 949.6 858.1L927.4 877.9C929.5 882.6 930.8 885.8 931.3 887.6C932.2 890.9 932.4 894 932.1 896.9C931.8 899.8 930.9 902.5 929.5 905.2C928.1 907.9 926.1 910.3 923.7 912.4C918.4 917.1 912.6 919.4 906.3 919.2C900 919 894.6 916.3 890.1 911.2L882.3 918.1L878.7 913.4ZM946.2 853.4C943.4 850.8 940.3 849.5 937 849.6C933.7 849.7 930.7 850.8 928 853.2C925.4 855.5 923.8 858.2 923.2 861.3C922.6 864.4 923.2 868.1 924.9 872.5L946.2 853.4ZM896.5 905.3C899.3 907.9 902.5 909.3 906.3 909.2C910.1 909.2 913.6 907.7 916.9 904.8C919.7 902.3 921.4 899.6 922 896.7C922.6 893.8 921.9 889.7 920 884.4L896.5 905.3Z" fill="white"/>
<path d="M1134.9 930.3L958.8 1079.5C958.8 1079.5 721.9 819.2 681.2 675.2L916.5 560.2C916.5 560.1 943.5 742.7 1134.9 930.3Z" fill="#00887D"/>
<path d="M1102.9 918L956.2 1038C956.2 1038 752.5 816.1 718.3 695.4L915.5 599C915.5 599 942.5 760.8 1102.9 918Z" fill="#04B5A4"/>
<path d="M861.6 850.9L870.3 845.4C868.4 840.8 867.4 836.7 867.3 833.1C867.2 829.5 868.1 825.8 870.2 821.8C872.2 817.9 875.4 814.3 879.7 811.1L886.2 818.6C881.9 822.2 879.1 825.6 877.9 828.7C876.2 833.1 876.1 837.1 877.6 840.6L905.3 822.9C904 819 903.3 814.5 903.3 809.5C903.3 805.8 904.3 802.3 906.2 799.1C908.1 795.9 910.8 793.2 914.3 790.9C920.5 787 926.7 785.9 933 787.8C937.2 789 941.2 792.3 945 797.6L949.2 794.9L952.1 799.9L947.9 802.6C950.2 807.9 951 812.8 950.2 817.2C949.2 822.9 946.1 828 941 832.2L934.6 824.2C937.7 821.5 939.7 818.8 940.7 816C941.6 813.2 941.6 810.3 940.6 807.1L915.5 823.1C916.8 828.1 917.6 831.5 917.8 833.3C918.1 836.7 917.9 839.8 917.1 842.6C916.3 845.4 915 847.9 913.2 850.3C911.4 852.7 909.1 854.8 906.3 856.5C900.3 860.3 894.2 861.7 888 860.5C881.8 859.3 876.9 855.8 873.2 850L864.4 855.6L861.6 850.9ZM937.7 802.3C935.3 799.3 932.5 797.6 929.2 797C925.9 796.5 922.8 797.2 919.8 799.1C916.8 801 914.8 803.4 913.7 806.3C912.6 809.2 912.6 813 913.6 817.6L937.7 802.3ZM880.5 845.7C882.8 848.8 885.8 850.6 889.6 851.1C893.3 851.7 897.1 850.8 900.8 848.4C904 846.4 906.1 844 907.1 841.2C908.1 838.4 908.1 834.3 907 828.7L880.5 845.7Z" fill="white"/>
<path d="M1112.2 967.7L904.3 1068C904.3 1068 740.2 756.7 736.9 607L993.5 554.6C993.5 554.7 974 738.2 1112.2 967.7Z" fill="#00887D"/>
<path d="M1084.3 947.8L912.2 1027.2C912.2 1027.2 770.6 761.3 767.8 635.9L982.8 592C982.8 592 968.4 755.5 1084.3 947.8Z" fill="#04B5A4"/>
<path d="M867.5 822.4L877.3 819.2C876.6 814.3 876.7 810.1 877.5 806.6C878.3 803.1 880.1 799.7 883.1 796.4C886 793.1 890 790.4 895 788.4L899.401 797.3C894.301 799.8 890.8 802.3 888.8 805C886 808.8 884.9 812.6 885.6 816.5L916.8 806.3C916.5 802.2 917 797.7 918.3 792.8C919.2 789.2 921.001 786.1 923.701 783.5C926.301 780.9 929.6 778.9 933.6 777.6C940.6 775.3 946.9 775.9 952.5 779.2C956.3 781.4 959.301 785.6 961.701 791.7L966.401 790.2L967.901 795.8L963.201 797.3C964.101 803 963.601 807.9 961.701 812C959.301 817.3 955 821.4 949.1 824.2L944.901 814.9C948.601 813.1 951.2 811 952.8 808.5C954.4 806.1 955.101 803.2 954.901 799.9L926.6 809.1C926.7 814.3 926.5 817.7 926.3 819.5C925.8 822.9 924.8 825.8 923.3 828.3C921.9 830.8 920 833 917.6 834.8C915.2 836.7 912.501 838.1 909.401 839.1C902.601 841.3 896.401 841.1 890.701 838.4C885.001 835.7 881.1 831.1 879 824.6L869.1 827.8L867.5 822.4ZM953.401 794.5C951.801 791 949.5 788.6 946.5 787.3C943.5 786 940.201 785.9 936.901 787C933.601 788.1 931.001 789.9 929.201 792.4C927.401 794.9 926.5 798.6 926.3 803.3L953.401 794.5ZM887.1 822.1C888.6 825.6 891 828.1 894.5 829.6C898 831.1 901.8 831.1 906 829.8C909.6 828.6 912.201 826.9 913.901 824.5C915.601 822.1 916.6 818.1 917 812.4L887.1 822.1Z" fill="white"/>
<path d="M1134 974.4L904.7 1001.3C904.7 1001.3 851.3 653.4 897.1 510.9L1156.7 545.2C1156.7 545.2 1078.3 712.3 1134 974.4Z" fill="#00887D"/>
<path d="M1114.1 946.5L925.5 965.3C925.5 965.3 878.5 667.7 916.8 548.3L1134.3 577C1134.4 577.1 1067.5 726.8 1114.1 946.5Z" fill="#04B5A4"/>
<path d="M1001.7 825.2C1035.94 825.2 1063.7 797.173 1063.7 762.6C1063.7 728.027 1035.94 700 1001.7 700C967.459 700 939.7 728.027 939.7 762.6C939.7 797.173 967.459 825.2 1001.7 825.2Z" fill="#00887D"/>
<path d="M949.9 758.5L960.2 758.7C961.2 753.8 962.6 749.9 964.5 746.8C966.4 743.8 969.2 741.2 973.1 739C977 736.8 981.6 735.6 987 735.4L988.3 745.3C982.7 746 978.5 747.2 975.8 749.1C971.9 751.8 969.7 755.1 969 758.9L1001.8 759.5C1002.9 755.5 1004.8 751.4 1007.6 747.2C1009.7 744.1 1012.4 741.8 1015.7 740.1C1019.1 738.5 1022.8 737.7 1026.9 737.8C1034.2 737.9 1040 740.5 1044.2 745.5C1047 748.9 1048.6 753.8 1048.8 760.3L1053.7 760.4L1053.3 766.2L1048.4 766.1C1047.4 771.8 1045.4 776.3 1042.2 779.5C1038.2 783.7 1032.8 786.2 1026.2 786.9L1025.3 776.8C1029.4 776.3 1032.6 775.1 1034.9 773.4C1037.2 771.7 1038.8 769.1 1039.7 765.9L1010 765.4C1008.4 770.3 1007.1 773.6 1006.3 775.1C1004.7 778.1 1002.8 780.6 1000.6 782.5C998.4 784.4 995.9 785.8 993.1 786.8C990.2 787.8 987.2 788.2 983.9 788.2C976.8 788.1 970.9 785.8 966.5 781.4C962 777 959.9 771.4 960 764.5L949.6 764.3L949.9 758.5ZM1040.3 760.2C1040 756.4 1038.6 753.4 1036.1 751.1C1033.7 748.9 1030.7 747.7 1027.1 747.6C1023.6 747.5 1020.6 748.4 1018.1 750.2C1015.6 752 1013.5 755.2 1011.8 759.6L1040.3 760.2ZM968.6 764.6C968.8 768.4 970.4 771.6 973.2 774.1C976 776.6 979.6 777.9 984 778C987.7 778.1 990.8 777.2 993.2 775.5C995.6 773.8 997.9 770.3 1000 765.1L968.6 764.6Z" fill="white"/>
<path d="M991.2 932H927.6C927.6 930.6 961.6 371.6 918.4 312.8C871.3 248.6 869.4 233.9 863.3 212.2C862.7 210 861.3 204.2 860.7 201.9L876.1 195.9C876.8 198.4 878.9 205.3 880 208.3C887.7 228.9 893.8 244.2 940.5 294.4C997.5 355.5 991.2 925.7 991.2 932Z" fill="#89B640"/>
<path d="M961.8 457.4L952.2 392.3C955.7 325.9 1006.7 306.9 1008.9 306.2L1018.6 333.3L1013.8 319.7L1018.8 333.2C1017.2 333.9 985.7 316.5 961.8 457.4Z" fill="#89B640"/>
<path d="M1274.3 289.9C1274.3 289.9 1248.2 203.2 1179.8 199.9C1067.9 194.5 1035.9 249.6 987.7 335.6C987.7 335.6 1025.3 348.1 1092.5 343.5C1154.9 339.2 1244.5 315 1274.3 289.9Z" fill="#89B640"/>
<path d="M1131 86C1131 86 1083.3 9.09998 1016.4 23.6C906.9 47.4 890.3 108.9 866.1 204.5C866.1 204.5 905.6 206.8 969.4 184.9C1028.4 164.6 1108.7 117.9 1131 86Z" fill="#89B640"/>
<path d="M688.1 48.5C688.1 48.5 796.4 49.7 839.2 106.1C882 162.5 871.2 206 871.2 206C871.2 206 795.1 224.4 757.7 189.5C694.9 131.2 693.2 65.1 688.1 48.5Z" fill="#89B640"/>
<path d="M859.9 193.1C814.7 122.2 704.5 63.8 703.4 63.3L704.3 61.5C705.4 62.1 816.1 120.6 861.6 192L859.9 193.1Z" fill="#52672E"/>
<path d="M876.9 193.1L875.2 192C875.5 191.6 901.9 152.6 944.2 119.9C969.1 100.7 994.5 87.3 1019.8 80.2C1051.4 71.3 1082.9 72.2999 1113.4 82.9999L1112.7 84.8999C1044.7 60.8999 984.2 91.4999 945.5 121.5C903.4 154 877.2 192.7 876.9 193.1Z" fill="#52672E"/>
<path d="M1014.3 320.6L1013 319.1C1013.3 318.8 1045.4 292.4 1091.4 274.7C1118.4 264.3 1144.9 258.9 1170.1 258.6C1201.6 258.3 1231.2 266.1 1258.1 281.8L1257.1 283.5C1197 248.4 1134.3 260.3 1092.2 276.5C1046.5 294 1014.6 320.3 1014.3 320.6Z" fill="#52672E"/>
<path d="M1012.8 836.2C1007.9 836.2 1003.9 840.3 1003.9 845.4V859C1003.9 864 1007.9 868.2 1012.8 868.2H1022.4V836.3H1012.8V836.2Z" fill="#FBCB35"/>
<path d="M1084.2 836.2H1074.5V868.1H1084.2V836.2Z" fill="#FBCB35"/>
<path d="M1048.9 836.2H1033V868.1H1048.9V836.2Z" fill="#FBCB35"/>
<path d="M1154.2 836.2H1092V868.1H1154.2V836.2Z" fill="#FBCB35"/>
<path d="M1171.2 836.2H1162V868.1H1171.2C1176.1 868.1 1180.1 864 1180.1 858.9V845.3C1180.1 840.3 1176.1 836.2 1171.2 836.2Z" fill="#FBCB35"/>
<path d="M1033 836.2H1022.3V868.1H1033V836.2Z" fill="#FFD969"/>
<path d="M1074.5 836.2H1048.9V868.1H1074.5V836.2Z" fill="#FFD969"/>
<path d="M1092 836.2H1084.2V868.1H1092V836.2Z" fill="#FFD969"/>
<path d="M1162 836.2H1154.2V868.1H1162V836.2Z" fill="#FFD969"/>
<path d="M993.3 868.1C988.4 868.1 984.4 872.2 984.4 877.3V890.9C984.4 895.9 988.4 900.1 993.3 900.1H1002.9V868.2H993.3V868.1Z" fill="#FBCB35"/>
<path d="M1064.7 868.1H1055V900H1064.7V868.1Z" fill="#FBCB35"/>
<path d="M1029.5 868.1H1013.6V900H1029.5V868.1Z" fill="#FBCB35"/>
<path d="M1134.7 868.1H1072.5V900H1134.7V868.1Z" fill="#FBCB35"/>
<path d="M1151.8 868.1H1142.6V900H1151.8C1156.7 900 1160.7 895.9 1160.7 890.8V877.2C1160.7 872.2 1156.7 868.1 1151.8 868.1Z" fill="#FBCB35"/>
<path d="M1013.6 868.1H1002.9V900H1013.6V868.1Z" fill="#FFD969"/>
<path d="M1055 868.1H1029.4V900H1055V868.1Z" fill="#FFD969"/>
<path d="M1072.6 868.1H1064.8V900H1072.6V868.1Z" fill="#FFD969"/>
<path d="M1142.6 868.1H1134.8V900H1142.6V868.1Z" fill="#FFD969"/>
<path d="M1012.8 900C1007.9 900 1003.9 904.1 1003.9 909.2V922.8C1003.9 927.8 1007.9 932 1012.8 932H1022.4V900H1012.8Z" fill="#FBCB35"/>
<path d="M1084.2 900H1074.5V931.9H1084.2V900Z" fill="#FBCB35"/>
<path d="M1048.9 900H1033V931.9H1048.9V900Z" fill="#FBCB35"/>
<path d="M1154.2 900H1092V931.9H1154.2V900Z" fill="#FBCB35"/>
<path d="M1171.2 900H1162V931.9H1171.2C1176.1 931.9 1180.1 927.8 1180.1 922.7V909.1C1180.1 904.2 1176.1 900 1171.2 900Z" fill="#FBCB35"/>
<path d="M1033 900H1022.3V931.9H1033V900Z" fill="#FFD969"/>
<path d="M1074.5 900H1048.9V931.9H1074.5V900Z" fill="#FFD969"/>
<path d="M1092 900H1084.2V931.9H1092V900Z" fill="#FFD969"/>
<path d="M1162 900H1154.2V931.9H1162V900Z" fill="#FFD969"/>
<path d="M998.2 932C993.3 932 989.3 936.1 989.3 941.2V954.8C989.3 959.8 993.3 964 998.2 964H1007.8V932H998.2Z" fill="#FBCB35"/>
<path d="M1069.6 932H1059.9V963.9H1069.6V932Z" fill="#FBCB35"/>
<path d="M1034.3 932H1018.4V963.9H1034.3V932Z" fill="#FBCB35"/>
<path d="M1139.6 932H1077.4V963.9H1139.6V932Z" fill="#FBCB35"/>
<path d="M1156.6 932H1147.4V963.9H1156.6C1161.5 963.9 1165.5 959.8 1165.5 954.7V941.1C1165.6 936.1 1161.5 932 1156.6 932Z" fill="#FBCB35"/>
<path d="M1018.4 932H1007.7V963.9H1018.4V932Z" fill="#FFD969"/>
<path d="M1059.9 932H1034.3V963.9H1059.9V932Z" fill="#FFD969"/>
<path d="M1077.4 932H1069.6V963.9H1077.4V932Z" fill="#FFD969"/>
<path d="M1147.4 932H1139.6V963.9H1147.4V932Z" fill="#FFD969"/>
<path d="M1012.8 963.9C1007.9 963.9 1003.9 968 1003.9 973.1V986.7C1003.9 991.7 1007.9 995.9 1012.8 995.9H1022.4V964H1012.8V963.9Z" fill="#FBCB35"/>
<path d="M1084.2 963.9H1074.5V995.8H1084.2V963.9Z" fill="#FBCB35"/>
<path d="M1048.9 963.9H1033V995.8H1048.9V963.9Z" fill="#FBCB35"/>
<path d="M1154.2 963.9H1092V995.8H1154.2V963.9Z" fill="#FBCB35"/>
<path d="M1171.2 963.9H1162V995.8H1171.2C1176.1 995.8 1180.1 991.7 1180.1 986.6V973C1180.1 968.1 1176.1 963.9 1171.2 963.9Z" fill="#FBCB35"/>
<path d="M1033 963.9H1022.3V995.8H1033V963.9Z" fill="#FFD969"/>
<path d="M1074.5 963.9H1048.9V995.8H1074.5V963.9Z" fill="#FFD969"/>
<path d="M1092 963.9H1084.2V995.8H1092V963.9Z" fill="#FFD969"/>
<path d="M1162 963.9H1154.2V995.8H1162V963.9Z" fill="#FFD969"/>
<path d="M1002.1 995.9C997.2 995.9 993.2 1000 993.2 1005.1V1018.7C993.2 1023.7 997.2 1027.9 1002.1 1027.9H1011.7V996H1002.1V995.9Z" fill="#FBCB35"/>
<path d="M1073.5 995.9H1063.8V1027.8H1073.5V995.9Z" fill="#FBCB35"/>
<path d="M1038.2 995.9H1022.3V1027.8H1038.2V995.9Z" fill="#FBCB35"/>
<path d="M1143.5 995.9H1081.3V1027.8H1143.5V995.9Z" fill="#FBCB35"/>
<path d="M1160.5 995.9H1151.3V1027.8H1160.5C1165.4 1027.8 1169.4 1023.7 1169.4 1018.6V1005C1169.4 1000 1165.4 995.9 1160.5 995.9Z" fill="#FBCB35"/>
<path d="M1022.3 995.9H1011.6V1027.8H1022.3V995.9Z" fill="#FFD969"/>
<path d="M1063.8 995.9H1038.2V1027.8H1063.8V995.9Z" fill="#FFD969"/>
<path d="M1081.3 995.9H1073.5V1027.8H1081.3V995.9Z" fill="#FFD969"/>
<path d="M1151.3 995.9H1143.5V1027.8H1151.3V995.9Z" fill="#FFD969"/>
<path d="M1020.5 1027.8C1015.6 1027.8 1011.6 1031.9 1011.6 1037V1050.6C1011.6 1055.6 1015.6 1059.8 1020.5 1059.8H1030.1V1027.9H1020.5V1027.8Z" fill="#FBCB35"/>
<path d="M1092 1027.8H1082.3V1059.7H1092V1027.8Z" fill="#FBCB35"/>
<path d="M1056.7 1027.8H1040.8V1059.7H1056.7V1027.8Z" fill="#FBCB35"/>
<path d="M1162 1027.8H1099.8V1059.7H1162V1027.8Z" fill="#FBCB35"/>
<path d="M1179 1027.8H1169.8V1059.7H1179C1183.9 1059.7 1187.9 1055.6 1187.9 1050.5V1037C1187.9 1031.9 1183.9 1027.8 1179 1027.8Z" fill="#FBCB35"/>
<path d="M1040.8 1027.8H1030.1V1059.7H1040.8V1027.8Z" fill="#FFD969"/>
<path d="M1082.3 1027.8H1056.7V1059.7H1082.3V1027.8Z" fill="#FFD969"/>
<path d="M1099.8 1027.8H1092V1059.7H1099.8V1027.8Z" fill="#FFD969"/>
<path d="M1169.8 1027.8H1162V1059.7H1169.8V1027.8Z" fill="#FFD969"/>
<path d="M1006 1059.8C1001.1 1059.8 997.101 1063.9 997.101 1069V1082.6C997.101 1087.6 1001.1 1091.8 1006 1091.8H1015.6V1059.9H1006V1059.8Z" fill="#FBCB35"/>
<path d="M1077.4 1059.8H1067.7V1091.7H1077.4V1059.8Z" fill="#FBCB35"/>
<path d="M1042.1 1059.8H1026.2V1091.7H1042.1V1059.8Z" fill="#FBCB35"/>
<path d="M1147.4 1059.8H1085.2V1091.7H1147.4V1059.8Z" fill="#FBCB35"/>
<path d="M1164.4 1059.8H1155.2V1091.7H1164.4C1169.3 1091.7 1173.3 1087.6 1173.3 1082.5V1068.9C1173.3 1063.9 1169.3 1059.8 1164.4 1059.8Z" fill="#FBCB35"/>
<path d="M1026.2 1059.8H1015.5V1091.7H1026.2V1059.8Z" fill="#FFD969"/>
<path d="M1067.7 1059.8H1042.1V1091.7H1067.7V1059.8Z" fill="#FFD969"/>
<path d="M1085.2 1059.8H1077.4V1091.7H1085.2V1059.8Z" fill="#FFD969"/>
<path d="M1155.2 1059.8H1147.4V1091.7H1155.2V1059.8Z" fill="#FFD969"/>
<path d="M1006.9 1091.7C1002 1091.7 998 1095.8 998 1100.9V1114.5C998 1119.5 1002 1123.7 1006.9 1123.7H1016.5V1091.8H1006.9V1091.7Z" fill="#FBCB35"/>
<path d="M1078.4 1091.7H1068.7V1123.6H1078.4V1091.7Z" fill="#FBCB35"/>
<path d="M1043.1 1091.7H1027.2V1123.6H1043.1V1091.7Z" fill="#FBCB35"/>
<path d="M1148.4 1091.7H1086.2V1123.6H1148.4V1091.7Z" fill="#FBCB35"/>
<path d="M1165.4 1091.7H1156.2V1123.6H1165.4C1170.3 1123.6 1174.3 1119.5 1174.3 1114.4V1100.8C1174.3 1095.8 1170.3 1091.7 1165.4 1091.7Z" fill="#FBCB35"/>
<path d="M1027.2 1091.7H1016.5V1123.6H1027.2V1091.7Z" fill="#FFD969"/>
<path d="M1068.7 1091.7H1043.1V1123.6H1068.7V1091.7Z" fill="#FFD969"/>
<path d="M1086.2 1091.7H1078.4V1123.6H1086.2V1091.7Z" fill="#FFD969"/>
<path d="M1156.2 1091.7H1148.4V1123.6H1156.2V1091.7Z" fill="#FFD969"/>
<path d="M1108.5 836.7H1016.6C1016.3 836.7 1016.1 836.5 1016.1 836.2C1016.1 835.9 1016.3 835.7 1016.6 835.7H1108.5C1108.8 835.7 1109 835.9 1109 836.2C1109 836.5 1108.8 836.7 1108.5 836.7Z" fill="#F05A2A"/>
<path d="M1105.8 868.6H1014C1013.7 868.6 1013.5 868.4 1013.5 868.1C1013.5 867.8 1013.7 867.6 1014 867.6H1105.9C1106.2 867.6 1106.4 867.8 1106.4 868.1C1106.4 868.4 1106.1 868.6 1105.8 868.6Z" fill="#F05A2A"/>
<path d="M1102.6 900.5H1010.7C1010.4 900.5 1010.2 900.3 1010.2 900C1010.2 899.7 1010.4 899.5 1010.7 899.5H1102.6C1102.9 899.5 1103.1 899.7 1103.1 900C1103.1 900.3 1102.9 900.5 1102.6 900.5Z" fill="#F05A2A"/>
<path d="M1105.8 932.5H1014C1013.7 932.5 1013.5 932.3 1013.5 932C1013.5 931.7 1013.7 931.5 1014 931.5H1105.9C1106.2 931.5 1106.4 931.7 1106.4 932C1106.4 932.3 1106.1 932.5 1105.8 932.5Z" fill="#F05A2A"/>
<path d="M1102.1 996.4H1010.2C1009.9 996.4 1009.7 996.2 1009.7 995.9C1009.7 995.6 1009.9 995.4 1010.2 995.4H1102.1C1102.4 995.4 1102.6 995.6 1102.6 995.9C1102.6 996.2 1102.4 996.4 1102.1 996.4Z" fill="#F05A2A"/>
<path d="M1102.6 964.4H1010.7C1010.4 964.4 1010.2 964.2 1010.2 963.9C1010.2 963.6 1010.4 963.4 1010.7 963.4H1102.6C1102.9 963.4 1103.1 963.6 1103.1 963.9C1103.1 964.2 1102.9 964.4 1102.6 964.4Z" fill="#F05A2A"/>
<path d="M1111.5 1028.3H1019.6C1019.3 1028.3 1019.1 1028.1 1019.1 1027.8C1019.1 1027.5 1019.3 1027.3 1019.6 1027.3H1111.5C1111.8 1027.3 1112 1027.5 1112 1027.8C1112 1028.1 1111.8 1028.3 1111.5 1028.3Z" fill="#F05A2A"/>
<path d="M1109.7 1060.3H1017.8C1017.5 1060.3 1017.3 1060.1 1017.3 1059.8C1017.3 1059.5 1017.5 1059.3 1017.8 1059.3H1109.7C1110 1059.3 1110.2 1059.5 1110.2 1059.8C1110.2 1060.1 1110 1060.3 1109.7 1060.3Z" fill="#F05A2A"/>
<path d="M1094.7 1092.2H1002.8C1002.5 1092.2 1002.3 1092 1002.3 1091.7C1002.3 1091.4 1002.5 1091.2 1002.8 1091.2H1094.7C1095 1091.2 1095.2 1091.4 1095.2 1091.7C1095.2 1092 1094.9 1092.2 1094.7 1092.2Z" fill="#F05A2A"/>
<path d="M876.2 900C871.3 900 867.3 904.1 867.3 909.2V922.8C867.3 927.8 871.3 932 876.2 932H885.8V900H876.2Z" fill="#FBCB35"/>
<path d="M947.701 900H938V931.9H947.701V900Z" fill="#FBCB35"/>
<path d="M912.401 900H896.5V931.9H912.401V900Z" fill="#FBCB35"/>
<path d="M1017.7 900H955.5V931.9H1017.7V900Z" fill="#FBCB35"/>
<path d="M1034.7 900H1025.5V931.9H1034.7C1039.6 931.9 1043.6 927.8 1043.6 922.7V909.1C1043.6 904.2 1039.6 900 1034.7 900Z" fill="#FBCB35"/>
<path d="M896.5 900H885.8V931.9H896.5V900Z" fill="#FFD969"/>
<path d="M938 900H912.4V931.9H938V900Z" fill="#FFD969"/>
<path d="M955.5 900H947.7V931.9H955.5V900Z" fill="#FFD969"/>
<path d="M1025.5 900H1017.7V931.9H1025.5V900Z" fill="#FFD969"/>
<path d="M868.5 868.1C863.6 868.1 859.6 872.2 859.6 877.3V890.9C859.6 895.9 863.6 900.1 868.5 900.1H878.1V868.2H868.5V868.1Z" fill="#FBCB35"/>
<path d="M939.9 868.1H930.2V900H939.9V868.1Z" fill="#FBCB35"/>
<path d="M904.6 868.1H888.7V900H904.6V868.1Z" fill="#FBCB35"/>
<path d="M1009.9 868.1H947.7V900H1009.9V868.1Z" fill="#FBCB35"/>
<path d="M1026.9 868.1H1017.7V900H1026.9C1031.8 900 1035.8 895.9 1035.8 890.8V877.2C1035.8 872.2 1031.8 868.1 1026.9 868.1Z" fill="#FBCB35"/>
<path d="M888.7 868.1H878V900H888.7V868.1Z" fill="#FFD969"/>
<path d="M930.2 868.1H904.6V900H930.2V868.1Z" fill="#FFD969"/>
<path d="M947.7 868.1H939.9V900H947.7V868.1Z" fill="#FFD969"/>
<path d="M1017.7 868.1H1009.9V900H1017.7V868.1Z" fill="#FFD969"/>
<path d="M861.7 932C856.8 932 852.8 936.1 852.8 941.2V954.8C852.8 959.8 856.8 964 861.7 964H871.3V932H861.7Z" fill="#FBCB35"/>
<path d="M933.1 932H923.4V963.9H933.1V932Z" fill="#FBCB35"/>
<path d="M897.8 932H881.9V963.9H897.8V932Z" fill="#FBCB35"/>
<path d="M1003.1 932H940.9V963.9H1003.1V932Z" fill="#FBCB35"/>
<path d="M1020.1 932H1010.9V963.9H1020.1C1025 963.9 1029 959.8 1029 954.7V941.1C1029 936.1 1025 932 1020.1 932Z" fill="#FBCB35"/>
<path d="M881.9 932H871.2V963.9H881.9V932Z" fill="#FFD969"/>
<path d="M923.4 932H897.8V963.9H923.4V932Z" fill="#FFD969"/>
<path d="M940.9 932H933.1V963.9H940.9V932Z" fill="#FFD969"/>
<path d="M1010.9 932H1003.1V963.9H1010.9V932Z" fill="#FFD969"/>
<path d="M876.2 963.9C871.3 963.9 867.3 968 867.3 973.1V986.7C867.3 991.7 871.3 995.9 876.2 995.9H885.8V964H876.2V963.9Z" fill="#FBCB35"/>
<path d="M947.701 963.9H938V995.8H947.701V963.9Z" fill="#FBCB35"/>
<path d="M912.401 963.9H896.5V995.8H912.401V963.9Z" fill="#FBCB35"/>
<path d="M1017.7 963.9H955.5V995.8H1017.7V963.9Z" fill="#FBCB35"/>
<path d="M1034.7 963.9H1025.5V995.8H1034.7C1039.6 995.8 1043.6 991.7 1043.6 986.6V973C1043.6 968.1 1039.6 963.9 1034.7 963.9Z" fill="#FBCB35"/>
<path d="M896.5 963.9H885.8V995.8H896.5V963.9Z" fill="#FFD969"/>
<path d="M938 963.9H912.4V995.8H938V963.9Z" fill="#FFD969"/>
<path d="M955.5 963.9H947.7V995.8H955.5V963.9Z" fill="#FFD969"/>
<path d="M1025.5 963.9H1017.7V995.8H1025.5V963.9Z" fill="#FFD969"/>
<path d="M865.5 995.9C860.6 995.9 856.6 1000 856.6 1005.1V1018.7C856.6 1023.7 860.6 1027.9 865.5 1027.9H875.1V996H865.5V995.9Z" fill="#FBCB35"/>
<path d="M937 995.9H927.3V1027.8H937V995.9Z" fill="#FBCB35"/>
<path d="M901.7 995.9H885.8V1027.8H901.7V995.9Z" fill="#FBCB35"/>
<path d="M1007 995.9H944.8V1027.8H1007V995.9Z" fill="#FBCB35"/>
<path d="M1024 995.9H1014.8V1027.8H1024C1028.9 1027.8 1032.9 1023.7 1032.9 1018.6V1005C1032.9 1000 1028.9 995.9 1024 995.9Z" fill="#FBCB35"/>
<path d="M885.8 995.9H875.1V1027.8H885.8V995.9Z" fill="#FFD969"/>
<path d="M927.3 995.9H901.7V1027.8H927.3V995.9Z" fill="#FFD969"/>
<path d="M944.8 995.9H937V1027.8H944.8V995.9Z" fill="#FFD969"/>
<path d="M1014.8 995.9H1007V1027.8H1014.8V995.9Z" fill="#FFD969"/>
<path d="M884 1027.8C879.1 1027.8 875.1 1031.9 875.1 1037V1050.6C875.1 1055.6 879.1 1059.8 884 1059.8H893.6V1027.9H884V1027.8Z" fill="#FBCB35"/>
<path d="M955.4 1027.8H945.7V1059.7H955.4V1027.8Z" fill="#FBCB35"/>
<path d="M920.2 1027.8H904.3V1059.7H920.2V1027.8Z" fill="#FBCB35"/>
<path d="M1025.4 1027.8H963.2V1059.7H1025.4V1027.8Z" fill="#FBCB35"/>
<path d="M1042.5 1027.8H1033.3V1059.7H1042.5C1047.4 1059.7 1051.4 1055.6 1051.4 1050.5V1037C1051.4 1031.9 1047.4 1027.8 1042.5 1027.8Z" fill="#FBCB35"/>
<path d="M904.3 1027.8H893.6V1059.7H904.3V1027.8Z" fill="#FFD969"/>
<path d="M945.7 1027.8H920.1V1059.7H945.7V1027.8Z" fill="#FFD969"/>
<path d="M963.3 1027.8H955.5V1059.7H963.3V1027.8Z" fill="#FFD969"/>
<path d="M1033.3 1027.8H1025.5V1059.7H1033.3V1027.8Z" fill="#FFD969"/>
<path d="M869.401 1059.8C864.501 1059.8 860.5 1063.9 860.5 1069V1082.6C860.5 1087.6 864.501 1091.8 869.401 1091.8H879V1059.9H869.401V1059.8Z" fill="#FBCB35"/>
<path d="M940.901 1059.8H931.201V1091.7H940.901V1059.8Z" fill="#FBCB35"/>
<path d="M905.601 1059.8H889.701V1091.7H905.601V1059.8Z" fill="#FBCB35"/>
<path d="M1010.9 1059.8H948.701V1091.7H1010.9V1059.8Z" fill="#FBCB35"/>
<path d="M1027.9 1059.8H1018.7V1091.7H1027.9C1032.8 1091.7 1036.8 1087.6 1036.8 1082.5V1068.9C1036.8 1063.9 1032.8 1059.8 1027.9 1059.8Z" fill="#FBCB35"/>
<path d="M889.701 1059.8H879V1091.7H889.701V1059.8Z" fill="#FFD969"/>
<path d="M931.201 1059.8H905.601V1091.7H931.201V1059.8Z" fill="#FFD969"/>
<path d="M948.7 1059.8H940.9V1091.7H948.7V1059.8Z" fill="#FFD969"/>
<path d="M1018.7 1059.8H1010.9V1091.7H1018.7V1059.8Z" fill="#FFD969"/>
<path d="M870.401 1091.7C865.501 1091.7 861.5 1095.8 861.5 1100.9V1114.5C861.5 1119.5 865.501 1123.7 870.401 1123.7H880V1091.8H870.401V1091.7Z" fill="#FBCB35"/>
<path d="M941.801 1091.7H932.101V1123.6H941.801V1091.7Z" fill="#FBCB35"/>
<path d="M906.601 1091.7H890.701V1123.6H906.601V1091.7Z" fill="#FBCB35"/>
<path d="M1011.8 1091.7H949.601V1123.6H1011.8V1091.7Z" fill="#FBCB35"/>
<path d="M1028.9 1091.7H1019.7V1123.6H1028.9C1033.8 1123.6 1037.8 1119.5 1037.8 1114.4V1100.8C1037.8 1095.8 1033.8 1091.7 1028.9 1091.7Z" fill="#FBCB35"/>
<path d="M890.701 1091.7H880V1123.6H890.701V1091.7Z" fill="#FFD969"/>
<path d="M932.1 1091.7H906.5V1123.6H932.1V1091.7Z" fill="#FFD969"/>
<path d="M949.7 1091.7H941.9V1123.6H949.7V1091.7Z" fill="#FFD969"/>
<path d="M1019.7 1091.7H1011.9V1123.6H1019.7V1091.7Z" fill="#FFD969"/>
<path d="M966.1 900.5H874.2C873.9 900.5 873.7 900.3 873.7 900C873.7 899.7 873.9 899.5 874.2 899.5H966.1C966.4 899.5 966.6 899.7 966.6 900C966.6 900.3 966.4 900.5 966.1 900.5Z" fill="#F05A2A"/>
<path d="M969.3 932.5H877.4C877.1 932.5 876.9 932.3 876.9 932C876.9 931.7 877.1 931.5 877.4 931.5H969.3C969.6 931.5 969.8 931.7 969.8 932C969.8 932.3 969.6 932.5 969.3 932.5Z" fill="#F05A2A"/>
<path d="M965.6 996.4H873.7C873.4 996.4 873.2 996.2 873.2 995.9C873.2 995.6 873.4 995.4 873.7 995.4H965.6C965.9 995.4 966.1 995.6 966.1 995.9C966.1 996.2 965.9 996.4 965.6 996.4Z" fill="#F05A2A"/>
<path d="M966.1 964.4H874.2C873.9 964.4 873.7 964.2 873.7 963.9C873.7 963.6 873.9 963.4 874.2 963.4H966.1C966.4 963.4 966.6 963.6 966.6 963.9C966.6 964.2 966.4 964.4 966.1 964.4Z" fill="#F05A2A"/>
<path d="M975 1028.3H883.1C882.8 1028.3 882.6 1028.1 882.6 1027.8C882.6 1027.5 882.8 1027.3 883.1 1027.3H975C975.3 1027.3 975.5 1027.5 975.5 1027.8C975.5 1028.1 975.3 1028.3 975 1028.3Z" fill="#F05A2A"/>
<path d="M973.2 1060.3H881.3C881 1060.3 880.8 1060.1 880.8 1059.8C880.8 1059.5 881 1059.3 881.3 1059.3H973.2C973.5 1059.3 973.7 1059.5 973.7 1059.8C973.7 1060.1 973.5 1060.3 973.2 1060.3Z" fill="#F05A2A"/>
<path d="M958.1 1092.2H866.2C865.9 1092.2 865.7 1092 865.7 1091.7C865.7 1091.4 865.9 1091.2 866.2 1091.2H958.1C958.4 1091.2 958.6 1091.4 958.6 1091.7C958.6 1092 958.4 1092.2 958.1 1092.2Z" fill="#F05A2A"/>
<path d="M731.1 836.2C726.2 836.2 722.2 840.3 722.2 845.4V859C722.2 864 726.2 868.2 731.1 868.2H740.7V836.3H731.1V836.2Z" fill="#FBCB35"/>
<path d="M802.5 836.2H792.8V868.1H802.5V836.2Z" fill="#FBCB35"/>
<path d="M767.2 836.2H751.3V868.1H767.2V836.2Z" fill="#FBCB35"/>
<path d="M872.5 836.2H810.3V868.1H872.5V836.2Z" fill="#FBCB35"/>
<path d="M889.5 836.2H880.3V868.1H889.5C894.4 868.1 898.4 864 898.4 858.9V845.3C898.4 840.3 894.4 836.2 889.5 836.2Z" fill="#FBCB35"/>
<path d="M751.3 836.2H740.6V868.1H751.3V836.2Z" fill="#FFD969"/>
<path d="M792.8 836.2H767.2V868.1H792.8V836.2Z" fill="#FFD969"/>
<path d="M810.3 836.2H802.5V868.1H810.3V836.2Z" fill="#FFD969"/>
<path d="M880.3 836.2H872.5V868.1H880.3V836.2Z" fill="#FFD969"/>
<path d="M711.6 868.1C706.7 868.1 702.7 872.2 702.7 877.3V890.9C702.7 895.9 706.7 900.1 711.6 900.1H721.2V868.2H711.6V868.1Z" fill="#FBCB35"/>
<path d="M783.1 868.1H773.4V900H783.1V868.1Z" fill="#FBCB35"/>
<path d="M747.8 868.1H731.9V900H747.8V868.1Z" fill="#FBCB35"/>
<path d="M853.1 868.1H790.9V900H853.1V868.1Z" fill="#FBCB35"/>
<path d="M870.1 868.1H860.9V900H870.1C875 900 879 895.9 879 890.8V877.2C879 872.2 875 868.1 870.1 868.1Z" fill="#FBCB35"/>
<path d="M731.9 868.1H721.2V900H731.9V868.1Z" fill="#FFD969"/>
<path d="M773.4 868.1H747.8V900H773.4V868.1Z" fill="#FFD969"/>
<path d="M790.9 868.1H783.1V900H790.9V868.1Z" fill="#FFD969"/>
<path d="M860.9 868.1H853.1V900H860.9V868.1Z" fill="#FFD969"/>
<path d="M731.1 900C726.2 900 722.2 904.1 722.2 909.2V922.8C722.2 927.8 726.2 932 731.1 932H740.7V900H731.1Z" fill="#FBCB35"/>
<path d="M802.5 900H792.8V931.9H802.5V900Z" fill="#FBCB35"/>
<path d="M767.2 900H751.3V931.9H767.2V900Z" fill="#FBCB35"/>
<path d="M872.5 900H810.3V931.9H872.5V900Z" fill="#FBCB35"/>
<path d="M889.5 900H880.3V931.9H889.5C894.4 931.9 898.4 927.8 898.4 922.7V909.1C898.4 904.2 894.4 900 889.5 900Z" fill="#FBCB35"/>
<path d="M751.3 900H740.6V931.9H751.3V900Z" fill="#FFD969"/>
<path d="M792.8 900H767.2V931.9H792.8V900Z" fill="#FFD969"/>
<path d="M810.3 900H802.5V931.9H810.3V900Z" fill="#FFD969"/>
<path d="M880.3 900H872.5V931.9H880.3V900Z" fill="#FFD969"/>
<path d="M716.5 932C711.6 932 707.6 936.1 707.6 941.2V954.8C707.6 959.8 711.6 964 716.5 964H726.1V932H716.5Z" fill="#FBCB35"/>
<path d="M787.9 932H778.2V963.9H787.9V932Z" fill="#FBCB35"/>
<path d="M752.6 932H736.7V963.9H752.6V932Z" fill="#FBCB35"/>
<path d="M857.9 932H795.7V963.9H857.9V932Z" fill="#FBCB35"/>
<path d="M874.9 932H865.7V963.9H874.9C879.8 963.9 883.8 959.8 883.8 954.7V941.1C883.9 936.1 879.8 932 874.9 932Z" fill="#FBCB35"/>
<path d="M736.7 932H726V963.9H736.7V932Z" fill="#FFD969"/>
<path d="M778.2 932H752.6V963.9H778.2V932Z" fill="#FFD969"/>
<path d="M795.7 932H787.9V963.9H795.7V932Z" fill="#FFD969"/>
<path d="M865.7 932H857.9V963.9H865.7V932Z" fill="#FFD969"/>
<path d="M731.1 963.9C726.2 963.9 722.2 968 722.2 973.1V986.7C722.2 991.7 726.2 995.9 731.1 995.9H740.7V964H731.1V963.9Z" fill="#FBCB35"/>
<path d="M802.5 963.9H792.8V995.8H802.5V963.9Z" fill="#FBCB35"/>
<path d="M767.2 963.9H751.3V995.8H767.2V963.9Z" fill="#FBCB35"/>
<path d="M872.5 963.9H810.3V995.8H872.5V963.9Z" fill="#FBCB35"/>
<path d="M889.5 963.9H880.3V995.8H889.5C894.4 995.8 898.4 991.7 898.4 986.6V973C898.4 968.1 894.4 963.9 889.5 963.9Z" fill="#FBCB35"/>
<path d="M751.3 963.9H740.6V995.8H751.3V963.9Z" fill="#FFD969"/>
<path d="M792.8 963.9H767.2V995.8H792.8V963.9Z" fill="#FFD969"/>
<path d="M810.3 963.9H802.5V995.8H810.3V963.9Z" fill="#FFD969"/>
<path d="M880.3 963.9H872.5V995.8H880.3V963.9Z" fill="#FFD969"/>
<path d="M720.4 995.9C715.5 995.9 711.5 1000 711.5 1005.1V1018.7C711.5 1023.7 715.5 1027.9 720.4 1027.9H730V996H720.4V995.9Z" fill="#FBCB35"/>
<path d="M791.8 995.9H782.1V1027.8H791.8V995.9Z" fill="#FBCB35"/>
<path d="M756.5 995.9H740.6V1027.8H756.5V995.9Z" fill="#FBCB35"/>
<path d="M861.8 995.9H799.6V1027.8H861.8V995.9Z" fill="#FBCB35"/>
<path d="M878.8 995.9H869.6V1027.8H878.8C883.7 1027.8 887.7 1023.7 887.7 1018.6V1005C887.7 1000 883.7 995.9 878.8 995.9Z" fill="#FBCB35"/>
<path d="M740.6 995.9H729.9V1027.8H740.6V995.9Z" fill="#FFD969"/>
<path d="M782.1 995.9H756.5V1027.8H782.1V995.9Z" fill="#FFD969"/>
<path d="M799.6 995.9H791.8V1027.8H799.6V995.9Z" fill="#FFD969"/>
<path d="M869.6 995.9H861.8V1027.8H869.6V995.9Z" fill="#FFD969"/>
<path d="M738.8 1027.8C733.9 1027.8 729.9 1031.9 729.9 1037V1050.6C729.9 1055.6 733.9 1059.8 738.8 1059.8H748.4V1027.9H738.8V1027.8Z" fill="#FBCB35"/>
<path d="M810.301 1027.8H800.601V1059.7H810.301V1027.8Z" fill="#FBCB35"/>
<path d="M775.001 1027.8H759.101V1059.7H775.001V1027.8Z" fill="#FBCB35"/>
<path d="M880.301 1027.8H818.101V1059.7H880.301V1027.8Z" fill="#FBCB35"/>
<path d="M897.301 1027.8H888.101V1059.7H897.301C902.201 1059.7 906.201 1055.6 906.201 1050.5V1037C906.201 1031.9 902.201 1027.8 897.301 1027.8Z" fill="#FBCB35"/>
<path d="M759.1 1027.8H748.4V1059.7H759.1V1027.8Z" fill="#FFD969"/>
<path d="M800.6 1027.8H775V1059.7H800.6V1027.8Z" fill="#FFD969"/>
<path d="M818.1 1027.8H810.3V1059.7H818.1V1027.8Z" fill="#FFD969"/>
<path d="M888.1 1027.8H880.3V1059.7H888.1V1027.8Z" fill="#FFD969"/>
<path d="M724.3 1059.8C719.4 1059.8 715.4 1063.9 715.4 1069V1082.6C715.4 1087.6 719.4 1091.8 724.3 1091.8H733.9V1059.9H724.3V1059.8Z" fill="#FBCB35"/>
<path d="M795.701 1059.8H786V1091.7H795.701V1059.8Z" fill="#FBCB35"/>
<path d="M760.401 1059.8H744.5V1091.7H760.401V1059.8Z" fill="#FBCB35"/>
<path d="M865.701 1059.8H803.5V1091.7H865.701V1059.8Z" fill="#FBCB35"/>
<path d="M882.701 1059.8H873.5V1091.7H882.701C887.601 1091.7 891.6 1087.6 891.6 1082.5V1068.9C891.6 1063.9 887.601 1059.8 882.701 1059.8Z" fill="#FBCB35"/>
<path d="M744.5 1059.8H733.8V1091.7H744.5V1059.8Z" fill="#FFD969"/>
<path d="M786 1059.8H760.4V1091.7H786V1059.8Z" fill="#FFD969"/>
<path d="M803.5 1059.8H795.7V1091.7H803.5V1059.8Z" fill="#FFD969"/>
<path d="M873.5 1059.8H865.7V1091.7H873.5V1059.8Z" fill="#FFD969"/>
<path d="M725.2 1091.7C720.3 1091.7 716.3 1095.8 716.3 1100.9V1114.5C716.3 1119.5 720.3 1123.7 725.2 1123.7H734.8V1091.8H725.2V1091.7Z" fill="#FBCB35"/>
<path d="M796.701 1091.7H787V1123.6H796.701V1091.7Z" fill="#FBCB35"/>
<path d="M761.401 1091.7H745.5V1123.6H761.401V1091.7Z" fill="#FBCB35"/>
<path d="M866.701 1091.7H804.5V1123.6H866.701V1091.7Z" fill="#FBCB35"/>
<path d="M883.701 1091.7H874.5V1123.6H883.701C888.601 1123.6 892.6 1119.5 892.6 1114.4V1100.8C892.6 1095.8 888.601 1091.7 883.701 1091.7Z" fill="#FBCB35"/>
<path d="M745.5 1091.7H734.8V1123.6H745.5V1091.7Z" fill="#FFD969"/>
<path d="M787 1091.7H761.4V1123.6H787V1091.7Z" fill="#FFD969"/>
<path d="M804.5 1091.7H796.7V1123.6H804.5V1091.7Z" fill="#FFD969"/>
<path d="M874.5 1091.7H866.7V1123.6H874.5V1091.7Z" fill="#FFD969"/>
<path d="M826.8 836.7H735C734.7 836.7 734.5 836.5 734.5 836.2C734.5 835.9 734.7 835.7 735 835.7H826.9C827.2 835.7 827.4 835.9 827.4 836.2C827.4 836.5 827.1 836.7 826.8 836.7Z" fill="#F05A2A"/>
<path d="M824.1 868.6H732.2C731.9 868.6 731.7 868.4 731.7 868.1C731.7 867.8 731.9 867.6 732.2 867.6H824.1C824.4 867.6 824.6 867.8 824.6 868.1C824.6 868.4 824.4 868.6 824.1 868.6Z" fill="#F05A2A"/>
<path d="M820.9 900.5H729C728.7 900.5 728.5 900.3 728.5 900C728.5 899.7 728.7 899.5 729 899.5H820.9C821.2 899.5 821.4 899.7 821.4 900C821.4 900.3 821.2 900.5 820.9 900.5Z" fill="#F05A2A"/>
<path d="M824.1 932.5H732.2C731.9 932.5 731.7 932.3 731.7 932C731.7 931.7 731.9 931.5 732.2 931.5H824.1C824.4 931.5 824.6 931.7 824.6 932C824.6 932.3 824.4 932.5 824.1 932.5Z" fill="#F05A2A"/>
<path d="M820.4 996.4H728.5C728.2 996.4 728 996.2 728 995.9C728 995.6 728.2 995.4 728.5 995.4H820.4C820.7 995.4 820.9 995.6 820.9 995.9C820.9 996.2 820.7 996.4 820.4 996.4Z" fill="#F05A2A"/>
<path d="M820.9 964.4H729C728.7 964.4 728.5 964.2 728.5 963.9C728.5 963.6 728.7 963.4 729 963.4H820.9C821.2 963.4 821.4 963.6 821.4 963.9C821.4 964.2 821.2 964.4 820.9 964.4Z" fill="#F05A2A"/>
<path d="M829.8 1028.3H737.9C737.6 1028.3 737.4 1028.1 737.4 1027.8C737.4 1027.5 737.6 1027.3 737.9 1027.3H829.8C830.1 1027.3 830.3 1027.5 830.3 1027.8C830.3 1028.1 830.1 1028.3 829.8 1028.3Z" fill="#F05A2A"/>
<path d="M828 1060.3H736.1C735.8 1060.3 735.6 1060.1 735.6 1059.8C735.6 1059.5 735.8 1059.3 736.1 1059.3H828C828.3 1059.3 828.5 1059.5 828.5 1059.8C828.5 1060.1 828.3 1060.3 828 1060.3Z" fill="#F05A2A"/>
<path d="M813 1092.2H721.1C720.8 1092.2 720.6 1092 720.6 1091.7C720.6 1091.4 720.8 1091.2 721.1 1091.2H813C813.3 1091.2 813.5 1091.4 813.5 1091.7C813.5 1092 813.2 1092.2 813 1092.2Z" fill="#F05A2A"/>
<path opacity="0.1" d="M1208.3 1137L666.8 1150.6C657.7 1141.3 652.1 1128.7 652.1 1114.7V979L784.6 457.4L790.7 433.6H774.6V422.8H790.7V407.2H774.6V396.4H790.7V379H774.6V357.6H790.7V357H1109.8V357.6H1120.9V379H1109.8V396.4H1120.9V407.2H1109.8V422.8H1120.9V433.6H1109.8L1113.3 458.3L1208.3 1137Z" fill="#E5E8FF"/>
<path opacity="0.32" d="M1091.2 1104.1C1080.4 1104.1 1071.6 1095.3 1071.6 1084.5V629.3C1071.6 618.5 1080.4 609.7 1091.2 609.7C1102 609.7 1110.8 618.5 1110.8 629.3V1084.5C1110.8 1095.3 1102 1104.1 1091.2 1104.1Z" fill="white"/>
<path opacity="0.28" d="M868.8 597.3V1166H704V597.3C704 551.8 740.9 514.9 786.4 514.9C809.2 514.9 829.8 524.1 844.7 539C859.6 553.9 868.8 574.6 868.8 597.3Z" fill="white"/>
<path opacity="0.3" d="M810.3 457.4C785.4 461.7 722.1 476.2 674.5 518.5C698.8 481.8 740.5 457.4 787.6 457.4H810.3Z" fill="white"/>
<path opacity="0.41" d="M995.4 459.3L1041.1 457.4H1097.9C1142 457.4 1181.4 478.8 1206.2 511.7L1206.3 511.8C1207.8 513.8 1209.3 515.9 1210.7 518.1C1210.7 518.1 1210.7 518.2 1210.8 518.2C1211.3 518.9 1211.8 519.6 1212.3 520.4C1212.5 520.8 1212.8 521.2 1213.1 521.6C1214.4 523.7 1215.6 525.8 1216.8 527.9C1216.9 528.1 1217.1 528.4 1217.2 528.6C1217.7 529.5 1218.2 530.4 1218.7 531.3C1218.8 531.4 1218.8 531.5 1218.9 531.7C1219.4 532.8 1220 533.9 1220.5 535C1220.6 535.2 1220.6 535.3 1220.7 535.5C1221 536.2 1221.4 537 1221.7 537.7C1221.9 538.2 1222.1 538.6 1222.3 539.1C1223.3 541.3 1224.1 543.5 1225 545.7C1225.1 546.1 1225.3 546.4 1225.4 546.8C1225.7 547.7 1226 548.6 1226.3 549.5C1226.4 549.7 1226.4 549.9 1226.5 550.1C1226.9 551.2 1227.2 552.3 1227.6 553.5C1227.7 553.7 1227.7 553.9 1227.8 554.1C1228.1 555 1228.3 555.9 1228.6 556.8C1228.7 557.2 1228.8 557.6 1228.9 557.9C1229.2 559.1 1229.5 560.2 1229.8 561.4C1232.3 571.5 1233.6 582.1 1233.6 593V1114.8C1233.6 1143 1210.5 1166.1 1182.3 1166.1H1126.6V585.1C1126.5 585.1 1128.3 459.3 995.4 459.3Z" fill="white"/>
<path d="M1780.6 1101.8C1778.8 1104 1777.8 1105.2 1777.8 1105.2C1777.8 1105.2 1778.8 1103.8 1780.6 1101.8C1796.3 1082.4 1870.9 985.5 1811.8 970C1746.1 952.7 1712.6 1045.7 1712.6 1045.7C1712.6 1045.7 1710.7 1016 1662.8 1021.7C1614.9 1027.5 1631.2 1124.3 1631.2 1124.3C1633.8 1161.7 1628.5 1169.4 1628.5 1169.4H1682.2C1686.4 1161.6 1690.9 1153.5 1695.6 1145.4C1701.7 1113.2 1673.3 1064.2 1673 1063.7L1675.5 1062.3C1676.6 1064.2 1701.1 1106.6 1699.2 1139.2C1737.2 1073.9 1783.7 1006.5 1784.3 1005.7L1786.7 1007.3C1786 1008.3 1724.8 1097 1685.5 1169.4H1750.6C1766.4 1145.3 1795.7 1115 1796 1114.7L1798.1 1116.7C1797.8 1117 1769.9 1145.8 1754.1 1169.4H1811.9C1811.9 1169.4 1838.3 1112.8 1820.1 1092.7C1805.5 1076.7 1787.4 1094 1780.6 1101.8Z" fill="#E5E8FF"/>
<path d="M1780.6 1101.8C1778.8 1103.8 1777.8 1105.2 1777.8 1105.2C1777.8 1105.2 1778.8 1104 1780.6 1101.8Z" fill="#E5E8FF"/>
<path d="M1784.3 1005.6C1783.7 1006.4 1737.2 1073.8 1699.2 1139.1C1699.1 1141.5 1698.8 1143.8 1698.4 1146.1L1695.6 1145.6C1695.6 1145.5 1695.6 1145.5 1695.6 1145.4C1690.9 1153.5 1686.5 1161.5 1682.2 1169.4H1685.5C1724.8 1097 1786 1008.2 1786.7 1007.3L1784.3 1005.6Z" fill="white"/>
<path d="M1795.9 1114.7C1795.6 1115 1766.3 1145.2 1750.5 1169.4H1753.9C1769.7 1145.8 1797.6 1117 1797.9 1116.7L1795.9 1114.7Z" fill="white"/>
<path d="M1675.5 1062.3L1673 1063.7C1673.3 1064.2 1701.6 1113.3 1695.6 1145.4C1696.8 1143.3 1698 1141.2 1699.2 1139.1C1701.1 1106.5 1676.6 1064.2 1675.5 1062.3Z" fill="white"/>
<path d="M1698.4 1146.2C1698.8 1143.9 1699.1 1141.6 1699.2 1139.2C1698 1141.3 1696.8 1143.4 1695.6 1145.5C1695.6 1145.6 1695.6 1145.6 1695.6 1145.7L1698.4 1146.2Z" fill="#E5E8FF"/>
<path d="M528.5 993.3C482.9 969.3 435.7 1045.3 435.7 1045.3C373.2 881.4 306.4 870.8 269 888.1C231.7 905.4 246.3 973.4 246.3 973.4C178.3 936.1 110.4 1013.4 175.7 1065.3C241 1117.3 269 1166.6 269 1166.6H343.6C293.1 1067.2 215.5 1020.9 214.7 1020.4L216.7 1017C217.5 1017.5 297 1064.9 348 1166.6H413.2C386.2 1042.3 301.7 949.1 300.8 948.1L303.7 945.4C304.6 946.4 390.2 1040.8 417.2 1166.6H453.9C461.1 1107.4 497.2 1034.6 497.6 1033.8L501.2 1035.6C500.8 1036.4 465.2 1108.3 458 1166.6H550C550 1166.5 574.1 1017.3 528.5 993.3Z" fill="#E5E8FF"/>
<path d="M300.9 948.1C301.8 949 386.3 1042.3 413.3 1166.6H417.4C390.4 1040.8 304.8 946.4 303.9 945.4L300.9 948.1Z" fill="white"/>
<path d="M216.7 1016.9L214.7 1020.3C215.5 1020.8 293.1 1067.1 343.6 1166.5H348.1C297 1064.9 217.6 1017.4 216.7 1016.9Z" fill="white"/>
<path d="M497.7 1033.7C497.3 1034.5 461.2 1107.3 454 1166.5H458C465.2 1108.2 500.8 1036.3 501.2 1035.5L497.7 1033.7Z" fill="white"/>
<path d="M1548.5 647L1547.6 651.7L1540.5 687.6C1540.5 687.6 1539.4 696.7 1525.9 692.9C1512.4 689.1 1519.3 674.8 1519.3 674.8L1521.5 663.9C1521.5 663.9 1509.9 665.4 1502 655.7C1494.1 646 1495.4 636.8 1500 629.8C1504.6 622.8 1516.4 603.3 1518.6 600.2C1520.8 597.1 1540.4 584.1 1566.1 613.7C1566.1 613.7 1561.3 628.9 1560 630.5C1559.3 631.5 1557.8 634.6 1555.3 638.5C1553.6 641.1 1551.3 644.2 1548.5 647Z" fill="#F9BFB1"/>
<path d="M1533 647.3C1530.4 645.9 1530.4 645.9 1530.4 645.9C1530.4 645.9 1540 616 1537.1 613.3C1534.1 610.5 1518.5 600.1 1518.5 600.1C1518.5 600.1 1509.9 592.1 1513.4 587.8C1516.9 583.5 1536.6 574.1 1552 585.1C1567.4 596.1 1562.4 607.9 1562.4 607.9C1562.4 607.9 1573.1 612.3 1570.7 621.8C1568.3 631.4 1559.6 647.1 1547.5 651.6C1541.7 654.6 1533 647.3 1533 647.3Z" fill="#162C53"/>
<path d="M1535.3 624.2C1535.3 624.2 1542.5 622 1543.7 628.8C1544.9 635.6 1533.5 642.6 1528.6 641.3C1528.6 641.3 1530.7 627.4 1535.3 624.2Z" fill="#F9BFB1"/>
<path d="M1527 617.8C1520.9 613.2 1516.9 611.2 1516.8 611.2L1517.2 610.3C1517.4 610.4 1521.3 612.4 1527.5 617L1527 617.8Z" fill="black"/>
<path d="M1516.34 623.439C1517.76 620.631 1517.6 617.687 1515.97 616.863C1514.35 616.038 1511.88 617.646 1510.45 620.454C1509.03 623.261 1509.19 626.206 1510.82 627.03C1512.44 627.855 1514.91 626.247 1516.34 623.439Z" fill="black"/>
<path d="M1505.2 645.5C1504.9 645.5 1504.6 645.5 1504.3 645.4C1502 645 1500.3 644 1499.4 642.5C1498 640.4 1498.6 638 1498.6 637.9L1498.8 636.9L1499.4 637.7C1499.6 637.9 1503.3 642.3 1511.5 639.8L1512.7 639.4L1512 640.5C1512 640.8 1509.3 645.5 1505.2 645.5Z" fill="black"/>
<path d="M1509.5 615.3C1509.5 615.1 1497.1 620.1 1497.9 622.9C1498.7 625.8 1501.2 628.9 1502 628.7C1502.9 628.7 1509.7 617.5 1509.5 615.3Z" fill="#F9BFB1"/>
<path d="M1485.6 673.3L1449.4 648.4C1449.4 648.4 1460.9 583.2 1465.5 580.7C1471.7 577.3 1466.9 561.7 1460 565.2C1457.1 566.7 1415.5 634.7 1410 646.9C1404.5 659.1 1442.8 686.4 1460.6 694.7L1485.6 673.3Z" fill="#F9BFB1"/>
<path d="M1631.2 1109L1650.2 1143.6L1633.6 1142.4L1618.9 1113.5L1631.2 1109Z" fill="#F9BFB1"/>
<path d="M1509.1 675.7L1472.3 661L1438.7 683.5L1465.3 702.7C1465.3 702.7 1508 678.3 1509.1 675.7Z" fill="#303A87"/>
<path d="M1372.2 1108.3L1364.8 1150.1L1351.8 1142.4L1360.8 1103.1L1372.2 1108.3Z" fill="#F9BFB1"/>
<path d="M1548.6 898.7L1415.7 989.6L1376 1125.7L1351.3 1120.4L1359 975.8L1473.6 820L1548.6 898.7Z" fill="#162C53"/>
<path d="M1506.9 804.3L1639.1 1109.9L1620.8 1122.3L1440.9 864.4L1506.9 804.3Z" fill="#22446D"/>
<path d="M1540.3 860.8C1543.1 867.3 1460.5 930.5 1433.6 862.3C1433.6 862.3 1436.4 809.4 1450 773.2C1453.5 763.8 1457.4 754.5 1461.3 745.6C1467.4 731.8 1473.7 719 1479.8 707.8C1491.7 685.9 1502.5 670.6 1507.5 668.2C1507.5 668.2 1558.8 671.6 1562 684.2C1575.1 735.8 1498.7 763.2 1540.3 860.8Z" fill="#484F80"/>
<path d="M1514 668.9C1514 668.9 1539.5 661.3 1547.4 666.8C1555.3 672.3 1550.7 676.4 1550.7 676.4C1550.7 676.4 1522.2 674.8 1514 668.9Z" fill="#212676"/>
<path d="M1575.62 479.717C1594.41 470.867 1606.03 456.037 1601.58 446.595C1597.13 437.153 1578.3 436.673 1559.51 445.523C1540.73 454.374 1529.11 469.203 1533.56 478.645C1538 488.088 1556.84 488.567 1575.62 479.717Z" fill="white"/>
<path d="M1550.4 487C1541.8 487 1535.2 484.3 1532.7 479C1528 469 1539.9 453.6 1559.1 444.5C1568.3 440.2 1577.8 437.9 1586 438.1C1594.3 438.3 1600.2 441.2 1602.6 446.1C1604.9 451 1603.4 457.4 1598.2 464C1593.2 470.4 1585.4 476.3 1576.1 480.6C1567.1 484.9 1558 487 1550.4 487ZM1585 440.1C1577.4 440.1 1568.6 442.3 1560 446.3C1541.7 454.9 1530.3 469.2 1534.5 478.1C1538.7 487.1 1557 487.3 1575.3 478.7C1584.2 474.5 1591.8 468.8 1596.6 462.6C1601.3 456.6 1602.7 451 1600.7 446.8C1598.7 442.6 1593.5 440.1 1585.9 439.9C1585.6 440.1 1585.3 440.1 1585 440.1Z" fill="black"/>
<path d="M1649.4 547.8L1601.7 446.5C1606.2 456 1594.5 470.8 1575.8 479.7C1557 488.6 1538.2 488.1 1533.7 478.6L1581.4 579.9C1585.9 589.4 1604.7 589.9 1623.5 581C1642.2 572.2 1653.9 557.3 1649.4 547.8Z" fill="black"/>
<path d="M1286.6 647.8L1566.9 525C1568 524.5 1569.3 525 1569.8 526.1L1571.4 529.8C1571.9 530.9 1571.4 532.2 1570.3 532.7L1290 655.5C1288.9 656 1287.6 655.5 1287.1 654.4L1285.5 650.7C1285 649.6 1285.5 648.3 1286.6 647.8Z" fill="black"/>
<path d="M1289.1 656.2C1288.8 656.2 1288.4 656.1 1288.1 656C1287.4 655.7 1286.9 655.2 1286.6 654.6L1285 650.9C1284.7 650.2 1284.7 649.5 1285 648.8C1285.3 648.1 1285.8 647.6 1286.4 647.3L1566.7 524.5C1567.4 524.2 1568.1 524.2 1568.8 524.5C1569.5 524.8 1570 525.3 1570.3 525.9L1571.9 529.6C1572.5 531 1571.9 532.5 1570.5 533.1L1290.1 656C1289.8 656.1 1289.4 656.2 1289.1 656.2ZM1567.7 525.3C1567.5 525.3 1567.2 525.3 1567 525.4L1286.7 648.2C1286.3 648.4 1286 648.7 1285.8 649.1C1285.6 649.5 1285.6 650 1285.8 650.4L1287.4 654.1C1287.8 654.9 1288.8 655.3 1289.6 655L1570 532.2C1570.8 531.8 1571.2 530.8 1570.9 530L1569.3 526.3C1569.1 525.9 1568.8 525.6 1568.4 525.4C1568.1 525.4 1567.9 525.3 1567.7 525.3Z" fill="black"/>
<path d="M1535.7 700C1535.7 700 1473.3 747.3 1470.8 748.7C1469.2 749.6 1464.6 747.4 1461.3 745.5C1467.4 731.7 1473.7 718.9 1479.8 707.7L1535.7 700Z" fill="#22446D"/>
<path d="M1490.3 563C1490.3 563 1486.5 553.9 1479.1 554C1471.7 554.1 1458.8 566.7 1459.3 569.3C1459.8 571.9 1460.8 578.7 1462.2 579.4C1463.6 580.1 1466.5 580.6 1469 582C1471.6 583.4 1474.3 583 1474.6 579.5C1474.7 578.8 1476.4 581.2 1478.8 580.3C1482 579.1 1480.8 576.3 1480.8 576.3C1480.8 576.3 1483 578.3 1485.4 576.7C1487.2 575.5 1487 574.4 1487.2 573C1487.4 571.4 1489 575.5 1491.3 571.9C1493.6 568.2 1490.3 563 1490.3 563Z" fill="#F9BFB1"/>
<path d="M1472.4 727.2C1472.4 727.2 1421.3 759.2 1411.7 755.4C1402.1 751.6 1330.2 651.2 1330.2 651.2C1330.2 651.2 1314.7 630.6 1316.8 626.9C1318.9 623.3 1322.2 620.8 1325.7 621.1C1329.2 621.4 1329.2 618.4 1333.1 619C1337 619.6 1339.5 617.6 1341.2 618.4C1343 619.3 1344.1 618 1346.2 619C1348.2 620 1351.5 621.2 1351.1 625.7C1350.8 630.2 1354 633.4 1352.6 636.5C1351.2 639.6 1345.2 641 1348.3 646.4C1351.4 651.8 1421.5 710.6 1424.6 714L1460 697.8C1460 697.9 1487.5 720.2 1472.4 727.2Z" fill="#F9BFB1"/>
<path d="M1503.5 671.9L1447.7 701.6C1447.7 701.6 1460.1 722.2 1471.4 731.1C1471.4 731.1 1534.2 705 1541.6 698L1503.5 671.9Z" fill="#484F80"/>
<path d="M582.3 184C582.4 182.9 582.4 181.8 582.4 180.7C582.4 159.2 565 141.8 543.5 141.8C534.5 141.8 526.3 144.8 519.7 150C520 147.3 520.2 144.6 520.2 141.8C520.2 102.2 488.1 70.2 448.6 70.2C409.1 70.2 377 102.3 377 141.8C377 142.3 377 142.8 377 143.3C376 143.2 374.9 143.2 373.9 143.2C363 143.2 353.1 146.6 346 152.1C342.1 130.9 323.5 114.8 301.2 114.8C276 114.8 255.6 135.2 255.6 160.4C255.6 168.6 257.8 176.3 261.6 183C204.8 187.4 168.4 194.1 168.4 201.6C168.4 214.7 279.1 225.4 415.7 225.4C552.3 225.4 663 214.8 663 201.6C662.8 194.6 631.8 188.3 582.3 184Z" fill="#E5E8FF"/>
<path d="M1807.2 113.1C1808.2 110.9 1808.7 108.5 1808.7 105.9C1808.7 96 1800.5 88 1790.5 88C1789.1 88 1787.8 88.2 1786.5 88.5C1783.8 74.7 1771.7 64.2 1757.1 64.2C1756.7 64.2 1756.4 64.2 1756 64.2C1752.7 52.9 1742.1 44.5 1729.4 44.5C1716.4 44.5 1705.5 53.2 1702.6 65C1700.3 64.4 1697.8 64.1 1695.3 64.1C1678.7 64.1 1665.3 77.5 1665.3 94.1C1665.3 101.3 1667.8 107.8 1672 113C1639.9 114.3 1618.9 116.6 1618.9 119.2C1618.9 123.3 1673.1 126.7 1739.9 126.7C1806.7 126.7 1860.9 123.3 1860.9 119.2C1861 116.7 1839.6 114.4 1807.2 113.1Z" fill="#E5E8FF"/>
<path d="M1655.4 1143.6C1656.2 1143.6 1657 1143.7 1657.8 1143.8C1657.4 1138 1656.8 1133 1655.8 1131.7C1653.2 1128.2 1647.9 1133.8 1638.8 1134.1C1629.7 1134.5 1624.3 1124.5 1622.6 1125.7C1618.6 1128.4 1585.1 1147.1 1581.4 1150.5C1579.6 1152.1 1579.3 1155.7 1579.5 1158.8H1640.1C1640.1 1150.5 1647 1143.6 1655.4 1143.6Z" fill="#162C53"/>
<path d="M1640.1 1158.9H1658.3C1658.2 1154.7 1658.1 1149 1657.7 1143.9C1656.9 1143.8 1656.1 1143.7 1655.3 1143.7C1647 1143.6 1640.1 1150.5 1640.1 1158.9Z" fill="#33597F"/>
<path d="M1658.3 1158.9H1640.1H1579.5C1579.7 1162.3 1580.4 1165.2 1580.4 1165.2H1641.5H1658.4C1658.4 1165.2 1658.4 1162.6 1658.3 1158.9Z" fill="#CDE4F6"/>
<path d="M1379 1143.6C1379.8 1143.6 1380.6 1143.7 1381.4 1143.8C1381 1138 1380.4 1133 1379.4 1131.7C1376.8 1128.2 1371.5 1133.8 1362.4 1134.1C1353.3 1134.5 1347.9 1124.5 1346.2 1125.7C1342.2 1128.4 1308.7 1147.1 1305 1150.5C1303.2 1152.1 1302.9 1155.7 1303.1 1158.8H1363.7C1363.7 1150.5 1370.6 1143.6 1379 1143.6Z" fill="#162C53"/>
<path d="M1363.7 1158.9H1381.9C1381.8 1154.7 1381.7 1149 1381.3 1143.9C1380.5 1143.8 1379.7 1143.7 1378.9 1143.7C1370.6 1143.6 1363.7 1150.5 1363.7 1158.9Z" fill="#33597F"/>
<path d="M1381.9 1158.9H1363.7H1303.1C1303.3 1162.3 1304 1165.2 1304 1165.2H1365.1H1382C1382 1165.2 1382 1162.6 1381.9 1158.9Z" fill="#CDE4F6"/>
<path d="M1935.3 1168.5H64.7998V1175.9H1935.3V1168.5Z" fill="#242B2B"/>
</svg>
