<svg width="28" height="28" viewBox="0 0 28 28" fill="none" xmlns="http://www.w3.org/2000/svg">
<path d="M22.0399 23.84H6.35988C6.06284 23.84 5.77796 23.722 5.56792 23.512C5.35788 23.3019 5.23988 23.017 5.23988 22.72V12.64H1.87988L13.4461 2.12543C13.6523 1.93781 13.9211 1.83383 14.1999 1.83383C14.4787 1.83383 14.7474 1.93781 14.9536 2.12543L26.5199 12.64H23.1599V22.72C23.1599 23.017 23.0419 23.3019 22.8318 23.512C22.6218 23.722 22.3369 23.84 22.0399 23.84ZM7.47988 21.6H20.9199V10.5758L14.1999 4.46735L7.47988 10.5758V21.6ZM9.71988 17.12H18.6799V19.36H9.71988V17.12Z" fill="#808080"/>
</svg>
