<svg width="28" height="27" viewBox="0 0 28 27" fill="none" xmlns="http://www.w3.org/2000/svg">
<path d="M22.2399 24.64H6.55995C5.66882 24.64 4.81419 24.286 4.18407 23.6559C3.55395 23.0257 3.19995 22.1711 3.19995 21.28V3.35999C3.19995 3.06295 3.31795 2.77807 3.52799 2.56803C3.73803 2.35799 4.02291 2.23999 4.31995 2.23999H19.9999C20.297 2.23999 20.5819 2.35799 20.7919 2.56803C21.0019 2.77807 21.1199 3.06295 21.1199 3.35999V16.8H25.5999V21.28C25.5999 22.1711 25.2459 23.0257 24.6158 23.6559C23.9857 24.286 23.1311 24.64 22.2399 24.64ZM21.1199 19.04V21.28C21.1199 21.577 21.2379 21.8619 21.448 22.0719C21.658 22.282 21.9429 22.4 22.2399 22.4C22.537 22.4 22.8219 22.282 23.0319 22.0719C23.2419 21.8619 23.3599 21.577 23.3599 21.28V19.04H21.1199ZM7.67995 7.83999V10.08H16.6399V7.83999H7.67995ZM7.67995 12.32V14.56H16.6399V12.32H7.67995ZM7.67995 16.8V19.04H13.2799V16.8H7.67995Z" fill="#828FE8"/>
</svg>
