<svg width="20" height="21" viewBox="0 0 20 21" fill="none" xmlns="http://www.w3.org/2000/svg">
<path d="M9.16663 2.16667C13.3066 2.16667 16.6666 5.52667 16.6666 9.66667C16.6666 13.8067 13.3066 17.1667 9.16663 17.1667C5.02663 17.1667 1.66663 13.8067 1.66663 9.66667C1.66663 5.52667 5.02663 2.16667 9.16663 2.16667ZM9.16663 15.5C12.3891 15.5 15 12.8892 15 9.66667C15 6.44334 12.3891 3.83334 9.16663 3.83334C5.94329 3.83334 3.33329 6.44334 3.33329 9.66667C3.33329 12.8892 5.94329 15.5 9.16663 15.5ZM16.2375 15.5592L18.595 17.9158L17.4158 19.095L15.0591 16.7375L16.2375 15.5592Z" fill="#191919"/>
</svg>
