<svg width="110" height="118" viewBox="0 0 110 118" fill="none" xmlns="http://www.w3.org/2000/svg">
<rect x="1.3775" y="0.958328" width="72.6219" height="65.7191" rx="12.9207" transform="matrix(0.986034 -0.166547 0.186697 0.982418 -0.159678 33.8559)" fill="#8E9CF8" stroke="#FF9A7B" stroke-width="2.34922"/>
<rect x="10.2277" y="58.4895" width="82.2225" height="42.2859" transform="rotate(-42.1401 10.2277 58.4895)" fill="white" stroke="#8E9CF8" stroke-width="1.17461"/>
<ellipse cx="70.4778" cy="38.9054" rx="16.4445" ry="16.4445" fill="#FF9A7B"/>
<rect x="9.7011" y="75.8991" width="82.2225" height="42.2859" transform="rotate(-66.0169 9.7011 75.8991)" fill="white" stroke="#8E9CF8" stroke-width="1.17461"/>
<ellipse cx="49.3326" cy="38.9054" rx="16.4445" ry="16.4445" fill="#FF9A7B"/>
<rect x="4.69826" y="35.2199" width="97.4925" height="76.3495" rx="10.5715" fill="#8E9CF8" stroke="#FF9A7B" stroke-width="7.04765"/>
<mask id="mask0_678_1170" style="mask-type:alpha" maskUnits="userSpaceOnUse" x="8" y="38" width="91" height="80">
<path d="M8.22192 38.7429H98.6667V117.442H8.22192V38.7429Z" fill="#5B5C70"/>
</mask>
<g mask="url(#mask0_678_1170)">
<mask id="path-8-outside-1_678_1170" maskUnits="userSpaceOnUse" x="38.5108" y="-7.14106" width="124.88" height="133.299" fill="black">
<rect fill="white" x="38.5108" y="-7.14106" width="124.88" height="133.299"/>
<path d="M125.754 23.4564L122.876 25.1182C120.678 22.5494 117.939 20.2174 114.66 18.1222C111.381 16.027 107.725 14.4508 103.69 13.3937C99.6559 12.3365 95.4411 12.0421 91.0458 12.5103C86.6504 12.9785 82.2375 14.4915 77.807 17.0495C71.8809 20.4709 67.329 25.2625 64.1514 31.4241C60.9856 37.5413 59.6651 44.606 60.1898 52.6185C60.7265 60.5864 63.5854 69.0573 68.7664 78.0311C74.0126 87.1179 79.9518 93.8856 86.5839 98.3343C93.2442 102.767 100.006 105.127 106.871 105.416C113.763 105.688 120.172 104.114 126.098 100.693C130.529 98.1346 134.054 95.0836 136.673 91.5394C139.276 87.967 141.137 84.1838 142.255 80.1896C143.357 76.1672 143.82 72.2123 143.645 68.3249C143.454 64.4093 142.787 60.8434 141.645 57.6273L144.524 55.9654C145.747 59.3227 146.508 63.1165 146.805 67.3469C147.087 71.5491 146.682 75.8654 145.59 80.296C144.498 84.7266 142.518 88.955 139.65 92.9812C136.766 96.9792 132.77 100.453 127.662 103.402C120.551 107.507 113.225 109.254 105.685 108.641C98.144 108.027 90.9333 105.249 84.0524 100.304C77.1716 95.3591 71.1732 88.4562 66.0573 79.5952C60.9414 70.7343 57.9626 62.0881 57.1207 53.6567C56.2789 45.2254 57.4776 37.5912 60.7169 30.7543C63.9563 23.9175 69.1316 18.4461 76.243 14.3404C81.3507 11.3914 86.3568 9.66757 91.2613 9.16881C96.1657 8.67005 100.809 9.05557 105.192 10.3254C109.559 11.5669 113.499 13.3742 117.014 15.7473C120.513 18.0921 123.426 20.6618 125.754 23.4564Z"/>
</mask>
<path d="M125.754 23.4564L126.342 24.4736L127.55 23.7762L126.657 22.7045L125.754 23.4564ZM122.876 25.1182L121.984 25.8819L122.618 26.6235L123.463 26.1355L122.876 25.1182ZM114.66 18.1222L114.028 19.112L114.028 19.112L114.66 18.1222ZM103.69 13.3937L103.988 12.2574L103.988 12.2574L103.69 13.3937ZM91.0458 12.5103L90.9214 11.3423L90.9214 11.3423L91.0458 12.5103ZM64.1514 31.4241L65.1946 31.964L65.1953 31.9625L64.1514 31.4241ZM60.1898 52.6185L59.0177 52.6952L59.0179 52.6974L60.1898 52.6185ZM86.5839 98.3343L85.9296 99.3098L85.9331 99.3122L86.5839 98.3343ZM106.871 105.416L106.821 106.59L106.824 106.59L106.871 105.416ZM136.673 91.5394L137.618 92.2376L137.623 92.2312L136.673 91.5394ZM142.255 80.1896L143.386 80.5062L143.388 80.4999L142.255 80.1896ZM143.645 68.3249L144.818 68.2721L144.818 68.2676L143.645 68.3249ZM141.645 57.6273L141.058 56.61L140.211 57.0989L140.538 58.0203L141.645 57.6273ZM144.524 55.9654L145.627 55.5632L145.148 54.2485L143.936 54.9482L144.524 55.9654ZM146.805 67.3469L147.977 67.2684L147.977 67.2644L146.805 67.3469ZM145.59 80.296L144.449 80.015L144.449 80.015L145.59 80.296ZM139.65 92.9812L140.603 93.6684L140.607 93.6626L139.65 92.9812ZM105.685 108.641L105.78 107.47L105.78 107.47L105.685 108.641ZM84.0524 100.304L83.367 101.258L83.367 101.258L84.0524 100.304ZM60.7169 30.7543L61.7784 31.2573L61.7784 31.2573L60.7169 30.7543ZM91.2613 9.16881L91.3801 10.3374L91.2613 9.16881ZM105.192 10.3254L104.865 11.4536L104.871 11.4552L105.192 10.3254ZM117.014 15.7473L116.357 16.7208L116.36 16.723L117.014 15.7473ZM125.167 22.4391L122.289 24.101L123.463 26.1355L126.342 24.4736L125.167 22.4391ZM123.769 24.3546C121.485 21.6859 118.655 19.2806 115.293 17.1324L114.028 19.112C117.224 21.1542 119.871 23.4129 121.984 25.8819L123.769 24.3546ZM115.293 17.1324C111.903 14.9666 108.132 13.3434 103.988 12.2574L103.393 14.5299C107.317 15.5582 110.859 17.0873 114.028 19.112L115.293 17.1324ZM103.988 12.2574C99.808 11.1621 95.4496 10.8599 90.9214 11.3423L91.1702 13.6783C95.4326 13.2242 99.5039 13.511 103.393 14.5299L103.988 12.2574ZM90.9214 11.3423C86.3392 11.8304 81.7701 13.4051 77.2197 16.0322L78.3944 18.0667C82.705 15.578 86.9617 14.1266 91.1702 13.6783L90.9214 11.3423ZM77.2197 16.0322C71.096 19.5678 66.3868 24.5268 63.1074 30.8857L65.1953 31.9625C68.2712 25.9982 72.6659 21.3741 78.3944 18.0667L77.2197 16.0322ZM63.1082 30.8843C59.8288 37.2209 58.4814 44.5052 59.0177 52.6952L61.3619 52.5417C60.8488 44.7068 62.1424 37.8616 65.1945 31.964L63.1082 30.8843ZM59.0179 52.6974C59.5696 60.8895 62.5041 69.5337 67.7492 78.6184L69.7836 77.4438C64.6666 68.5808 61.8834 60.2833 61.3618 52.5395L59.0179 52.6974ZM67.7492 78.6184C73.0581 87.8138 79.1092 94.7348 85.9296 99.3098L87.2382 97.3588C80.7943 93.0364 74.9672 86.422 69.7836 77.4438L67.7492 78.6184ZM85.9331 99.3122C92.7424 103.844 99.7093 106.29 106.821 106.59L106.92 104.242C100.304 103.964 93.746 101.69 87.2347 97.3565L85.9331 99.3122ZM106.824 106.59C113.936 106.871 120.566 105.243 126.686 101.71L125.511 99.6753C119.779 102.985 113.59 104.506 106.917 104.242L106.824 106.59ZM126.686 101.71C131.234 99.084 134.888 95.9307 137.618 92.2376L135.729 90.8413C133.219 94.2364 129.824 97.1852 125.511 99.6753L126.686 101.71ZM137.623 92.2312C140.303 88.5531 142.228 84.6439 143.386 80.5062L141.124 79.873C140.046 83.7236 138.25 87.381 135.724 90.8477L137.623 92.2312ZM143.388 80.4999C144.519 76.3678 144.999 72.2904 144.818 68.2721L142.472 68.3777C142.641 72.1342 142.194 75.9666 141.122 79.8793L143.388 80.4999ZM144.818 68.2676C144.622 64.2542 143.938 60.5732 142.752 57.2342L140.538 58.0203C141.637 61.1137 142.285 64.5645 142.472 68.3822L144.818 68.2676ZM142.232 58.6445L145.111 56.9826L143.936 54.9482L141.058 56.61L142.232 58.6445ZM143.42 56.3676C144.6 59.6049 145.342 63.2885 145.634 67.4294L147.977 67.2644C147.673 62.9446 146.894 59.0405 145.627 55.5632L143.42 56.3676ZM145.633 67.4254C145.906 71.4972 145.515 75.6921 144.449 80.015L146.73 80.577C147.849 76.0387 148.267 71.601 147.977 67.2684L145.633 67.4254ZM144.449 80.015C143.396 84.2901 141.483 88.3841 138.694 92.2997L140.607 93.6626C143.554 89.5259 145.6 85.1631 146.73 80.577L144.449 80.015ZM138.698 92.294C135.928 96.1336 132.067 99.5024 127.075 102.384L128.25 104.419C133.473 101.403 137.605 97.8247 140.603 93.6684L138.698 92.294ZM127.075 102.384C120.152 106.382 113.062 108.062 105.78 107.47L105.589 109.811C113.388 110.445 120.95 108.633 128.25 104.419L127.075 102.384ZM105.78 107.47C98.4768 106.876 91.4667 104.185 84.7379 99.35L83.367 101.258C90.3999 106.312 97.8112 109.179 105.589 109.811L105.78 107.47ZM84.7379 99.35C78.0175 94.5205 72.1241 87.754 67.0746 79.0079L65.0401 80.1825C70.2223 89.1585 76.3257 96.1976 83.367 101.258L84.7379 99.35ZM67.0746 79.0079C62.025 70.2619 59.1117 61.7748 58.2895 53.54L55.9519 53.7734C56.8134 62.4014 59.8578 71.2066 65.0401 80.1825L67.0746 79.0079ZM58.2895 53.54C57.4663 45.295 58.6412 37.8788 61.7784 31.2573L59.6554 30.2514C56.3141 37.3037 55.0915 45.1557 55.9519 53.7734L58.2895 53.54ZM61.7784 31.2573C64.9068 24.6546 69.907 19.3548 76.8303 15.3576L75.6557 13.3232C68.3562 17.5375 63.0057 23.1804 59.6554 30.2514L61.7784 31.2573ZM76.8303 15.3576C81.8221 12.4756 86.6699 10.8164 91.3801 10.3374L91.1424 8.00023C86.0437 8.51875 80.8794 10.3073 75.6557 13.3232L76.8303 15.3576ZM91.3801 10.3374C96.1469 9.85263 100.638 10.2289 104.865 11.4536L105.519 9.19715C100.98 7.8822 96.1846 7.48747 91.1424 8.00023L91.3801 10.3374ZM104.871 11.4552C109.126 12.6652 112.952 14.422 116.357 16.7208L117.672 14.7738C114.047 12.3264 109.991 10.4687 105.513 9.19554L104.871 11.4552ZM116.36 16.723C119.78 19.015 122.606 21.512 124.852 24.2082L126.657 22.7045C124.247 19.8115 121.245 17.1691 117.668 14.7715L116.36 16.723Z" fill="white" mask="url(#path-8-outside-1_678_1170)"/>
</g>
<rect x="96.9051" y="54.7642" width="11.7461" height="36.4128" rx="4.11113" fill="#8E9CF8" stroke="white" stroke-width="1.17461"/>
<rect x="101.016" y="61.2235" width="3.52382" height="23.4922" rx="1.76191" fill="white"/>
</svg>
