<svg width="87" height="87" viewBox="0 0 87 87" fill="none" xmlns="http://www.w3.org/2000/svg">
<path d="M82.3565 8H4.25426C2.47527 8 1 9.47527 1 11.2543C1 13.0333 2.47527 14.5085 4.25426 14.5085H18.3561V67.6615C18.3561 74.2568 23.693 79.5937 30.2884 79.5937H56.3224C62.9177 79.5937 68.2547 74.2568 68.2547 67.6615V14.5085H82.3565C84.1355 14.5085 85.6108 13.0333 85.6108 11.2543C85.6108 9.47527 84.1355 8 82.3565 8ZM61.7462 67.6615C61.7462 70.6554 59.3164 73.0852 56.3224 73.0852H30.2884C27.2944 73.0852 24.8646 70.6554 24.8646 67.6615V14.5085H61.7462V67.6615Z" fill="black"/>
<path d="M40.9253 58.5938V58.8438H41.1753H44.5978H44.8478V58.5938V55.1911C46.5653 54.9055 48.0234 54.2381 49.2128 53.1836C50.4781 52.0618 51.0938 50.4351 51.0938 48.3465C51.0938 46.6542 50.5685 45.156 49.5192 43.862C48.4669 42.5642 46.9278 41.6298 44.9245 41.0454L44.9231 41.045C42.8153 40.443 41.3625 39.8769 40.5396 39.3524C39.7499 38.849 39.3718 38.1791 39.3718 37.3243C39.3718 36.568 39.6655 35.9405 40.2681 35.4263C40.8621 34.9194 41.7502 34.6465 42.9721 34.6465C44.0232 34.6465 44.8206 34.8695 45.3913 35.2872C45.9702 35.7109 46.4296 36.3547 46.7592 37.2394L46.8513 37.4866L47.0932 37.3813L50.259 36.0035L50.4745 35.9098L50.3942 35.6889C49.9523 34.4733 49.2513 33.4406 48.2926 32.5945C47.3713 31.7814 46.2195 31.2523 44.8478 30.9999V27.5938V27.3438H44.5978H41.1753H40.9253V27.5938V30.9918C39.6879 31.1832 38.4901 31.7881 37.3329 32.7864C36.0699 33.8759 35.4494 35.4002 35.4494 37.3243C35.4494 38.9273 35.9229 40.2995 36.8777 41.4256C37.8367 42.5566 39.5746 43.4999 42.0399 44.279C43.1751 44.6503 44.0991 45.0003 44.8144 45.3284C45.5344 45.6588 46.0253 45.9593 46.3091 46.2254C46.8776 46.7586 47.1713 47.4844 47.1713 48.4326C47.1713 49.4828 46.7957 50.2219 46.0653 50.699C45.3008 51.1985 44.3596 51.4549 43.2288 51.4549C41.9046 51.4549 40.8616 51.1087 40.0755 50.4383C39.2795 49.7594 38.6663 48.7574 38.2483 47.4113L38.1675 47.151L37.9151 47.2539L34.7493 48.5456L34.5413 48.6305L34.6035 48.8464C35.1266 50.6596 35.9533 52.0827 37.0948 53.0973C38.1785 54.0605 39.4569 54.7238 40.9253 55.0884V58.5938Z" fill="black" stroke="black" stroke-width="0.5"/>
</svg>
