<svg xmlns="http://www.w3.org/2000/svg" viewBox="0 0 64 64"><g id="Layer_32" data-name="Layer 32"><path d="M53,51.764V29A12,12,0,0,0,41,17H23A12,12,0,0,0,11,29V51.764a2,2,0,0,1-1.106,1.789l-1.788.894A2,2,0,0,0,7,56.236V59a2,2,0,0,0,2,2H55a2,2,0,0,0,2-2V56.236a2,2,0,0,0-1.106-1.789l-1.788-.894A2,2,0,0,1,53,51.764Z" style="fill:#ba614d"/><rect x="25" y="14" width="14" height="3" style="fill:#a84835"/><polygon points="43 3 32 5 21 3 25 14 39 14 43 3" style="fill:#ba614d"/><circle cx="32" cy="39" r="12" style="fill:#fcbe42"/><circle cx="32" cy="39" r="9" style="fill:#ffcb4f"/><path d="M56.342,53.553l-1.789-.895A.993.993,0,0,1,54,51.764V29A13.015,13.015,0,0,0,41,16H40V14.175L43.939,3.342a1,1,0,0,0-1.118-1.326L32,3.983,21.179,2.016a1.011,1.011,0,0,0-.944.339,1,1,0,0,0-.174.987L24,14.175V16H23A13.015,13.015,0,0,0,10,29V51.764a.993.993,0,0,1-.553.894l-1.789.895A2.985,2.985,0,0,0,6,56.236V59a3,3,0,0,0,3,3H55a3,3,0,0,0,3-3V56.236A2.985,2.985,0,0,0,56.342,53.553ZM31.821,5.984a1.025,1.025,0,0,0,.358,0L41.465,4.3,38.3,13H35.387l1.561-4.684-1.9-.632L33.28,13H30.72L28.948,7.684l-1.9.632L28.613,13H25.7L22.535,4.3ZM26,15H38v1H26ZM56,59a1,1,0,0,1-1,1H9a1,1,0,0,1-1-1V56.236a.993.993,0,0,1,.553-.894l1.789-.895A2.985,2.985,0,0,0,12,51.764V29A11.013,11.013,0,0,1,23,18H41A11.013,11.013,0,0,1,52,29V51.764a2.985,2.985,0,0,0,1.658,2.683l1.789.895a.993.993,0,0,1,.553.894Z"/><path d="M32,26A13,13,0,1,0,45,39,13.015,13.015,0,0,0,32,26Zm0,24A11,11,0,1,1,43,39,11.013,11.013,0,0,1,32,50Z"/><path d="M32,29A10,10,0,1,0,42,39,10.011,10.011,0,0,0,32,29Zm0,18a8,8,0,1,1,8-8A8.009,8.009,0,0,1,32,47Z"/><path d="M34,35a1,1,0,0,1,1,1h2a3,3,0,0,0-3-3H33V32H31v1H30a3,3,0,0,0-3,3v1a3,3,0,0,0,3,3h1v3H30a1,1,0,0,1-1-1H27a3,3,0,0,0,3,3h1v1h2V45h1a3,3,0,0,0,3-3V41a3,3,0,0,0-3-3H33V35Zm0,5a1,1,0,0,1,1,1v1a1,1,0,0,1-1,1H33V40Zm-3-2H30a1,1,0,0,1-1-1V36a1,1,0,0,1,1-1h1Z"/><polygon points="56 16 56 14 54 14 54 16 52 16 52 18 54 18 54 20 56 20 56 18 58 18 58 16 56 16"/><polygon points="48 8 50 8 50 6 52 6 52 4 50 4 50 2 48 2 48 4 46 4 46 6 48 6 48 8"/><polygon points="14 12 16 12 16 10 18 10 18 8 16 8 16 6 14 6 14 8 12 8 12 10 14 10 14 12"/><polygon points="8 22 10 22 10 20 12 20 12 18 10 18 10 16 8 16 8 18 6 18 6 20 8 20 8 22"/></g></svg>