<svg width="100" height="95" viewBox="0 0 100 95" fill="none" xmlns="http://www.w3.org/2000/svg">
<path fill-rule="evenodd" clip-rule="evenodd" d="M49.629 48.612C49.629 50.839 53.335 53.057 57.908 53.057C62.48 53.057 66.186 50.838 66.186 48.612C66.186 46.385 62.48 44.167 57.908 44.167C53.335 44.167 49.629 46.385 49.629 48.612ZM14.355 52.182C14.355 75.675 33.395 94.714 56.888 94.714C80.38 94.714 99.42 75.675 99.42 52.182C99.42 28.689 80.38 9.65 56.888 9.65C50.266 9.65 44.003 11.163 38.418 13.866C38.758 15.363 38.945 16.918 38.945 18.524C38.945 30.016 29.621 39.34 18.129 39.34C17.535 39.34 16.94 39.306 16.353 39.264C15.061 43.334 14.355 47.677 14.355 52.182ZM85.081 47.32L52.06 68.204L30.522 58.327L32.868 56.874L52.06 65.51L82.726 46.088L85.081 47.32ZM85.081 51.808L52.06 72.691L30.522 62.815L32.868 61.361L52.06 69.997L82.726 50.576L85.081 51.808ZM85.081 42.833L52.06 63.717L30.521 53.84L63.542 32.965L85.081 42.833ZM0.279999 18.523C0.279999 28.383 8.27 36.373 18.129 36.373C27.989 36.373 35.979 28.383 35.979 18.523C35.979 8.664 27.989 0.673996 18.129 0.673996C8.27 0.673996 0.279999 8.664 0.279999 18.523ZM20.475 11.545V16.688H25.618C26.629 16.688 27.453 17.512 27.453 18.523C27.453 19.535 26.628 20.359 25.618 20.359H20.475V25.502C20.475 26.513 19.608 27.286 18.597 27.286C17.576 27.286 16.803 26.513 16.803 25.502V20.359H11.66C10.649 20.359 9.825 19.535 9.825 18.523C9.825 17.512 10.649 16.688 11.66 16.688H16.803V11.545C16.803 10.534 17.627 9.71 18.639 9.71C19.651 9.71 20.475 10.534 20.475 11.545Z" fill="#828FE8"/>
</svg>
