<svg width="28" height="27" viewBox="0 0 28 27" fill="none" xmlns="http://www.w3.org/2000/svg">
<mask id="mask0_511_459" style="mask-type:alpha" maskUnits="userSpaceOnUse" x="0" y="0" width="28" height="27">
<rect x="0.439941" width="26.88" height="26.88" fill="#D9D9D9"/>
</mask>
<g mask="url(#mask0_511_459)">
<path d="M14.2 13.2C12.66 13.2 11.3417 12.6517 10.245 11.555C9.14833 10.4583 8.6 9.14 8.6 7.6C8.6 6.06 9.14833 4.74167 10.245 3.645C11.3417 2.54833 12.66 2 14.2 2C15.74 2 17.0583 2.54833 18.155 3.645C19.2517 4.74167 19.8 6.06 19.8 7.6C19.8 9.14 19.2517 10.4583 18.155 11.555C17.0583 12.6517 15.74 13.2 14.2 13.2ZM3 24.4V20.48C3 19.6867 3.20417 18.9575 3.6125 18.2925C4.02083 17.6275 4.56333 17.12 5.24 16.77C6.68667 16.0467 8.15667 15.5042 9.65 15.1425C11.1433 14.7808 12.66 14.6 14.2 14.6C15.74 14.6 17.2567 14.7808 18.75 15.1425C20.2433 15.5042 21.7133 16.0467 23.16 16.77C23.8367 17.12 24.3792 17.6275 24.7875 18.2925C25.1958 18.9575 25.4 19.6867 25.4 20.48V24.4H3Z" fill="#828FE8"/>
</g>
</svg>
