<svg width="100" height="95" viewBox="0 0 100 95" fill="none" xmlns="http://www.w3.org/2000/svg">
<path fill-rule="evenodd" clip-rule="evenodd" d="M49.349 47.938C49.349 50.165 53.055 52.383 57.628 52.383C62.2 52.383 65.906 50.164 65.906 47.938C65.906 45.711 62.2 43.493 57.628 43.493C53.055 43.493 49.349 45.711 49.349 47.938ZM14.075 51.508C14.075 75.001 33.115 94.04 56.608 94.04C80.1 94.04 99.14 75.001 99.14 51.508C99.14 28.015 80.1 8.976 56.608 8.976C49.986 8.976 43.723 10.489 38.138 13.192C38.478 14.689 38.665 16.244 38.665 17.85C38.665 29.342 29.341 38.666 17.849 38.666C17.255 38.666 16.66 38.632 16.073 38.59C14.781 42.66 14.075 47.003 14.075 51.508ZM84.801 46.646L51.78 67.53L30.242 57.653L32.588 56.2L51.78 64.836L82.446 45.414L84.801 46.646ZM84.801 51.134L51.78 72.017L30.242 62.141L32.588 60.687L51.78 69.323L82.446 49.902L84.801 51.134ZM84.801 42.159L51.78 63.043L30.241 53.166L63.262 32.291L84.801 42.159ZM0 17.849C0 27.709 7.99 35.699 17.849 35.699C27.709 35.699 35.699 27.709 35.699 17.849C35.699 7.99 27.709 0 17.849 0C7.99 0 0 7.99 0 17.849ZM19.5 16.014H20.195H25.338C26.349 16.014 27.173 16.838 27.173 17.849C27.173 18.861 26.348 19.685 25.338 19.685H20.195H19.9727C19.9727 19.685 19.37 19.685 18.359 19.685C17.338 19.685 17 19.685 17 19.685H16.523H11.38C10.369 19.685 9.545 18.861 9.545 17.849C9.545 16.838 10.369 16.014 11.38 16.014H16.523L17 16C17 16 17.347 16.014 18.359 16.014C19.371 16.014 19.5 16.014 19.5 16.014Z" fill="#828FE8"/>
</svg>
