<svg width="28" height="27" viewBox="0 0 28 27" fill="none" xmlns="http://www.w3.org/2000/svg">
<path d="M2.71997 10.08H24C24.297 10.08 24.5819 10.198 24.7919 10.4081C25.002 10.6181 25.12 10.903 25.12 11.2V22.4C25.12 22.6971 25.002 22.982 24.7919 23.192C24.5819 23.402 24.297 23.52 24 23.52H3.83997C3.54293 23.52 3.25805 23.402 3.04801 23.192C2.83797 22.982 2.71997 22.6971 2.71997 22.4V10.08ZM3.83997 3.36005H20.64V7.84005H2.71997V4.48005C2.71997 4.183 2.83797 3.89813 3.04801 3.68809C3.25805 3.47805 3.54293 3.36005 3.83997 3.36005V3.36005ZM17.28 15.68V17.92H20.64V15.68H17.28Z" fill="#828FE8"/>
</svg>
